{
.appVersion = "1352";
DisplayStrings = (

glyphs = (
{
color = 6;
glyphname = .notdef;
lastChange = "2021-11-24 01:08:46 +0000";
layers = (
{
layerId = "9AA098C0-EDBC-463F-BC21-AFCD07A070D0";
paths = (
{
closed = 1;
nodes = (
"479 0 LINE",
"488 8 LINE",
"488 621 LINE",
"479 630 LINE",
"58 630 LINE",
"50 620 LINE",
"50 9 LINE",
"58 0 LINE"
);
},
{
closed = 1;
nodes = (
"471 613 LINE",
"471 16 LINE",
"67 16 LINE",
"67 613 LINE"
);
},
{
closed = 1;
nodes = (
"437 49 LINE",
"437 577 LINE",
"102 577 LINE",
"102 49 LINE"
);
},
{
closed = 1;
nodes = (
"244 316 LINE",
"154 479 LINE",
"173 514 LINE",
"263 350 LINE",
"354 514 LINE",
"373 479 LINE",
"283 314 LINE",
"373 150 LINE",
"354 116 LINE",
"263 279 LINE",
"173 116 LINE",
"154 150 LINE"
);
}
);
userData = {
assembly = "SVTCA[0]	/* SetFreedomAndProjectionVectorToAxis */\012PUSHW[ ]	/* 1 value pushed */\0122 \012MDAP[1]	/* MoveDirectAbsPt */\012PUSHW[ ]	/* 1 value pushed */\0120 \012RCVT[ ]	/* ReadCVT */\012IF[ ]	/* If */\012PUSHW[ ]	/* 1 value pushed */\0126 \012MDAP[1]	/* MoveDirectAbsPt */\012ELSE[ ]	/* Else */\012PUSHW[ ]	/* 2 values pushed */\0126 5 \012MIAP[0]	/* MoveIndirectAbsPt */\012EIF[ ]	/* EndIf */\012PUSHW[ ]	/* 3 values pushed */\01216 6 2 \012SRP1[ ]	/* SetRefPoint1 */\012SRP2[ ]	/* SetRefPoint2 */\012IP[ ]	/* InterpolatePts */\012PUSHW[ ]	/* 3 values pushed */\01217 6 2 \012SRP1[ ]	/* SetRefPoint1 */\012SRP2[ ]	/* SetRefPoint2 */\012IP[ ]	/* InterpolatePts */\012PUSHW[ ]	/* 3 values pushed */\01218 6 2 \012SRP1[ ]	/* SetRefPoint1 */\012SRP2[ ]	/* SetRefPoint2 */\012IP[ ]	/* InterpolatePts */\012PUSHW[ ]	/* 3 values pushed */\01222 6 2 \012SRP1[ ]	/* SetRefPoint1 */\012SRP2[ ]	/* SetRefPoint2 */\012IP[ ]	/* InterpolatePts */\012PUSHW[ ]	/* 3 values pushed */\01223 6 2 \012SRP1[ ]	/* SetRefPoint1 */\012SRP2[ ]	/* SetRefPoint2 */\012IP[ ]	/* InterpolatePts */\012PUSHW[ ]	/* 3 values pushed */\01224 6 2 \012SRP1[ ]	/* SetRefPoint1 */\012SRP2[ ]	/* SetRefPoint2 */\012IP[ ]	/* InterpolatePts */\012IUP[0]	/* InterpolateUntPts */\012IUP[1]	/* InterpolateUntPts */";
};
width = 538;
}
);
note = .notdef;
},
{
color = 6;
glyphname = A;
lastChange = "2021-11-24 16:17:35 +0000";
layers = (
{
layerId = "9AA098C0-EDBC-463F-BC21-AFCD07A070D0";
paths = (
{
closed = 1;
nodes = (
"46 162 LINE",
"254 162 LINE",
"274 0 LINE",
"286 0 LINE",
"218 591 LINE",
"205 591 LINE",
"-29 0 LINE",
"-17 0 LINE"
);
},
{
closed = 1;
nodes = (
"208 572 LINE",
"212 532 LINE",
"253 173 LINE",
"51 173 LINE",
"195 534 LINE"
);
}
);
width = 327;
}
);
leftKerningGroup = A;
note = A;
rightKerningGroup = A;
unicode = 0041;
},
{
color = 11;
glyphname = Aacute;
lastChange = "2021-11-24 16:17:35 +0000";
layers = (
{
layerId = "9AA098C0-EDBC-463F-BC21-AFCD07A070D0";
paths = (
{
closed = 1;
nodes = (
"125 162 LINE",
"333 162 LINE",
"353 0 LINE",
"365 0 LINE",
"297 591 LINE",
"284 591 LINE",
"50 0 LINE",
"62 0 LINE"
);
},
{
closed = 1;
nodes = (
"287 572 LINE",
"291 532 LINE",
"332 173 LINE",
"130 173 LINE",
"274 534 LINE"
);
},
{
closed = 1;
nodes = (
"334 750 LINE",
"260 664 LINE",
"271 664 LINE",
"356 750 LINE"
);
}
);
userData = {
assembly = "SVTCA[0]	/* SetFreedomAndProjectionVectorToAxis */\012PUSHW[ ]	/* 4 values pushed */\01215 3 13 4 \012CALL[ ]	/* CallFunction */\012IUP[0]	/* InterpolateUntPts */\012IUP[1]	/* InterpolateUntPts */";
};
width = 415;
}
);
leftKerningGroup = A;
note = Aacute;
rightKerningGroup = A;
unicode = 00C1;
},
{
color = 11;
glyphname = Abreve;
lastChange = "2021-11-24 16:17:35 +0000";
layers = (
{
layerId = "9AA098C0-EDBC-463F-BC21-AFCD07A070D0";
paths = (
{
closed = 1;
nodes = (
"125 162 LINE",
"333 162 LINE",
"353 0 LINE",
"365 0 LINE",
"297 591 LINE",
"284 591 LINE",
"50 0 LINE",
"62 0 LINE"
);
},
{
closed = 1;
nodes = (
"287 572 LINE",
"291 532 LINE",
"332 173 LINE",
"130 173 LINE",
"274 534 LINE"
);
},
{
closed = 1;
nodes = (
"229 671 OFFCURVE",
"229 707 QCURVE",
"218 707 LINE",
"218 695 OFFCURVE",
"225 667 OFFCURVE",
"242 645 OFFCURVE",
"272 630 OFFCURVE",
"296 630 QCURVE SMOOTH",
"320 630 OFFCURVE",
"355 645 OFFCURVE",
"379 667 OFFCURVE",
"393 695 OFFCURVE",
"396 707 QCURVE",
"385 707 LINE",
"374 671 OFFCURVE",
"327 638 OFFCURVE",
"297 638 QCURVE SMOOTH",
"267 638 OFFCURVE"
);
}
);
width = 446;
}
);
leftKerningGroup = A;
note = Abreve;
rightKerningGroup = A;
unicode = 0102;
},
{
color = 11;
glyphname = Acircumflex;
lastChange = "2021-11-24 16:17:35 +0000";
layers = (
{
layerId = "9AA098C0-EDBC-463F-BC21-AFCD07A070D0";
paths = (
{
closed = 1;
nodes = (
"125 162 LINE",
"333 162 LINE",
"353 0 LINE",
"365 0 LINE",
"297 591 LINE",
"284 591 LINE",
"50 0 LINE",
"62 0 LINE"
);
},
{
closed = 1;
nodes = (
"287 572 LINE",
"291 532 LINE",
"332 173 LINE",
"130 173 LINE",
"274 534 LINE"
);
},
{
closed = 1;
nodes = (
"281 727 OFFCURVE",
"227 680 OFFCURVE",
"202 656 QCURVE",
"215 656 LINE",
"312 743 LINE",
"384 656 LINE",
"398 656 LINE",
"381 677 OFFCURVE",
"357 706 OFFCURVE",
"340 727 OFFCURVE",
"328 742 OFFCURVE",
"322 750 QCURVE",
"306 750 LINE"
);
}
);
userData = {
assembly = "SVTCA[0]	/* SetFreedomAndProjectionVectorToAxis */\012PUSHW[ ]	/* 4 values pushed */\01213 3 19 4 \012CALL[ ]	/* CallFunction */\012PUSHW[ ]	/* 1 value pushed */\01219 \012SRP0[ ]	/* SetRefPoint0 */\012PUSHW[ ]	/* 1 value pushed */\01221 \012MDRP[10000]	/* MoveDirectRelPt */\012IUP[0]	/* InterpolateUntPts */\012IUP[1]	/* InterpolateUntPts */";
};
width = 447;
}
);
leftKerningGroup = A;
note = Acircumflex;
rightKerningGroup = A;
unicode = 00C2;
},
{
color = 11;
glyphname = Adieresis;
lastChange = "2021-11-24 16:17:35 +0000";
layers = (
{
layerId = "9AA098C0-EDBC-463F-BC21-AFCD07A070D0";
paths = (
{
closed = 1;
nodes = (
"125 162 LINE",
"333 162 LINE",
"353 0 LINE",
"365 0 LINE",
"297 591 LINE",
"284 591 LINE",
"50 0 LINE",
"62 0 LINE"
);
},
{
closed = 1;
nodes = (
"287 572 LINE",
"291 532 LINE",
"332 173 LINE",
"130 173 LINE",
"274 534 LINE"
);
},
{
closed = 1;
nodes = (
"363 718 OFFCURVE",
"370 718 QCURVE SMOOTH",
"385 718 OFFCURVE",
"389 734 QCURVE SMOOTH",
"391 750 OFFCURVE",
"375 750 QCURVE SMOOTH",
"359 750 OFFCURVE",
"357 734 QCURVE",
"355 727 OFFCURVE"
);
},
{
closed = 1;
nodes = (
"267 718 OFFCURVE",
"274 718 QCURVE SMOOTH",
"289 718 OFFCURVE",
"293 734 QCURVE SMOOTH",
"295 750 OFFCURVE",
"279 750 QCURVE SMOOTH",
"263 750 OFFCURVE",
"261 734 QCURVE",
"259 727 OFFCURVE"
);
}
);
width = 388;
}
);
leftKerningGroup = A;
note = Adieresis;
rightKerningGroup = A;
unicode = 00C4;
},
{
color = 11;
glyphname = Agrave;
lastChange = "2021-11-24 16:17:35 +0000";
layers = (
{
layerId = "9AA098C0-EDBC-463F-BC21-AFCD07A070D0";
paths = (
{
closed = 1;
nodes = (
"125 162 LINE",
"333 162 LINE",
"353 0 LINE",
"365 0 LINE",
"297 591 LINE",
"284 591 LINE",
"50 0 LINE",
"62 0 LINE"
);
},
{
closed = 1;
nodes = (
"287 572 LINE",
"291 532 LINE",
"332 173 LINE",
"130 173 LINE",
"274 534 LINE"
);
},
{
closed = 1;
nodes = (
"313 664 LINE",
"263 750 LINE",
"241 750 LINE",
"302 664 LINE"
);
}
);
userData = {
assembly = "SVTCA[0]	/* SetFreedomAndProjectionVectorToAxis */\012PUSHW[ ]	/* 4 values pushed */\01214 3 16 4 \012CALL[ ]	/* CallFunction */\012IUP[0]	/* InterpolateUntPts */\012IUP[1]	/* InterpolateUntPts */";
};
width = 414;
}
);
leftKerningGroup = A;
note = Agrave;
rightKerningGroup = A;
unicode = 00C0;
},
{
color = 11;
glyphname = Amacron;
lastChange = "2021-11-24 16:17:35 +0000";
layers = (
{
layerId = "9AA098C0-EDBC-463F-BC21-AFCD07A070D0";
paths = (
{
closed = 1;
nodes = (
"125 162 LINE",
"333 162 LINE",
"353 0 LINE",
"365 0 LINE",
"297 591 LINE",
"284 591 LINE",
"50 0 LINE",
"62 0 LINE"
);
},
{
closed = 1;
nodes = (
"287 572 LINE",
"291 532 LINE",
"332 173 LINE",
"130 173 LINE",
"274 534 LINE"
);
},
{
closed = 1;
nodes = (
"396 685 LINE",
"397 694 LINE",
"196 694 LINE",
"195 685 LINE"
);
}
);
width = 446;
}
);
leftKerningGroup = A;
note = Amacron;
rightKerningGroup = A;
unicode = 0100;
},
{
color = 11;
glyphname = Aogonek;
lastChange = "2021-11-24 16:17:35 +0000";
layers = (
{
layerId = "9AA098C0-EDBC-463F-BC21-AFCD07A070D0";
paths = (
{
closed = 1;
nodes = (
"126 162 LINE",
"334 162 LINE",
"353 0 LINE",
"357 0 LINE",
"336 -11 OFFCURVE",
"296 -46 OFFCURVE",
"262 -87 OFFCURVE",
"238 -133 OFFCURVE",
"235 -156 QCURVE SMOOTH",
"232 -179 OFFCURVE",
"243 -210 OFFCURVE",
"267 -231 OFFCURVE",
"300 -240 OFFCURVE",
"319 -240 QCURVE SMOOTH",
"343 -240 OFFCURVE",
"388 -230 OFFCURVE",
"402 -222 QCURVE",
"400 -212 LINE",
"363 -229 OFFCURVE",
"319 -229 QCURVE SMOOTH",
"281 -229 OFFCURVE",
"243 -188 OFFCURVE",
"248 -154 QCURVE SMOOTH",
"250 -136 OFFCURVE",
"273 -93 OFFCURVE",
"306 -51 OFFCURVE",
"346 -13 OFFCURVE",
"367 0 QCURVE",
"365 0 LINE",
"297 591 LINE",
"284 591 LINE",
"50 0 LINE",
"62 0 LINE"
);
},
{
closed = 1;
nodes = (
"288 572 LINE",
"292 532 LINE",
"333 173 LINE",
"131 173 LINE",
"274 534 LINE"
);
}
);
userData = {
assembly = "SVTCA[0]	/* SetFreedomAndProjectionVectorToAxis */\012PUSHW[ ]	/* 1 value pushed */\0120 \012RCVT[ ]	/* ReadCVT */\012IF[ ]	/* If */\012PUSHW[ ]	/* 1 value pushed */\0120 \012MDAP[1]	/* MoveDirectAbsPt */\012ELSE[ ]	/* Else */\012PUSHW[ ]	/* 2 values pushed */\0120 5 \012MIAP[0]	/* MoveIndirectAbsPt */\012EIF[ ]	/* EndIf */\012PUSHW[ ]	/* 1 value pushed */\0120 \012RCVT[ ]	/* ReadCVT */\012IF[ ]	/* If */\012PUSHW[ ]	/* 1 value pushed */\0123 \012MDAP[1]	/* MoveDirectAbsPt */\012ELSE[ ]	/* Else */\012PUSHW[ ]	/* 2 values pushed */\0123 5 \012MIAP[0]	/* MoveIndirectAbsPt */\012EIF[ ]	/* EndIf */\012PUSHW[ ]	/* 1 value pushed */\0120 \012RCVT[ ]	/* ReadCVT */\012IF[ ]	/* If */\012PUSHW[ ]	/* 1 value pushed */\01228 \012MDAP[1]	/* MoveDirectAbsPt */\012ELSE[ ]	/* Else */\012PUSHW[ ]	/* 2 values pushed */\01228 5 \012MIAP[0]	/* MoveIndirectAbsPt */\012EIF[ ]	/* EndIf */\012IUP[0]	/* InterpolateUntPts */\012IUP[1]	/* InterpolateUntPts */";
};
width = 446;
}
);
leftKerningGroup = A;
note = Aogonek;
rightKerningGroup = A;
unicode = 0104;
},
{
color = 11;
glyphname = Aring;
lastChange = "2021-11-24 16:17:35 +0000";
layers = (
{
layerId = "9AA098C0-EDBC-463F-BC21-AFCD07A070D0";
paths = (
{
closed = 1;
nodes = (
"229 621 OFFCURVE",
"244 601 OFFCURVE",
"268 588 OFFCURVE",
"282 587 QCURVE",
"50 0 LINE",
"62 0 LINE",
"125 162 LINE",
"333 162 LINE",
"353 0 LINE",
"365 0 LINE",
"297 587 LINE",
"326 591 OFFCURVE",
"369 633 OFFCURVE",
"374 662 QCURVE SMOOTH",
"378 693 OFFCURVE",
"340 737 OFFCURVE",
"309 737 QCURVE SMOOTH",
"278 737 OFFCURVE",
"228 693 OFFCURVE",
"224 662 QCURVE SMOOTH",
"222 647 OFFCURVE"
);
},
{
closed = 1;
nodes = (
"287 572 LINE",
"291 532 LINE",
"332 173 LINE",
"130 173 LINE",
"274 534 LINE"
);
},
{
closed = 1;
nodes = (
"280 727 OFFCURVE",
"308 727 QCURVE SMOOTH",
"336 727 OFFCURVE",
"366 690 OFFCURVE",
"362 662 QCURVE SMOOTH",
"357 634 OFFCURVE",
"317 597 OFFCURVE",
"289 597 QCURVE SMOOTH",
"261 597 OFFCURVE",
"231 634 OFFCURVE",
"236 662 QCURVE SMOOTH",
"240 690 OFFCURVE"
);
}
);
userData = {
assembly = "SVTCA[0]	/* SetFreedomAndProjectionVectorToAxis */\012PUSHW[ ]	/* 1 value pushed */\0120 \012RCVT[ ]	/* ReadCVT */\012IF[ ]	/* If */\012PUSHW[ ]	/* 1 value pushed */\0129 \012MDAP[1]	/* MoveDirectAbsPt */\012ELSE[ ]	/* Else */\012PUSHW[ ]	/* 2 values pushed */\0129 11 \012MIAP[0]	/* MoveIndirectAbsPt */\012EIF[ ]	/* EndIf */\012PUSHW[ ]	/* 1 value pushed */\0120 \012RCVT[ ]	/* ReadCVT */\012IF[ ]	/* If */\012PUSHW[ ]	/* 1 value pushed */\01216 \012MDAP[1]	/* MoveDirectAbsPt */\012ELSE[ ]	/* Else */\012PUSHW[ ]	/* 2 values pushed */\01216 11 \012MIAP[0]	/* MoveIndirectAbsPt */\012EIF[ ]	/* EndIf */\012IUP[0]	/* InterpolateUntPts */\012IUP[1]	/* InterpolateUntPts */";
};
width = 424;
}
);
leftKerningGroup = A;
note = Aring;
rightKerningGroup = A;
unicode = 00C5;
},
{
color = 11;
glyphname = Atilde;
lastChange = "2021-11-24 16:17:35 +0000";
layers = (
{
layerId = "9AA098C0-EDBC-463F-BC21-AFCD07A070D0";
paths = (
{
closed = 1;
nodes = (
"125 162 LINE",
"333 162 LINE",
"353 0 LINE",
"365 0 LINE",
"297 591 LINE",
"284 591 LINE",
"50 0 LINE",
"62 0 LINE"
);
},
{
closed = 1;
nodes = (
"287 572 LINE",
"291 532 LINE",
"332 173 LINE",
"130 173 LINE",
"274 534 LINE"
);
},
{
closed = 1;
nodes = (
"419 728 OFFCURVE",
"425 748 QCURVE",
"416 748 LINE",
"409 724 OFFCURVE",
"379 709 OFFCURVE",
"361 709 QCURVE SMOOTH",
"346 709 OFFCURVE",
"321 722 OFFCURVE",
"298 737 OFFCURVE",
"274 750 OFFCURVE",
"259 750 QCURVE SMOOTH",
"233 750 OFFCURVE",
"200 724 OFFCURVE",
"194 704 QCURVE",
"204 704 LINE",
"211 727 OFFCURVE",
"240 742 OFFCURVE",
"258 742 QCURVE SMOOTH",
"270 742 OFFCURVE",
"291 731 OFFCURVE",
"299 725 QCURVE SMOOTH",
"336 700 OFFCURVE",
"360 700 QCURVE SMOOTH",
"385 700 OFFCURVE"
);
}
);
width = 474;
}
);
leftKerningGroup = A;
note = Atilde;
rightKerningGroup = A;
unicode = 00C3;
},
{
color = 6;
glyphname = AE;
lastChange = "2021-11-24 16:17:35 +0000";
layers = (
{
layerId = "9AA098C0-EDBC-463F-BC21-AFCD07A070D0";
paths = (
{
closed = 1;
nodes = (
"437 0 LINE",
"438 11 LINE",
"298 11 LINE",
"296 306 LINE",
"429 306 LINE",
"430 317 LINE",
"296 317 LINE",
"297 580 LINE",
"518 580 LINE",
"520 591 LINE",
"283 591 LINE",
"50 0 LINE",
"62 0 LINE",
"125 162 LINE",
"283 162 LINE",
"285 0 LINE"
);
},
{
closed = 1;
nodes = (
"284 173 LINE",
"130 173 LINE",
"284 568 LINE"
);
}
);
width = 650;
}
);
leftKerningGroup = A;
note = AE;
rightKerningGroup = E;
unicode = 00C6;
},
{
color = 6;
glyphname = B;
lastChange = "2021-11-24 01:00:13 +0000";
layers = (
{
layerId = "9AA098C0-EDBC-463F-BC21-AFCD07A070D0";
paths = (
{
closed = 1;
nodes = (
"227 306 OFFCURVE",
"268 298 OFFCURVE",
"296 277 OFFCURVE",
"310 241 OFFCURVE",
"306 214 QCURVE SMOOTH",
"293 125 LINE SMOOTH",
"288 88 OFFCURVE",
"266 43 OFFCURVE",
"234 19 OFFCURVE",
"191 11 OFFCURVE",
"165 11 QCURVE SMOOTH",
"28 11 LINE",
"70 306 LINE",
"203 306 LINE SMOOTH"
);
},
{
closed = 1;
nodes = (
"298 580 OFFCURVE",
"346 539 OFFCURVE",
"340 496 QCURVE SMOOTH",
"330 420 LINE SMOOTH",
"322 371 OFFCURVE",
"257 317 OFFCURVE",
"199 317 QCURVE SMOOTH",
"71 317 LINE",
"108 580 LINE",
"257 580 LINE SMOOTH"
);
},
{
closed = 1;
nodes = (
"15 0 LINE",
"167 0 LINE SMOOTH",
"194 0 OFFCURVE",
"240 8 OFFCURVE",
"275 34 OFFCURVE",
"299 81 OFFCURVE",
"304 120 QCURVE SMOOTH",
"317 209 LINE SMOOTH",
"323 254 OFFCURVE",
"283 312 OFFCURVE",
"238 312 QCURVE",
"282 319 OFFCURVE",
"336 377 OFFCURVE",
"341 419 QCURVE SMOOTH",
"352 494 LINE SMOOTH",
"356 521 OFFCURVE",
"344 558 OFFCURVE",
"318 581 OFFCURVE",
"281 591 OFFCURVE",
"259 591 QCURVE SMOOTH",
"98 591 LINE"
);
}
);
userData = {
assembly = "PUSHW[ ]	/* 4 values pushed */\01219 4 13 4 \012CALL[ ]	/* CallFunction */\012PUSHW[ ]	/* 3 values pushed */\01233 13 19 \012SRP1[ ]	/* SetRefPoint1 */\012SRP2[ ]	/* SetRefPoint2 */\012IP[ ]	/* InterpolatePts */\012PUSHW[ ]	/* 1 value pushed */\01219 \012SRP0[ ]	/* SetRefPoint0 */\012PUSHW[ ]	/* 1 value pushed */\01246 \012MDRP[11100]	/* MoveDirectRelPt */\012IUP[0]	/* InterpolateUntPts */\012IUP[1]	/* InterpolateUntPts */";
};
width = 360;
}
);
leftMetricsKey = H;
note = B;
unicode = 0042;
},
{
color = 6;
glyphname = C;
lastChange = "2021-11-24 16:17:35 +0000";
layers = (
{
layerId = "9AA098C0-EDBC-463F-BC21-AFCD07A070D0";
paths = (
{
closed = 1;
nodes = (
"286 116 LINE SMOOTH",
"281 77 OFFCURVE",
"255 30 OFFCURVE",
"218 5 OFFCURVE",
"171 -3 OFFCURVE",
"145 -3 QCURVE SMOOTH",
"119 -3 OFFCURVE",
"75 5 OFFCURVE",
"45 30 OFFCURVE",
"32 77 OFFCURVE",
"37 116 QCURVE SMOOTH",
"87 467 LINE SMOOTH",
"92 506 OFFCURVE",
"117 554 OFFCURVE",
"153 581 OFFCURVE",
"200 589 OFFCURVE",
"228 589 QCURVE SMOOTH",
"256 589 OFFCURVE",
"301 581 OFFCURVE",
"331 557 OFFCURVE",
"342 511 OFFCURVE",
"337 473 QCURVE SMOOTH",
"324 381 LINE",
"336 381 LINE",
"348 469 LINE SMOOTH",
"354 512 OFFCURVE",
"341 563 OFFCURVE",
"308 590 OFFCURVE",
"259 599 OFFCURVE",
"230 599 QCURVE SMOOTH",
"201 599 OFFCURVE",
"149 591 OFFCURVE",
"109 564 OFFCURVE",
"81 512 OFFCURVE",
"75 469 QCURVE SMOOTH",
"26 118 LINE SMOOTH",
"20 75 OFFCURVE",
"33 24 OFFCURVE",
"66 -3 OFFCURVE",
"114 -12 OFFCURVE",
"143 -12 QCURVE SMOOTH",
"173 -12 OFFCURVE",
"224 -4 OFFCURVE",
"265 23 OFFCURVE",
"293 74 OFFCURVE",
"299 118 QCURVE SMOOTH",
"309 189 LINE",
"297 189 LINE"
);
}
);
width = 361;
}
);
leftKerningGroup = O;
leftMetricsKey = O;
note = C;
rightKerningGroup = C;
rightMetricsKey = O;
unicode = 0043;
},
{
color = 11;
glyphname = Cacute;
lastChange = "2021-11-24 16:17:35 +0000";
layers = (
{
layerId = "9AA098C0-EDBC-463F-BC21-AFCD07A070D0";
paths = (
{
closed = 1;
nodes = (
"313 116 LINE SMOOTH",
"308 77 OFFCURVE",
"282 30 OFFCURVE",
"245 5 OFFCURVE",
"198 -3 OFFCURVE",
"172 -3 QCURVE SMOOTH",
"146 -3 OFFCURVE",
"102 5 OFFCURVE",
"72 30 OFFCURVE",
"59 77 OFFCURVE",
"64 116 QCURVE SMOOTH",
"114 467 LINE SMOOTH",
"119 506 OFFCURVE",
"144 554 OFFCURVE",
"180 581 OFFCURVE",
"227 589 OFFCURVE",
"255 589 QCURVE SMOOTH",
"283 589 OFFCURVE",
"328 581 OFFCURVE",
"358 557 OFFCURVE",
"369 511 OFFCURVE",
"364 473 QCURVE SMOOTH",
"351 381 LINE",
"363 381 LINE",
"375 469 LINE SMOOTH",
"381 512 OFFCURVE",
"368 563 OFFCURVE",
"335 590 OFFCURVE",
"286 599 OFFCURVE",
"257 599 QCURVE SMOOTH",
"228 599 OFFCURVE",
"176 591 OFFCURVE",
"136 564 OFFCURVE",
"108 512 OFFCURVE",
"102 469 QCURVE SMOOTH",
"53 118 LINE SMOOTH",
"47 75 OFFCURVE",
"60 24 OFFCURVE",
"93 -3 OFFCURVE",
"141 -12 OFFCURVE",
"170 -12 QCURVE SMOOTH",
"200 -12 OFFCURVE",
"251 -4 OFFCURVE",
"292 23 OFFCURVE",
"320 74 OFFCURVE",
"326 118 QCURVE SMOOTH",
"336 189 LINE",
"324 189 LINE"
);
},
{
closed = 1;
nodes = (
"295 716 LINE",
"221 630 LINE",
"232 630 LINE",
"317 716 LINE"
);
}
);
userData = {
assembly = "SVTCA[0]	/* SetFreedomAndProjectionVectorToAxis */\012PUSHW[ ]	/* 4 values pushed */\01250 3 48 4 \012CALL[ ]	/* CallFunction */\012IUP[0]	/* InterpolateUntPts */\012IUP[1]	/* InterpolateUntPts */";
};
width = 428;
}
);
leftKerningGroup = C;
note = Cacute;
rightKerningGroup = C;
unicode = 0106;
},
{
color = 11;
glyphname = Ccaron;
lastChange = "2021-11-24 16:17:35 +0000";
layers = (
{
layerId = "9AA098C0-EDBC-463F-BC21-AFCD07A070D0";
paths = (
{
closed = 1;
nodes = (
"313 116 LINE SMOOTH",
"308 77 OFFCURVE",
"282 30 OFFCURVE",
"245 5 OFFCURVE",
"198 -3 OFFCURVE",
"172 -3 QCURVE SMOOTH",
"146 -3 OFFCURVE",
"102 5 OFFCURVE",
"72 30 OFFCURVE",
"59 77 OFFCURVE",
"64 116 QCURVE SMOOTH",
"114 467 LINE SMOOTH",
"119 506 OFFCURVE",
"144 554 OFFCURVE",
"180 581 OFFCURVE",
"227 589 OFFCURVE",
"255 589 QCURVE SMOOTH",
"283 589 OFFCURVE",
"328 581 OFFCURVE",
"358 557 OFFCURVE",
"369 511 OFFCURVE",
"364 473 QCURVE SMOOTH",
"351 381 LINE",
"363 381 LINE",
"375 469 LINE SMOOTH",
"381 512 OFFCURVE",
"368 563 OFFCURVE",
"335 590 OFFCURVE",
"286 599 OFFCURVE",
"257 599 QCURVE SMOOTH",
"228 599 OFFCURVE",
"176 591 OFFCURVE",
"136 564 OFFCURVE",
"108 512 OFFCURVE",
"102 469 QCURVE SMOOTH",
"53 118 LINE SMOOTH",
"47 75 OFFCURVE",
"60 24 OFFCURVE",
"93 -3 OFFCURVE",
"141 -12 OFFCURVE",
"170 -12 QCURVE SMOOTH",
"200 -12 OFFCURVE",
"251 -4 OFFCURVE",
"292 23 OFFCURVE",
"320 74 OFFCURVE",
"326 118 QCURVE SMOOTH",
"336 189 LINE",
"324 189 LINE"
);
},
{
closed = 1;
nodes = (
"294 653 OFFCURVE",
"347 700 OFFCURVE",
"373 724 QCURVE",
"360 724 LINE",
"263 637 LINE",
"191 724 LINE",
"177 724 LINE",
"194 703 OFFCURVE",
"218 674 OFFCURVE",
"235 653 OFFCURVE",
"247 637 OFFCURVE",
"253 630 QCURVE",
"269 630 LINE"
);
}
);
userData = {
assembly = "SVTCA[0]	/* SetFreedomAndProjectionVectorToAxis */\012PUSHW[ ]	/* 4 values pushed */\01254 3 48 4 \012CALL[ ]	/* CallFunction */\012PUSHW[ ]	/* 1 value pushed */\01254 \012SRP0[ ]	/* SetRefPoint0 */\012PUSHW[ ]	/* 1 value pushed */\01256 \012MDRP[10000]	/* MoveDirectRelPt */\012IUP[0]	/* InterpolateUntPts */\012IUP[1]	/* InterpolateUntPts */";
};
width = 428;
}
);
leftKerningGroup = C;
note = Ccaron;
rightKerningGroup = C;
unicode = 010C;
},
{
color = 11;
glyphname = Ccedilla;
lastChange = "2021-11-24 16:17:35 +0000";
layers = (
{
layerId = "9AA098C0-EDBC-463F-BC21-AFCD07A070D0";
paths = (
{
closed = 1;
nodes = (
"84 -119 LINE",
"96 -112 OFFCURVE",
"139 -96 OFFCURVE",
"162 -96 QCURVE SMOOTH",
"197 -96 OFFCURVE",
"233 -138 OFFCURVE",
"229 -168 QCURVE SMOOTH",
"224 -198 OFFCURVE",
"170 -240 OFFCURVE",
"125 -240 QCURVE SMOOTH",
"106 -240 OFFCURVE",
"70 -230 OFFCURVE",
"59 -223 QCURVE",
"54 -231 LINE",
"69 -238 OFFCURVE",
"105 -247 OFFCURVE",
"125 -247 QCURVE SMOOTH",
"181 -247 OFFCURVE",
"235 -198 OFFCURVE",
"240 -162 QCURVE SMOOTH",
"245 -133 OFFCURVE",
"207 -87 OFFCURVE",
"166 -87 QCURVE SMOOTH",
"156 -87 OFFCURVE",
"116 -95 OFFCURVE",
"98 -104 QCURVE",
"165 -12 LINE",
"170 -12 LINE SMOOTH",
"200 -12 OFFCURVE",
"251 -4 OFFCURVE",
"292 23 OFFCURVE",
"320 74 OFFCURVE",
"326 118 QCURVE SMOOTH",
"336 189 LINE",
"324 189 LINE",
"314 116 LINE SMOOTH",
"308 77 OFFCURVE",
"282 30 OFFCURVE",
"245 5 OFFCURVE",
"198 -3 OFFCURVE",
"172 -3 QCURVE SMOOTH",
"146 -3 OFFCURVE",
"102 5 OFFCURVE",
"72 30 OFFCURVE",
"59 77 OFFCURVE",
"65 116 QCURVE SMOOTH",
"114 467 LINE SMOOTH",
"119 506 OFFCURVE",
"144 554 OFFCURVE",
"180 581 OFFCURVE",
"227 589 OFFCURVE",
"255 589 QCURVE SMOOTH",
"283 589 OFFCURVE",
"328 581 OFFCURVE",
"358 557 OFFCURVE",
"369 511 OFFCURVE",
"364 473 QCURVE SMOOTH",
"351 381 LINE",
"363 381 LINE",
"375 469 LINE SMOOTH",
"381 512 OFFCURVE",
"368 563 OFFCURVE",
"335 590 OFFCURVE",
"286 599 OFFCURVE",
"257 599 QCURVE SMOOTH",
"228 599 OFFCURVE",
"176 591 OFFCURVE",
"136 564 OFFCURVE",
"108 512 OFFCURVE",
"102 469 QCURVE SMOOTH",
"53 118 LINE SMOOTH",
"47 78 OFFCURVE",
"58 29 OFFCURVE",
"86 0 OFFCURVE",
"127 -11 OFFCURVE",
"153 -12 QCURVE",
"79 -115 LINE"
);
}
);
userData = {
assembly = "SVTCA[0]	/* SetFreedomAndProjectionVectorToAxis */\012PUSHW[ ]	/* 3 values pushed */\01272 76 3 \012CALL[ ]	/* CallFunction */\012PUSHW[ ]	/* 3 values pushed */\01250 76 72 \012SRP1[ ]	/* SetRefPoint1 */\012SRP2[ ]	/* SetRefPoint2 */\012IP[ ]	/* InterpolatePts */\012IUP[0]	/* InterpolateUntPts */\012IUP[1]	/* InterpolateUntPts */";
};
width = 428;
}
);
leftKerningGroup = C;
note = Ccedilla;
rightKerningGroup = C;
unicode = 00C7;
},
{
color = 11;
glyphname = Ccircumflex;
lastChange = "2021-11-24 16:17:35 +0000";
layers = (
{
layerId = "9AA098C0-EDBC-463F-BC21-AFCD07A070D0";
paths = (
{
closed = 1;
nodes = (
"313 116 LINE SMOOTH",
"308 77 OFFCURVE",
"282 30 OFFCURVE",
"245 5 OFFCURVE",
"198 -3 OFFCURVE",
"172 -3 QCURVE SMOOTH",
"146 -3 OFFCURVE",
"102 5 OFFCURVE",
"72 30 OFFCURVE",
"59 77 OFFCURVE",
"64 116 QCURVE SMOOTH",
"114 467 LINE SMOOTH",
"119 506 OFFCURVE",
"144 554 OFFCURVE",
"180 581 OFFCURVE",
"227 589 OFFCURVE",
"255 589 QCURVE SMOOTH",
"283 589 OFFCURVE",
"328 581 OFFCURVE",
"358 557 OFFCURVE",
"369 511 OFFCURVE",
"364 473 QCURVE SMOOTH",
"351 381 LINE",
"363 381 LINE",
"375 469 LINE SMOOTH",
"381 512 OFFCURVE",
"368 563 OFFCURVE",
"335 590 OFFCURVE",
"286 599 OFFCURVE",
"257 599 QCURVE SMOOTH",
"228 599 OFFCURVE",
"176 591 OFFCURVE",
"136 564 OFFCURVE",
"108 512 OFFCURVE",
"102 469 QCURVE SMOOTH",
"53 118 LINE SMOOTH",
"47 75 OFFCURVE",
"60 24 OFFCURVE",
"93 -3 OFFCURVE",
"141 -12 OFFCURVE",
"170 -12 QCURVE SMOOTH",
"200 -12 OFFCURVE",
"251 -4 OFFCURVE",
"292 23 OFFCURVE",
"320 74 OFFCURVE",
"326 118 QCURVE SMOOTH",
"336 189 LINE",
"324 189 LINE"
);
},
{
closed = 1;
nodes = (
"243 701 OFFCURVE",
"189 654 OFFCURVE",
"164 630 QCURVE",
"177 630 LINE",
"274 717 LINE",
"346 630 LINE",
"360 630 LINE",
"343 651 OFFCURVE",
"319 680 OFFCURVE",
"302 701 OFFCURVE",
"290 716 OFFCURVE",
"284 724 QCURVE",
"268 724 LINE"
);
}
);
userData = {
assembly = "SVTCA[0]	/* SetFreedomAndProjectionVectorToAxis */\012PUSHW[ ]	/* 4 values pushed */\01248 3 54 4 \012CALL[ ]	/* CallFunction */\012PUSHW[ ]	/* 1 value pushed */\01254 \012SRP0[ ]	/* SetRefPoint0 */\012PUSHW[ ]	/* 1 value pushed */\01256 \012MDRP[10000]	/* MoveDirectRelPt */\012IUP[0]	/* InterpolateUntPts */\012IUP[1]	/* InterpolateUntPts */";
};
width = 428;
}
);
leftKerningGroup = C;
note = Ccircumflex;
rightKerningGroup = C;
unicode = 0108;
},
{
color = 11;
glyphname = Cdotaccent;
lastChange = "2021-11-24 16:17:35 +0000";
layers = (
{
layerId = "9AA098C0-EDBC-463F-BC21-AFCD07A070D0";
paths = (
{
closed = 1;
nodes = (
"313 116 LINE SMOOTH",
"308 77 OFFCURVE",
"282 30 OFFCURVE",
"245 5 OFFCURVE",
"198 -3 OFFCURVE",
"172 -3 QCURVE SMOOTH",
"146 -3 OFFCURVE",
"102 5 OFFCURVE",
"72 30 OFFCURVE",
"59 77 OFFCURVE",
"64 116 QCURVE SMOOTH",
"114 467 LINE SMOOTH",
"119 506 OFFCURVE",
"144 554 OFFCURVE",
"180 581 OFFCURVE",
"227 589 OFFCURVE",
"255 589 QCURVE SMOOTH",
"283 589 OFFCURVE",
"328 581 OFFCURVE",
"358 557 OFFCURVE",
"369 511 OFFCURVE",
"364 473 QCURVE SMOOTH",
"351 381 LINE",
"363 381 LINE",
"375 469 LINE SMOOTH",
"381 512 OFFCURVE",
"368 563 OFFCURVE",
"335 590 OFFCURVE",
"286 599 OFFCURVE",
"257 599 QCURVE SMOOTH",
"228 599 OFFCURVE",
"176 591 OFFCURVE",
"136 564 OFFCURVE",
"108 512 OFFCURVE",
"102 469 QCURVE SMOOTH",
"53 118 LINE SMOOTH",
"47 75 OFFCURVE",
"60 24 OFFCURVE",
"93 -3 OFFCURVE",
"141 -12 OFFCURVE",
"170 -12 QCURVE SMOOTH",
"200 -12 OFFCURVE",
"251 -4 OFFCURVE",
"292 23 OFFCURVE",
"320 74 OFFCURVE",
"326 118 QCURVE SMOOTH",
"336 189 LINE",
"324 189 LINE"
);
},
{
closed = 1;
nodes = (
"263 629 QCURVE SMOOTH",
"279 629 OFFCURVE",
"281 645 QCURVE SMOOTH",
"283 661 OFFCURVE",
"267 661 QCURVE SMOOTH",
"251 661 OFFCURVE",
"249 645 QCURVE SMOOTH",
"247 629 OFFCURVE"
);
}
);
userData = {
assembly = "PUSHW[ ]	/* 4 values pushed */\01248 4 12 4 \012CALL[ ]	/* CallFunction */\012IUP[0]	/* InterpolateUntPts */\012IUP[1]	/* InterpolateUntPts */";
};
width = 428;
}
);
leftKerningGroup = C;
note = Cdotaccent;
rightKerningGroup = C;
unicode = 010A;
},
{
color = 6;
glyphname = D;
lastChange = "2021-11-24 16:17:35 +0000";
layers = (
{
layerId = "9AA098C0-EDBC-463F-BC21-AFCD07A070D0";
paths = (
{
closed = 1;
nodes = (
"195 0 OFFCURVE",
"242 11 OFFCURVE",
"277 40 OFFCURVE",
"300 91 OFFCURVE",
"306 130 QCURVE SMOOTH",
"352 461 LINE SMOOTH",
"358 500 OFFCURVE",
"347 551 OFFCURVE",
"319 580 OFFCURVE",
"277 591 OFFCURVE",
"250 591 QCURVE SMOOTH",
"98 591 LINE",
"15 0 LINE",
"167 0 LINE SMOOTH"
);
},
{
closed = 1;
nodes = (
"248 582 LINE SMOOTH",
"300 582 OFFCURVE",
"350 529 OFFCURVE",
"340 461 QCURVE SMOOTH",
"294 130 LINE SMOOTH",
"289 94 OFFCURVE",
"267 48 OFFCURVE",
"236 21 OFFCURVE",
"194 11 OFFCURVE",
"168 11 QCURVE SMOOTH",
"28 11 LINE",
"108 582 LINE"
);
}
);
width = 367;
}
);
leftKerningGroup = H;
leftMetricsKey = H;
note = D;
rightKerningGroup = O;
rightMetricsKey = O;
unicode = 0044;
},
{
color = 6;
glyphname = Eth;
lastChange = "2021-11-24 16:18:04 +0000";
layers = (
{
layerId = "9AA098C0-EDBC-463F-BC21-AFCD07A070D0";
paths = (
{
closed = 1;
nodes = (
"95 219 LINE",
"65 0 LINE",
"217 0 LINE SMOOTH",
"244 0 OFFCURVE",
"289 11 OFFCURVE",
"325 40 OFFCURVE",
"350 91 OFFCURVE",
"356 130 QCURVE SMOOTH",
"402 461 LINE SMOOTH",
"408 500 OFFCURVE",
"397 551 OFFCURVE",
"369 580 OFFCURVE",
"327 591 OFFCURVE",
"300 591 QCURVE SMOOTH",
"148 591 LINE",
"97 229 LINE",
"52 229 LINE",
"50 219 LINE"
);
},
{
closed = 1;
nodes = (
"306 582 LINE SMOOTH",
"352 582 OFFCURVE",
"400 529 OFFCURVE",
"390 461 QCURVE SMOOTH",
"343 126 LINE SMOOTH",
"338 92 OFFCURVE",
"317 47 OFFCURVE",
"287 21 OFFCURVE",
"249 11 OFFCURVE",
"226 11 QCURVE SMOOTH",
"78 11 LINE",
"107 219 LINE",
"181 219 LINE",
"183 229 LINE",
"109 229 LINE",
"158 582 LINE"
);
}
);
userData = {
assembly = "PUSHW[ ]	/* 4 values pushed */\0129 4 21 4 \012CALL[ ]	/* CallFunction */\012PUSHW[ ]	/* 1 value pushed */\01221 \012SRP0[ ]	/* SetRefPoint0 */\012PUSHW[ ]	/* 1 value pushed */\01218 \012MDRP[10000]	/* MoveDirectRelPt */\012PUSHW[ ]	/* 1 value pushed */\01218 \012MDAP[1]	/* MoveDirectAbsPt */\012PUSHW[ ]	/* 1 value pushed */\0129 \012SRP0[ ]	/* SetRefPoint0 */\012PUSHW[ ]	/* 1 value pushed */\01235 \012MDRP[11100]	/* MoveDirectRelPt */\012SVTCA[0]	/* SetFreedomAndProjectionVectorToAxis */\012PUSHW[ ]	/* 1 value pushed */\01232 \012MDAP[1]	/* MoveDirectAbsPt */\012PUSHW[ ]	/* 1 value pushed */\0120 \012RCVT[ ]	/* ReadCVT */\012IF[ ]	/* If */\012PUSHW[ ]	/* 1 value pushed */\01214 \012MDAP[1]	/* MoveDirectAbsPt */\012ELSE[ ]	/* Else */\012PUSHW[ ]	/* 2 values pushed */\01214 5 \012MIAP[0]	/* MoveIndirectAbsPt */\012EIF[ ]	/* EndIf */\012IUP[0]	/* InterpolateUntPts */\012IUP[1]	/* InterpolateUntPts */";
};
width = 472;
}
);
leftKerningGroup = H;
note = Eth;
rightKerningGroup = O;
unicode = 00D0;
},
{
color = 11;
glyphname = Dcaron;
lastChange = "2021-11-24 16:18:12 +0000";
layers = (
{
layerId = "9AA098C0-EDBC-463F-BC21-AFCD07A070D0";
paths = (
{
closed = 1;
nodes = (
"230 0 OFFCURVE",
"277 11 OFFCURVE",
"312 40 OFFCURVE",
"335 91 OFFCURVE",
"341 130 QCURVE SMOOTH",
"387 461 LINE SMOOTH",
"393 500 OFFCURVE",
"382 551 OFFCURVE",
"354 580 OFFCURVE",
"312 591 OFFCURVE",
"285 591 QCURVE SMOOTH",
"133 591 LINE",
"50 0 LINE",
"202 0 LINE SMOOTH"
);
},
{
closed = 1;
nodes = (
"283 582 LINE SMOOTH",
"335 582 OFFCURVE",
"385 529 OFFCURVE",
"375 461 QCURVE SMOOTH",
"329 130 LINE SMOOTH",
"324 94 OFFCURVE",
"302 48 OFFCURVE",
"271 21 OFFCURVE",
"229 11 OFFCURVE",
"203 11 QCURVE SMOOTH",
"63 11 LINE",
"143 582 LINE"
);
},
{
closed = 1;
nodes = (
"302 653 OFFCURVE",
"356 700 OFFCURVE",
"381 724 QCURVE",
"368 724 LINE",
"271 637 LINE",
"199 724 LINE",
"185 724 LINE",
"202 703 OFFCURVE",
"226 674 OFFCURVE",
"243 653 OFFCURVE",
"255 637 OFFCURVE",
"261 630 QCURVE",
"277 630 LINE"
);
}
);
userData = {
assembly = "SVTCA[0]	/* SetFreedomAndProjectionVectorToAxis */\012PUSHW[ ]	/* 4 values pushed */\01232 3 26 4 \012CALL[ ]	/* CallFunction */\012PUSHW[ ]	/* 1 value pushed */\01232 \012SRP0[ ]	/* SetRefPoint0 */\012PUSHW[ ]	/* 1 value pushed */\01234 \012MDRP[10000]	/* MoveDirectRelPt */\012IUP[0]	/* InterpolateUntPts */\012IUP[1]	/* InterpolateUntPts */";
};
width = 440;
}
);
leftKerningGroup = H;
note = Dcaron;
rightKerningGroup = O;
unicode = 010E;
},
{
color = 11;
glyphname = Dcroat;
lastChange = "2021-11-24 16:23:49 +0000";
layers = (
{
layerId = "9AA098C0-EDBC-463F-BC21-AFCD07A070D0";
paths = (
{
closed = 1;
nodes = (
"95 219 LINE",
"65 0 LINE",
"217 0 LINE SMOOTH",
"244 0 OFFCURVE",
"289 11 OFFCURVE",
"325 40 OFFCURVE",
"350 91 OFFCURVE",
"356 130 QCURVE SMOOTH",
"402 461 LINE SMOOTH",
"408 500 OFFCURVE",
"397 551 OFFCURVE",
"369 580 OFFCURVE",
"327 591 OFFCURVE",
"300 591 QCURVE SMOOTH",
"148 591 LINE",
"97 229 LINE",
"52 229 LINE",
"50 219 LINE"
);
},
{
closed = 1;
nodes = (
"306 582 LINE SMOOTH",
"352 582 OFFCURVE",
"400 529 OFFCURVE",
"390 461 QCURVE SMOOTH",
"343 126 LINE SMOOTH",
"338 92 OFFCURVE",
"317 47 OFFCURVE",
"287 21 OFFCURVE",
"249 11 OFFCURVE",
"226 11 QCURVE SMOOTH",
"78 11 LINE",
"107 219 LINE",
"181 219 LINE",
"183 229 LINE",
"109 229 LINE",
"158 582 LINE"
);
}
);
userData = {
assembly = "PUSHW[ ]	/* 4 values pushed */\0129 4 21 4 \012CALL[ ]	/* CallFunction */\012PUSHW[ ]	/* 1 value pushed */\01221 \012SRP0[ ]	/* SetRefPoint0 */\012PUSHW[ ]	/* 1 value pushed */\01218 \012MDRP[10000]	/* MoveDirectRelPt */\012PUSHW[ ]	/* 1 value pushed */\01218 \012MDAP[1]	/* MoveDirectAbsPt */\012PUSHW[ ]	/* 1 value pushed */\0129 \012SRP0[ ]	/* SetRefPoint0 */\012PUSHW[ ]	/* 1 value pushed */\01235 \012MDRP[11100]	/* MoveDirectRelPt */\012SVTCA[0]	/* SetFreedomAndProjectionVectorToAxis */\012PUSHW[ ]	/* 1 value pushed */\01232 \012MDAP[1]	/* MoveDirectAbsPt */\012PUSHW[ ]	/* 1 value pushed */\0120 \012RCVT[ ]	/* ReadCVT */\012IF[ ]	/* If */\012PUSHW[ ]	/* 1 value pushed */\01214 \012MDAP[1]	/* MoveDirectAbsPt */\012ELSE[ ]	/* Else */\012PUSHW[ ]	/* 2 values pushed */\01214 5 \012MIAP[0]	/* MoveIndirectAbsPt */\012EIF[ ]	/* EndIf */\012IUP[0]	/* InterpolateUntPts */\012IUP[1]	/* InterpolateUntPts */";
};
width = 472;
}
);
leftKerningGroup = H;
note = Dcroat;
rightKerningGroup = O;
unicode = 0110;
},
{
color = 6;
glyphname = E;
lastChange = "2021-11-24 16:17:35 +0000";
layers = (
{
layerId = "9AA098C0-EDBC-463F-BC21-AFCD07A070D0";
paths = (
{
closed = 1;
nodes = (
"256 0 LINE",
"257 11 LINE",
"28 11 LINE",
"70 306 LINE",
"248 306 LINE",
"249 317 LINE",
"71 317 LINE",
"108 580 LINE",
"337 580 LINE",
"339 591 LINE",
"98 591 LINE",
"15 0 LINE"
);
}
);
width = 305;
}
);
leftKerningGroup = H;
leftMetricsKey = H;
note = E;
rightKerningGroup = E;
unicode = 0045;
},
{
color = 11;
glyphname = Eacute;
lastChange = "2021-11-24 16:17:35 +0000";
layers = (
{
layerId = "9AA098C0-EDBC-463F-BC21-AFCD07A070D0";
paths = (
{
closed = 1;
nodes = (
"291 0 LINE",
"292 11 LINE",
"63 11 LINE",
"105 306 LINE",
"283 306 LINE",
"284 317 LINE",
"106 317 LINE",
"143 580 LINE",
"372 580 LINE",
"374 591 LINE",
"133 591 LINE",
"50 0 LINE"
);
},
{
closed = 1;
nodes = (
"283 750 LINE",
"209 664 LINE",
"220 664 LINE",
"305 750 LINE"
);
}
);
userData = {
assembly = "SVTCA[0]	/* SetFreedomAndProjectionVectorToAxis */\012PUSHW[ ]	/* 4 values pushed */\01214 3 12 4 \012CALL[ ]	/* CallFunction */\012IUP[0]	/* InterpolateUntPts */\012IUP[1]	/* InterpolateUntPts */";
};
width = 424;
}
);
leftKerningGroup = H;
note = Eacute;
rightKerningGroup = E;
unicode = 00C9;
},
{
color = 11;
glyphname = Ecaron;
lastChange = "2021-11-24 16:17:35 +0000";
layers = (
{
layerId = "9AA098C0-EDBC-463F-BC21-AFCD07A070D0";
paths = (
{
closed = 1;
nodes = (
"291 0 LINE",
"292 11 LINE",
"63 11 LINE",
"105 306 LINE",
"283 306 LINE",
"284 317 LINE",
"106 317 LINE",
"143 580 LINE",
"372 580 LINE",
"374 591 LINE",
"133 591 LINE",
"50 0 LINE"
);
},
{
closed = 1;
nodes = (
"276 653 OFFCURVE",
"330 700 OFFCURVE",
"355 724 QCURVE",
"342 724 LINE",
"245 637 LINE",
"173 724 LINE",
"159 724 LINE",
"176 703 OFFCURVE",
"200 674 OFFCURVE",
"217 653 OFFCURVE",
"229 637 OFFCURVE",
"235 630 QCURVE",
"251 630 LINE"
);
}
);
userData = {
assembly = "SVTCA[0]	/* SetFreedomAndProjectionVectorToAxis */\012PUSHW[ ]	/* 4 values pushed */\01218 3 12 4 \012CALL[ ]	/* CallFunction */\012PUSHW[ ]	/* 1 value pushed */\01218 \012SRP0[ ]	/* SetRefPoint0 */\012PUSHW[ ]	/* 1 value pushed */\01220 \012MDRP[10000]	/* MoveDirectRelPt */\012IUP[0]	/* InterpolateUntPts */\012IUP[1]	/* InterpolateUntPts */";
};
width = 424;
}
);
leftKerningGroup = H;
note = Ecaron;
rightKerningGroup = E;
unicode = 011A;
},
{
color = 11;
glyphname = Ecircumflex;
lastChange = "2021-11-24 16:17:35 +0000";
layers = (
{
layerId = "9AA098C0-EDBC-463F-BC21-AFCD07A070D0";
paths = (
{
closed = 1;
nodes = (
"291 0 LINE",
"292 11 LINE",
"63 11 LINE",
"105 306 LINE",
"283 306 LINE",
"284 317 LINE",
"106 317 LINE",
"143 580 LINE",
"372 580 LINE",
"374 591 LINE",
"133 591 LINE",
"50 0 LINE"
);
},
{
closed = 1;
nodes = (
"229 727 OFFCURVE",
"175 680 OFFCURVE",
"150 656 QCURVE",
"163 656 LINE",
"260 743 LINE",
"332 656 LINE",
"346 656 LINE",
"329 677 OFFCURVE",
"305 706 OFFCURVE",
"288 727 OFFCURVE",
"276 742 OFFCURVE",
"270 750 QCURVE",
"254 750 LINE"
);
}
);
userData = {
assembly = "SVTCA[0]	/* SetFreedomAndProjectionVectorToAxis */\012PUSHW[ ]	/* 4 values pushed */\01212 3 18 4 \012CALL[ ]	/* CallFunction */\012PUSHW[ ]	/* 1 value pushed */\01218 \012SRP0[ ]	/* SetRefPoint0 */\012PUSHW[ ]	/* 1 value pushed */\01220 \012MDRP[10000]	/* MoveDirectRelPt */\012IUP[0]	/* InterpolateUntPts */\012IUP[1]	/* InterpolateUntPts */";
};
width = 424;
}
);
leftKerningGroup = H;
note = Ecircumflex;
rightKerningGroup = E;
unicode = 00CA;
},
{
color = 11;
glyphname = Edieresis;
lastChange = "2021-11-24 16:17:35 +0000";
layers = (
{
layerId = "9AA098C0-EDBC-463F-BC21-AFCD07A070D0";
paths = (
{
closed = 1;
nodes = (
"291 0 LINE",
"292 11 LINE",
"63 11 LINE",
"105 306 LINE",
"283 306 LINE",
"284 317 LINE",
"106 317 LINE",
"143 580 LINE",
"372 580 LINE",
"374 591 LINE",
"133 591 LINE",
"50 0 LINE"
);
},
{
closed = 1;
nodes = (
"322 665 QCURVE SMOOTH",
"338 665 OFFCURVE",
"340 681 QCURVE SMOOTH",
"342 697 OFFCURVE",
"326 697 QCURVE SMOOTH",
"310 697 OFFCURVE",
"308 681 QCURVE SMOOTH",
"306 665 OFFCURVE"
);
},
{
closed = 1;
nodes = (
"226 665 QCURVE SMOOTH",
"242 665 OFFCURVE",
"244 681 QCURVE SMOOTH",
"246 697 OFFCURVE",
"230 697 QCURVE SMOOTH",
"214 697 OFFCURVE",
"212 681 QCURVE SMOOTH",
"210 665 OFFCURVE"
);
}
);
width = 424;
}
);
leftKerningGroup = H;
note = Edieresis;
rightKerningGroup = E;
unicode = 00CB;
},
{
color = 11;
glyphname = Edotaccent;
lastChange = "2021-11-24 16:17:35 +0000";
layers = (
{
layerId = "9AA098C0-EDBC-463F-BC21-AFCD07A070D0";
paths = (
{
closed = 1;
nodes = (
"291 0 LINE",
"292 11 LINE",
"63 11 LINE",
"105 306 LINE",
"283 306 LINE",
"284 317 LINE",
"106 317 LINE",
"143 580 LINE",
"372 580 LINE",
"374 591 LINE",
"133 591 LINE",
"50 0 LINE"
);
},
{
closed = 1;
nodes = (
"245 630 QCURVE SMOOTH",
"261 630 OFFCURVE",
"263 646 QCURVE",
"265 653 OFFCURVE",
"257 662 OFFCURVE",
"250 662 QCURVE SMOOTH",
"235 662 OFFCURVE",
"231 646 QCURVE SMOOTH",
"229 630 OFFCURVE"
);
}
);
width = 424;
}
);
leftKerningGroup = H;
note = Edotaccent;
rightKerningGroup = E;
unicode = 0116;
},
{
color = 11;
glyphname = Egrave;
lastChange = "2021-11-24 16:17:35 +0000";
layers = (
{
layerId = "9AA098C0-EDBC-463F-BC21-AFCD07A070D0";
paths = (
{
closed = 1;
nodes = (
"291 0 LINE",
"292 11 LINE",
"63 11 LINE",
"105 306 LINE",
"283 306 LINE",
"284 317 LINE",
"106 317 LINE",
"143 580 LINE",
"372 580 LINE",
"374 591 LINE",
"133 591 LINE",
"50 0 LINE"
);
},
{
closed = 1;
nodes = (
"269 664 LINE",
"219 750 LINE",
"197 750 LINE",
"258 664 LINE"
);
}
);
userData = {
assembly = "SVTCA[0]	/* SetFreedomAndProjectionVectorToAxis */\012PUSHW[ ]	/* 4 values pushed */\01213 3 15 4 \012CALL[ ]	/* CallFunction */\012IUP[0]	/* InterpolateUntPts */\012IUP[1]	/* InterpolateUntPts */";
};
width = 424;
}
);
leftKerningGroup = H;
note = Egrave;
rightKerningGroup = E;
unicode = 00C8;
},
{
color = 11;
glyphname = Emacron;
lastChange = "2021-11-24 16:17:35 +0000";
layers = (
{
layerId = "9AA098C0-EDBC-463F-BC21-AFCD07A070D0";
paths = (
{
closed = 1;
nodes = (
"291 0 LINE",
"292 11 LINE",
"63 11 LINE",
"105 306 LINE",
"283 306 LINE",
"284 317 LINE",
"106 317 LINE",
"143 580 LINE",
"372 580 LINE",
"374 591 LINE",
"133 591 LINE",
"50 0 LINE"
);
},
{
closed = 1;
nodes = (
"364 685 LINE",
"365 694 LINE",
"164 694 LINE",
"163 685 LINE"
);
}
);
width = 424;
}
);
leftKerningGroup = H;
note = Emacron;
rightKerningGroup = E;
unicode = 0112;
},
{
color = 11;
glyphname = Eogonek;
lastChange = "2021-11-24 16:17:35 +0000";
layers = (
{
layerId = "9AA098C0-EDBC-463F-BC21-AFCD07A070D0";
paths = (
{
closed = 1;
nodes = (
"174 0 LINE",
"153 -11 OFFCURVE",
"113 -46 OFFCURVE",
"79 -87 OFFCURVE",
"55 -133 OFFCURVE",
"52 -156 QCURVE SMOOTH",
"49 -179 OFFCURVE",
"60 -210 OFFCURVE",
"84 -231 OFFCURVE",
"117 -240 OFFCURVE",
"136 -240 QCURVE SMOOTH",
"160 -240 OFFCURVE",
"205 -230 OFFCURVE",
"219 -222 QCURVE",
"217 -212 LINE",
"180 -229 OFFCURVE",
"136 -229 QCURVE SMOOTH",
"98 -229 OFFCURVE",
"60 -188 OFFCURVE",
"65 -154 QCURVE SMOOTH",
"67 -136 OFFCURVE",
"90 -93 OFFCURVE",
"123 -51 OFFCURVE",
"163 -13 OFFCURVE",
"184 0 QCURVE",
"291 0 LINE",
"293 11 LINE",
"64 11 LINE",
"105 306 LINE",
"283 306 LINE",
"285 317 LINE",
"107 317 LINE",
"144 580 LINE",
"373 580 LINE",
"374 591 LINE",
"133 591 LINE",
"50 0 LINE"
);
}
);
userData = {
assembly = "SVTCA[0]	/* SetFreedomAndProjectionVectorToAxis */\012PUSHW[ ]	/* 1 value pushed */\0120 \012RCVT[ ]	/* ReadCVT */\012IF[ ]	/* If */\012PUSHW[ ]	/* 1 value pushed */\01210 \012MDAP[1]	/* MoveDirectAbsPt */\012ELSE[ ]	/* Else */\012PUSHW[ ]	/* 2 values pushed */\01210 5 \012MIAP[0]	/* MoveIndirectAbsPt */\012EIF[ ]	/* EndIf */\012PUSHW[ ]	/* 1 value pushed */\0120 \012RCVT[ ]	/* ReadCVT */\012IF[ ]	/* If */\012PUSHW[ ]	/* 1 value pushed */\01235 \012MDAP[1]	/* MoveDirectAbsPt */\012ELSE[ ]	/* Else */\012PUSHW[ ]	/* 2 values pushed */\01235 5 \012MIAP[0]	/* MoveIndirectAbsPt */\012EIF[ ]	/* EndIf */\012IUP[0]	/* InterpolateUntPts */\012IUP[1]	/* InterpolateUntPts */";
};
width = 424;
}
);
leftKerningGroup = H;
note = Eogonek;
rightKerningGroup = E;
unicode = 0118;
},
{
color = 6;
glyphname = F;
lastChange = "2021-11-24 16:17:35 +0000";
layers = (
{
layerId = "9AA098C0-EDBC-463F-BC21-AFCD07A070D0";
paths = (
{
closed = 1;
nodes = (
"27 0 LINE",
"70 306 LINE",
"248 306 LINE",
"249 317 LINE",
"71 317 LINE",
"108 580 LINE",
"337 580 LINE",
"339 591 LINE",
"98 591 LINE",
"15 0 LINE"
);
}
);
userData = {
assembly = "SVTCA[0]	/* SetFreedomAndProjectionVectorToAxis */\012PUSHW[ ]	/* 1 value pushed */\0120 \012RCVT[ ]	/* ReadCVT */\012IF[ ]	/* If */\012PUSHW[ ]	/* 1 value pushed */\0128 \012MDAP[1]	/* MoveDirectAbsPt */\012ELSE[ ]	/* Else */\012PUSHW[ ]	/* 2 values pushed */\0128 5 \012MIAP[0]	/* MoveIndirectAbsPt */\012EIF[ ]	/* EndIf */\012IUP[0]	/* InterpolateUntPts */\012IUP[1]	/* InterpolateUntPts */";
};
width = 301;
}
);
leftKerningGroup = H;
leftMetricsKey = H;
note = F;
rightKerningGroup = F;
unicode = 0046;
},
{
color = 6;
glyphname = G;
lastChange = "2021-11-24 16:17:35 +0000";
layers = (
{
layerId = "9AA098C0-EDBC-463F-BC21-AFCD07A070D0";
paths = (
{
closed = 1;
nodes = (
"282 0 LINE",
"320 266 LINE",
"201 266 LINE",
"199 257 LINE",
"306 257 LINE",
"287 118 LINE SMOOTH",
"283 89 OFFCURVE",
"257 45 OFFCURVE",
"218 13 OFFCURVE",
"170 -3 OFFCURVE",
"145 -3 QCURVE SMOOTH",
"119 -3 OFFCURVE",
"75 5 OFFCURVE",
"45 30 OFFCURVE",
"32 78 OFFCURVE",
"38 118 QCURVE SMOOTH",
"87 468 LINE SMOOTH",
"93 507 OFFCURVE",
"116 555 OFFCURVE",
"152 580 OFFCURVE",
"199 589 OFFCURVE",
"228 589 QCURVE SMOOTH",
"258 589 OFFCURVE",
"304 580 OFFCURVE",
"332 555 OFFCURVE",
"342 507 OFFCURVE",
"336 468 QCURVE SMOOTH",
"327 401 LINE",
"339 401 LINE",
"348 469 LINE SMOOTH",
"354 512 OFFCURVE",
"341 563 OFFCURVE",
"309 590 OFFCURVE",
"261 599 OFFCURVE",
"231 599 QCURVE SMOOTH",
"201 599 OFFCURVE",
"150 591 OFFCURVE",
"109 564 OFFCURVE",
"81 512 OFFCURVE",
"75 469 QCURVE SMOOTH",
"26 118 LINE SMOOTH",
"20 75 OFFCURVE",
"33 24 OFFCURVE",
"66 -3 OFFCURVE",
"114 -12 OFFCURVE",
"143 -12 QCURVE SMOOTH",
"189 -12 OFFCURVE",
"264 31 OFFCURVE",
"281 69 QCURVE",
"275 0 LINE"
);
}
);
userData = {
assembly = "SVTCA[0]	/* SetFreedomAndProjectionVectorToAxis */\012PUSHW[ ]	/* 1 value pushed */\0120 \012RCVT[ ]	/* ReadCVT */\012IF[ ]	/* If */\012PUSHW[ ]	/* 1 value pushed */\01238 \012MDAP[1]	/* MoveDirectAbsPt */\012ELSE[ ]	/* Else */\012PUSHW[ ]	/* 2 values pushed */\01238 5 \012MIAP[0]	/* MoveIndirectAbsPt */\012EIF[ ]	/* EndIf */\012PUSHW[ ]	/* 1 value pushed */\0120 \012RCVT[ ]	/* ReadCVT */\012IF[ ]	/* If */\012PUSHW[ ]	/* 1 value pushed */\01248 \012MDAP[1]	/* MoveDirectAbsPt */\012ELSE[ ]	/* Else */\012PUSHW[ ]	/* 2 values pushed */\01248 5 \012MIAP[0]	/* MoveIndirectAbsPt */\012EIF[ ]	/* EndIf */\012IUP[0]	/* InterpolateUntPts */\012IUP[1]	/* InterpolateUntPts */";
};
width = 359;
}
);
leftKerningGroup = O;
leftMetricsKey = O;
note = G;
rightKerningGroup = G;
rightMetricsKey = "=O-2";
unicode = 0047;
},
{
color = 11;
glyphname = Gbreve;
lastChange = "2021-11-24 16:17:35 +0000";
layers = (
{
layerId = "9AA098C0-EDBC-463F-BC21-AFCD07A070D0";
paths = (
{
closed = 1;
nodes = (
"309 0 LINE",
"347 266 LINE",
"228 266 LINE",
"226 257 LINE",
"333 257 LINE",
"314 118 LINE SMOOTH",
"310 89 OFFCURVE",
"284 45 OFFCURVE",
"245 13 OFFCURVE",
"197 -3 OFFCURVE",
"172 -3 QCURVE SMOOTH",
"146 -3 OFFCURVE",
"102 5 OFFCURVE",
"72 30 OFFCURVE",
"59 78 OFFCURVE",
"65 118 QCURVE SMOOTH",
"114 468 LINE SMOOTH",
"120 507 OFFCURVE",
"143 555 OFFCURVE",
"179 580 OFFCURVE",
"226 589 OFFCURVE",
"255 589 QCURVE SMOOTH",
"285 589 OFFCURVE",
"331 580 OFFCURVE",
"359 555 OFFCURVE",
"369 507 OFFCURVE",
"363 468 QCURVE SMOOTH",
"354 401 LINE",
"366 401 LINE",
"375 469 LINE SMOOTH",
"381 512 OFFCURVE",
"368 563 OFFCURVE",
"336 590 OFFCURVE",
"288 599 OFFCURVE",
"258 599 QCURVE SMOOTH",
"228 599 OFFCURVE",
"177 591 OFFCURVE",
"136 564 OFFCURVE",
"108 512 OFFCURVE",
"102 469 QCURVE SMOOTH",
"53 118 LINE SMOOTH",
"47 75 OFFCURVE",
"60 24 OFFCURVE",
"93 -3 OFFCURVE",
"141 -12 OFFCURVE",
"170 -12 QCURVE SMOOTH",
"216 -12 OFFCURVE",
"291 31 OFFCURVE",
"308 69 QCURVE",
"302 0 LINE"
);
},
{
closed = 1;
nodes = (
"200 671 OFFCURVE",
"200 707 QCURVE",
"189 707 LINE",
"189 695 OFFCURVE",
"196 667 OFFCURVE",
"213 645 OFFCURVE",
"243 630 OFFCURVE",
"267 630 QCURVE SMOOTH",
"291 630 OFFCURVE",
"326 645 OFFCURVE",
"350 667 OFFCURVE",
"364 695 OFFCURVE",
"367 707 QCURVE",
"356 707 LINE",
"345 671 OFFCURVE",
"298 638 OFFCURVE",
"268 638 QCURVE SMOOTH",
"238 638 OFFCURVE"
);
}
);
userData = {
assembly = "SVTCA[0]	/* SetFreedomAndProjectionVectorToAxis */\012PUSHW[ ]	/* 1 value pushed */\0120 \012RCVT[ ]	/* ReadCVT */\012IF[ ]	/* If */\012PUSHW[ ]	/* 1 value pushed */\01238 \012MDAP[1]	/* MoveDirectAbsPt */\012ELSE[ ]	/* Else */\012PUSHW[ ]	/* 2 values pushed */\01238 5 \012MIAP[0]	/* MoveIndirectAbsPt */\012EIF[ ]	/* EndIf */\012PUSHW[ ]	/* 1 value pushed */\0120 \012RCVT[ ]	/* ReadCVT */\012IF[ ]	/* If */\012PUSHW[ ]	/* 1 value pushed */\01248 \012MDAP[1]	/* MoveDirectAbsPt */\012ELSE[ ]	/* Else */\012PUSHW[ ]	/* 2 values pushed */\01248 5 \012MIAP[0]	/* MoveIndirectAbsPt */\012EIF[ ]	/* EndIf */\012IUP[0]	/* InterpolateUntPts */\012IUP[1]	/* InterpolateUntPts */";
};
width = 428;
}
);
leftKerningGroup = O;
note = Gbreve;
rightKerningGroup = G;
unicode = 011E;
},
{
color = 11;
glyphname = Gcircumflex;
lastChange = "2021-11-24 16:17:35 +0000";
layers = (
{
layerId = "9AA098C0-EDBC-463F-BC21-AFCD07A070D0";
paths = (
{
closed = 1;
nodes = (
"309 0 LINE",
"347 266 LINE",
"228 266 LINE",
"226 257 LINE",
"333 257 LINE",
"314 118 LINE SMOOTH",
"310 89 OFFCURVE",
"284 45 OFFCURVE",
"245 13 OFFCURVE",
"197 -3 OFFCURVE",
"172 -3 QCURVE SMOOTH",
"146 -3 OFFCURVE",
"102 5 OFFCURVE",
"72 30 OFFCURVE",
"59 78 OFFCURVE",
"65 118 QCURVE SMOOTH",
"114 468 LINE SMOOTH",
"120 507 OFFCURVE",
"143 555 OFFCURVE",
"179 580 OFFCURVE",
"226 589 OFFCURVE",
"255 589 QCURVE SMOOTH",
"285 589 OFFCURVE",
"331 580 OFFCURVE",
"359 555 OFFCURVE",
"369 507 OFFCURVE",
"363 468 QCURVE SMOOTH",
"354 401 LINE",
"366 401 LINE",
"375 469 LINE SMOOTH",
"381 512 OFFCURVE",
"368 563 OFFCURVE",
"336 590 OFFCURVE",
"288 599 OFFCURVE",
"258 599 QCURVE SMOOTH",
"228 599 OFFCURVE",
"177 591 OFFCURVE",
"136 564 OFFCURVE",
"108 512 OFFCURVE",
"102 469 QCURVE SMOOTH",
"53 118 LINE SMOOTH",
"47 75 OFFCURVE",
"60 24 OFFCURVE",
"93 -3 OFFCURVE",
"141 -12 OFFCURVE",
"170 -12 QCURVE SMOOTH",
"216 -12 OFFCURVE",
"291 31 OFFCURVE",
"308 69 QCURVE",
"302 0 LINE"
);
},
{
closed = 1;
nodes = (
"248 701 OFFCURVE",
"194 654 OFFCURVE",
"169 630 QCURVE",
"182 630 LINE",
"279 717 LINE",
"351 630 LINE",
"365 630 LINE",
"348 651 OFFCURVE",
"324 680 OFFCURVE",
"307 701 OFFCURVE",
"295 716 OFFCURVE",
"289 724 QCURVE",
"273 724 LINE"
);
}
);
userData = {
assembly = "SVTCA[0]	/* SetFreedomAndProjectionVectorToAxis */\012PUSHW[ ]	/* 1 value pushed */\0120 \012RCVT[ ]	/* ReadCVT */\012IF[ ]	/* If */\012PUSHW[ ]	/* 1 value pushed */\01238 \012MDAP[1]	/* MoveDirectAbsPt */\012ELSE[ ]	/* Else */\012PUSHW[ ]	/* 2 values pushed */\01238 5 \012MIAP[0]	/* MoveIndirectAbsPt */\012EIF[ ]	/* EndIf */\012PUSHW[ ]	/* 1 value pushed */\0120 \012RCVT[ ]	/* ReadCVT */\012IF[ ]	/* If */\012PUSHW[ ]	/* 1 value pushed */\01248 \012MDAP[1]	/* MoveDirectAbsPt */\012ELSE[ ]	/* Else */\012PUSHW[ ]	/* 2 values pushed */\01248 5 \012MIAP[0]	/* MoveIndirectAbsPt */\012EIF[ ]	/* EndIf */\012PUSHW[ ]	/* 4 values pushed */\01250 3 56 4 \012CALL[ ]	/* CallFunction */\012PUSHW[ ]	/* 1 value pushed */\01256 \012SRP0[ ]	/* SetRefPoint0 */\012PUSHW[ ]	/* 1 value pushed */\01258 \012MDRP[10000]	/* MoveDirectRelPt */\012IUP[0]	/* InterpolateUntPts */\012IUP[1]	/* InterpolateUntPts */";
};
width = 428;
}
);
leftKerningGroup = O;
note = Gcircumflex;
rightKerningGroup = G;
unicode = 011C;
},
{
color = 11;
glyphname = Gdotaccent;
lastChange = "2021-11-24 16:17:35 +0000";
layers = (
{
layerId = "9AA098C0-EDBC-463F-BC21-AFCD07A070D0";
paths = (
{
closed = 1;
nodes = (
"309 0 LINE",
"347 266 LINE",
"228 266 LINE",
"226 257 LINE",
"333 257 LINE",
"314 118 LINE SMOOTH",
"310 89 OFFCURVE",
"284 45 OFFCURVE",
"245 13 OFFCURVE",
"197 -3 OFFCURVE",
"172 -3 QCURVE SMOOTH",
"146 -3 OFFCURVE",
"102 5 OFFCURVE",
"72 30 OFFCURVE",
"59 78 OFFCURVE",
"65 118 QCURVE SMOOTH",
"114 468 LINE SMOOTH",
"120 507 OFFCURVE",
"143 555 OFFCURVE",
"179 580 OFFCURVE",
"226 589 OFFCURVE",
"255 589 QCURVE SMOOTH",
"285 589 OFFCURVE",
"331 580 OFFCURVE",
"359 555 OFFCURVE",
"369 507 OFFCURVE",
"363 468 QCURVE SMOOTH",
"354 401 LINE",
"366 401 LINE",
"375 469 LINE SMOOTH",
"381 512 OFFCURVE",
"368 563 OFFCURVE",
"336 590 OFFCURVE",
"288 599 OFFCURVE",
"258 599 QCURVE SMOOTH",
"228 599 OFFCURVE",
"177 591 OFFCURVE",
"136 564 OFFCURVE",
"108 512 OFFCURVE",
"102 469 QCURVE SMOOTH",
"53 118 LINE SMOOTH",
"47 75 OFFCURVE",
"60 24 OFFCURVE",
"93 -3 OFFCURVE",
"141 -12 OFFCURVE",
"170 -12 QCURVE SMOOTH",
"216 -12 OFFCURVE",
"291 31 OFFCURVE",
"308 69 QCURVE",
"302 0 LINE"
);
},
{
closed = 1;
nodes = (
"268 630 QCURVE SMOOTH",
"284 630 OFFCURVE",
"286 646 QCURVE SMOOTH",
"288 662 OFFCURVE",
"272 662 QCURVE SMOOTH",
"256 662 OFFCURVE",
"254 646 QCURVE SMOOTH",
"252 630 OFFCURVE"
);
}
);
userData = {
assembly = "PUSHW[ ]	/* 4 values pushed */\01250 4 9 4 \012CALL[ ]	/* CallFunction */\012SVTCA[0]	/* SetFreedomAndProjectionVectorToAxis */\012PUSHW[ ]	/* 1 value pushed */\0120 \012RCVT[ ]	/* ReadCVT */\012IF[ ]	/* If */\012PUSHW[ ]	/* 1 value pushed */\01238 \012MDAP[1]	/* MoveDirectAbsPt */\012ELSE[ ]	/* Else */\012PUSHW[ ]	/* 2 values pushed */\01238 5 \012MIAP[0]	/* MoveIndirectAbsPt */\012EIF[ ]	/* EndIf */\012PUSHW[ ]	/* 1 value pushed */\0120 \012RCVT[ ]	/* ReadCVT */\012IF[ ]	/* If */\012PUSHW[ ]	/* 1 value pushed */\01248 \012MDAP[1]	/* MoveDirectAbsPt */\012ELSE[ ]	/* Else */\012PUSHW[ ]	/* 2 values pushed */\01248 5 \012MIAP[0]	/* MoveIndirectAbsPt */\012EIF[ ]	/* EndIf */\012IUP[0]	/* InterpolateUntPts */\012IUP[1]	/* InterpolateUntPts */";
};
width = 428;
}
);
leftKerningGroup = O;
note = Gdotaccent;
rightKerningGroup = G;
unicode = 0120;
},
{
color = 6;
glyphname = H;
lastChange = "2021-11-24 16:17:35 +0000";
layers = (
{
layerId = "9AA098C0-EDBC-463F-BC21-AFCD07A070D0";
paths = (
{
closed = 1;
nodes = (
"359 591 LINE",
"320 317 LINE",
"71 317 LINE",
"110 591 LINE",
"98 591 LINE",
"15 0 LINE",
"27 0 LINE",
"70 306 LINE",
"319 306 LINE",
"276 0 LINE",
"288 0 LINE",
"371 591 LINE"
);
}
);
userData = {
assembly = "SVTCA[0]	/* SetFreedomAndProjectionVectorToAxis */\012PUSHW[ ]	/* 1 value pushed */\0120 \012RCVT[ ]	/* ReadCVT */\012IF[ ]	/* If */\012PUSHW[ ]	/* 1 value pushed */\0120 \012MDAP[1]	/* MoveDirectAbsPt */\012ELSE[ ]	/* Else */\012PUSHW[ ]	/* 2 values pushed */\0120 5 \012MIAP[0]	/* MoveIndirectAbsPt */\012EIF[ ]	/* EndIf */\012PUSHW[ ]	/* 1 value pushed */\0120 \012RCVT[ ]	/* ReadCVT */\012IF[ ]	/* If */\012PUSHW[ ]	/* 1 value pushed */\0124 \012MDAP[1]	/* MoveDirectAbsPt */\012ELSE[ ]	/* Else */\012PUSHW[ ]	/* 2 values pushed */\0124 5 \012MIAP[0]	/* MoveIndirectAbsPt */\012EIF[ ]	/* EndIf */\012IUP[0]	/* InterpolateUntPts */\012IUP[1]	/* InterpolateUntPts */";
};
width = 373;
}
);
leftKerningGroup = H;
note = H;
rightKerningGroup = H;
unicode = 0048;
},
{
color = 11;
glyphname = Hbar;
lastChange = "2021-11-24 16:17:35 +0000";
layers = (
{
layerId = "9AA098C0-EDBC-463F-BC21-AFCD07A070D0";
paths = (
{
closed = 1;
nodes = (
"119 494 LINE",
"50 0 LINE",
"62 0 LINE",
"105 306 LINE",
"354 306 LINE",
"311 0 LINE",
"323 0 LINE",
"392 494 LINE",
"442 494 LINE",
"443 504 LINE",
"393 504 LINE",
"406 591 LINE",
"394 591 LINE",
"381 504 LINE",
"132 504 LINE",
"145 591 LINE",
"133 591 LINE",
"120 504 LINE",
"71 504 LINE",
"70 494 LINE"
);
},
{
closed = 1;
nodes = (
"131 494 LINE",
"380 494 LINE",
"355 317 LINE",
"106 317 LINE"
);
}
);
userData = {
assembly = "SVTCA[0]	/* SetFreedomAndProjectionVectorToAxis */\012PUSHW[ ]	/* 1 value pushed */\0120 \012RCVT[ ]	/* ReadCVT */\012IF[ ]	/* If */\012PUSHW[ ]	/* 1 value pushed */\01212 \012MDAP[1]	/* MoveDirectAbsPt */\012ELSE[ ]	/* Else */\012PUSHW[ ]	/* 2 values pushed */\01212 5 \012MIAP[0]	/* MoveIndirectAbsPt */\012EIF[ ]	/* EndIf */\012PUSHW[ ]	/* 1 value pushed */\0120 \012RCVT[ ]	/* ReadCVT */\012IF[ ]	/* If */\012PUSHW[ ]	/* 1 value pushed */\01216 \012MDAP[1]	/* MoveDirectAbsPt */\012ELSE[ ]	/* Else */\012PUSHW[ ]	/* 2 values pushed */\01216 5 \012MIAP[0]	/* MoveIndirectAbsPt */\012EIF[ ]	/* EndIf */\012IUP[0]	/* InterpolateUntPts */\012IUP[1]	/* InterpolateUntPts */";
};
width = 493;
}
);
leftKerningGroup = H;
note = Hbar;
rightKerningGroup = H;
unicode = 0126;
},
{
color = 11;
glyphname = Hcircumflex;
lastChange = "2021-11-24 16:17:35 +0000";
layers = (
{
layerId = "9AA098C0-EDBC-463F-BC21-AFCD07A070D0";
paths = (
{
closed = 1;
nodes = (
"394 591 LINE",
"355 317 LINE",
"106 317 LINE",
"145 591 LINE",
"133 591 LINE",
"50 0 LINE",
"62 0 LINE",
"105 306 LINE",
"354 306 LINE",
"311 0 LINE",
"323 0 LINE",
"406 591 LINE"
);
},
{
closed = 1;
nodes = (
"256 701 OFFCURVE",
"203 654 OFFCURVE",
"177 630 QCURVE",
"190 630 LINE",
"287 717 LINE",
"359 630 LINE",
"373 630 LINE",
"356 651 OFFCURVE",
"332 680 OFFCURVE",
"315 701 OFFCURVE",
"303 716 OFFCURVE",
"297 724 QCURVE",
"281 724 LINE"
);
}
);
userData = {
assembly = "SVTCA[0]	/* SetFreedomAndProjectionVectorToAxis */\012PUSHW[ ]	/* 1 value pushed */\0120 \012RCVT[ ]	/* ReadCVT */\012IF[ ]	/* If */\012PUSHW[ ]	/* 1 value pushed */\0120 \012MDAP[1]	/* MoveDirectAbsPt */\012ELSE[ ]	/* Else */\012PUSHW[ ]	/* 2 values pushed */\0120 5 \012MIAP[0]	/* MoveIndirectAbsPt */\012EIF[ ]	/* EndIf */\012PUSHW[ ]	/* 1 value pushed */\0120 \012RCVT[ ]	/* ReadCVT */\012IF[ ]	/* If */\012PUSHW[ ]	/* 1 value pushed */\0124 \012MDAP[1]	/* MoveDirectAbsPt */\012ELSE[ ]	/* Else */\012PUSHW[ ]	/* 2 values pushed */\0124 5 \012MIAP[0]	/* MoveIndirectAbsPt */\012EIF[ ]	/* EndIf */\012PUSHW[ ]	/* 4 values pushed */\01212 3 18 4 \012CALL[ ]	/* CallFunction */\012PUSHW[ ]	/* 1 value pushed */\01218 \012SRP0[ ]	/* SetRefPoint0 */\012PUSHW[ ]	/* 1 value pushed */\01220 \012MDRP[10000]	/* MoveDirectRelPt */\012IUP[0]	/* InterpolateUntPts */\012IUP[1]	/* InterpolateUntPts */";
};
width = 456;
}
);
leftKerningGroup = H;
note = Hcircumflex;
rightKerningGroup = H;
unicode = 0124;
},
{
color = 6;
glyphname = I;
lastChange = "2021-11-24 16:17:35 +0000";
layers = (
{
layerId = "9AA098C0-EDBC-463F-BC21-AFCD07A070D0";
paths = (
{
closed = 1;
nodes = (
"98 591 LINE",
"15 0 LINE",
"27 0 LINE",
"110 591 LINE"
);
}
);
userData = {
assembly = "SVTCA[0]	/* SetFreedomAndProjectionVectorToAxis */\012PUSHW[ ]	/* 1 value pushed */\0120 \012RCVT[ ]	/* ReadCVT */\012IF[ ]	/* If */\012PUSHW[ ]	/* 1 value pushed */\0120 \012MDAP[1]	/* MoveDirectAbsPt */\012ELSE[ ]	/* Else */\012PUSHW[ ]	/* 2 values pushed */\0120 5 \012MIAP[0]	/* MoveIndirectAbsPt */\012EIF[ ]	/* EndIf */\012IUP[0]	/* InterpolateUntPts */\012IUP[1]	/* InterpolateUntPts */";
};
width = 112;
}
);
leftKerningGroup = H;
leftMetricsKey = H;
note = I;
rightKerningGroup = H;
rightMetricsKey = H;
unicode = 0049;
},
{
color = 11;
glyphname = Iacute;
lastChange = "2021-11-24 01:00:13 +0000";
layers = (
{
layerId = "9AA098C0-EDBC-463F-BC21-AFCD07A070D0";
paths = (
{
closed = 1;
nodes = (
"133 591 LINE",
"50 0 LINE",
"62 0 LINE",
"145 591 LINE"
);
},
{
closed = 1;
nodes = (
"183 750 LINE",
"109 664 LINE",
"120 664 LINE",
"205 750 LINE"
);
}
);
userData = {
assembly = "SVTCA[0]	/* SetFreedomAndProjectionVectorToAxis */\012PUSHW[ ]	/* 1 value pushed */\0120 \012RCVT[ ]	/* ReadCVT */\012IF[ ]	/* If */\012PUSHW[ ]	/* 1 value pushed */\0120 \012MDAP[1]	/* MoveDirectAbsPt */\012ELSE[ ]	/* Else */\012PUSHW[ ]	/* 2 values pushed */\0120 5 \012MIAP[0]	/* MoveIndirectAbsPt */\012EIF[ ]	/* EndIf */\012PUSHW[ ]	/* 4 values pushed */\0126 3 4 4 \012CALL[ ]	/* CallFunction */\012IUP[0]	/* InterpolateUntPts */\012IUP[1]	/* InterpolateUntPts */";
};
width = 285;
}
);
note = Iacute;
unicode = 00CD;
},
{
color = 11;
glyphname = Icircumflex;
lastChange = "2021-11-24 01:00:13 +0000";
layers = (
{
layerId = "9AA098C0-EDBC-463F-BC21-AFCD07A070D0";
paths = (
{
closed = 1;
nodes = (
"133 591 LINE",
"50 0 LINE",
"62 0 LINE",
"145 591 LINE"
);
},
{
closed = 1;
nodes = (
"129 727 OFFCURVE",
"75 680 OFFCURVE",
"50 656 QCURVE",
"63 656 LINE",
"160 743 LINE",
"232 656 LINE",
"246 656 LINE",
"229 677 OFFCURVE",
"205 706 OFFCURVE",
"188 727 OFFCURVE",
"176 742 OFFCURVE",
"170 750 QCURVE",
"154 750 LINE"
);
}
);
userData = {
assembly = "SVTCA[0]	/* SetFreedomAndProjectionVectorToAxis */\012PUSHW[ ]	/* 1 value pushed */\0120 \012RCVT[ ]	/* ReadCVT */\012IF[ ]	/* If */\012PUSHW[ ]	/* 1 value pushed */\0120 \012MDAP[1]	/* MoveDirectAbsPt */\012ELSE[ ]	/* Else */\012PUSHW[ ]	/* 2 values pushed */\0120 5 \012MIAP[0]	/* MoveIndirectAbsPt */\012EIF[ ]	/* EndIf */\012PUSHW[ ]	/* 4 values pushed */\0124 3 10 4 \012CALL[ ]	/* CallFunction */\012PUSHW[ ]	/* 1 value pushed */\01210 \012SRP0[ ]	/* SetRefPoint0 */\012PUSHW[ ]	/* 1 value pushed */\01212 \012MDRP[10000]	/* MoveDirectRelPt */\012IUP[0]	/* InterpolateUntPts */\012IUP[1]	/* InterpolateUntPts */";
};
width = 307;
}
);
note = Icircumflex;
unicode = 00CE;
},
{
color = 11;
glyphname = Idieresis;
lastChange = "2021-11-24 01:00:13 +0000";
layers = (
{
layerId = "9AA098C0-EDBC-463F-BC21-AFCD07A070D0";
paths = (
{
closed = 1;
nodes = (
"133 591 LINE",
"50 0 LINE",
"62 0 LINE",
"145 591 LINE"
);
},
{
closed = 1;
nodes = (
"211 718 OFFCURVE",
"218 718 QCURVE SMOOTH",
"233 718 OFFCURVE",
"237 734 QCURVE SMOOTH",
"239 750 OFFCURVE",
"223 750 QCURVE SMOOTH",
"207 750 OFFCURVE",
"205 734 QCURVE",
"203 727 OFFCURVE"
);
},
{
closed = 1;
nodes = (
"115 718 OFFCURVE",
"122 718 QCURVE SMOOTH",
"137 718 OFFCURVE",
"141 734 QCURVE SMOOTH",
"143 750 OFFCURVE",
"127 750 QCURVE SMOOTH",
"111 750 OFFCURVE",
"109 734 QCURVE",
"107 727 OFFCURVE"
);
}
);
userData = {
assembly = "SVTCA[0]	/* SetFreedomAndProjectionVectorToAxis */\012PUSHW[ ]	/* 1 value pushed */\0120 \012RCVT[ ]	/* ReadCVT */\012IF[ ]	/* If */\012PUSHW[ ]	/* 1 value pushed */\0120 \012MDAP[1]	/* MoveDirectAbsPt */\012ELSE[ ]	/* Else */\012PUSHW[ ]	/* 2 values pushed */\0120 5 \012MIAP[0]	/* MoveIndirectAbsPt */\012EIF[ ]	/* EndIf */\012IUP[0]	/* InterpolateUntPts */\012IUP[1]	/* InterpolateUntPts */";
};
width = 321;
}
);
note = Idieresis;
unicode = 00CF;
},
{
color = 11;
glyphname = Idotaccent;
lastChange = "2021-11-24 01:00:13 +0000";
layers = (
{
layerId = "9AA098C0-EDBC-463F-BC21-AFCD07A070D0";
paths = (
{
closed = 1;
nodes = (
"133 591 LINE",
"50 0 LINE",
"62 0 LINE",
"145 591 LINE"
);
},
{
closed = 1;
nodes = (
"146 630 QCURVE SMOOTH",
"162 630 OFFCURVE",
"164 646 QCURVE",
"166 653 OFFCURVE",
"158 662 OFFCURVE",
"151 662 QCURVE SMOOTH",
"136 662 OFFCURVE",
"132 646 QCURVE SMOOTH",
"130 630 OFFCURVE"
);
}
);
userData = {
assembly = "SVTCA[0]	/* SetFreedomAndProjectionVectorToAxis */\012PUSHW[ ]	/* 1 value pushed */\0120 \012RCVT[ ]	/* ReadCVT */\012IF[ ]	/* If */\012PUSHW[ ]	/* 1 value pushed */\0120 \012MDAP[1]	/* MoveDirectAbsPt */\012ELSE[ ]	/* Else */\012PUSHW[ ]	/* 2 values pushed */\0120 5 \012MIAP[0]	/* MoveIndirectAbsPt */\012EIF[ ]	/* EndIf */\012IUP[0]	/* InterpolateUntPts */\012IUP[1]	/* InterpolateUntPts */";
};
width = 226;
}
);
note = Idotaccent;
unicode = 0130;
},
{
color = 11;
glyphname = Igrave;
lastChange = "2021-11-24 01:00:13 +0000";
layers = (
{
layerId = "9AA098C0-EDBC-463F-BC21-AFCD07A070D0";
paths = (
{
closed = 1;
nodes = (
"133 591 LINE",
"50 0 LINE",
"62 0 LINE",
"145 591 LINE"
);
},
{
closed = 1;
nodes = (
"169 664 LINE",
"119 750 LINE",
"97 750 LINE",
"158 664 LINE"
);
}
);
userData = {
assembly = "SVTCA[0]	/* SetFreedomAndProjectionVectorToAxis */\012PUSHW[ ]	/* 1 value pushed */\0120 \012RCVT[ ]	/* ReadCVT */\012IF[ ]	/* If */\012PUSHW[ ]	/* 1 value pushed */\0120 \012MDAP[1]	/* MoveDirectAbsPt */\012ELSE[ ]	/* Else */\012PUSHW[ ]	/* 2 values pushed */\0120 5 \012MIAP[0]	/* MoveIndirectAbsPt */\012EIF[ ]	/* EndIf */\012PUSHW[ ]	/* 4 values pushed */\0125 3 7 4 \012CALL[ ]	/* CallFunction */\012IUP[0]	/* InterpolateUntPts */\012IUP[1]	/* InterpolateUntPts */";
};
width = 250;
}
);
note = Igrave;
unicode = 00CC;
},
{
color = 11;
glyphname = Imacron;
lastChange = "2021-11-24 01:00:13 +0000";
layers = (
{
layerId = "9AA098C0-EDBC-463F-BC21-AFCD07A070D0";
paths = (
{
closed = 1;
nodes = (
"139 591 LINE",
"56 0 LINE",
"68 0 LINE",
"151 591 LINE"
);
},
{
closed = 1;
nodes = (
"251 685 LINE",
"252 694 LINE",
"51 694 LINE",
"50 685 LINE"
);
}
);
userData = {
assembly = "SVTCA[0]	/* SetFreedomAndProjectionVectorToAxis */\012PUSHW[ ]	/* 1 value pushed */\0120 \012RCVT[ ]	/* ReadCVT */\012IF[ ]	/* If */\012PUSHW[ ]	/* 1 value pushed */\0120 \012MDAP[1]	/* MoveDirectAbsPt */\012ELSE[ ]	/* Else */\012PUSHW[ ]	/* 2 values pushed */\0120 5 \012MIAP[0]	/* MoveIndirectAbsPt */\012EIF[ ]	/* EndIf */\012IUP[0]	/* InterpolateUntPts */\012IUP[1]	/* InterpolateUntPts */";
};
width = 306;
}
);
note = Imacron;
unicode = 012A;
},
{
color = 11;
glyphname = Iogonek;
lastChange = "2021-11-24 01:00:13 +0000";
layers = (
{
layerId = "9AA098C0-EDBC-463F-BC21-AFCD07A070D0";
paths = (
{
closed = 1;
nodes = (
"251 591 LINE",
"168 0 LINE",
"173 0 LINE",
"152 -11 OFFCURVE",
"112 -46 OFFCURVE",
"78 -87 OFFCURVE",
"54 -133 OFFCURVE",
"51 -156 QCURVE SMOOTH",
"48 -179 OFFCURVE",
"59 -210 OFFCURVE",
"83 -231 OFFCURVE",
"116 -240 OFFCURVE",
"135 -240 QCURVE SMOOTH",
"159 -240 OFFCURVE",
"204 -230 OFFCURVE",
"218 -222 QCURVE",
"216 -212 LINE",
"179 -229 OFFCURVE",
"135 -229 QCURVE SMOOTH",
"97 -229 OFFCURVE",
"59 -188 OFFCURVE",
"64 -154 QCURVE SMOOTH",
"66 -136 OFFCURVE",
"89 -93 OFFCURVE",
"122 -51 OFFCURVE",
"162 -13 OFFCURVE",
"183 0 QCURVE",
"180 0 LINE",
"263 591 LINE"
);
}
);
userData = {
assembly = "SVTCA[0]	/* SetFreedomAndProjectionVectorToAxis */\012PUSHW[ ]	/* 1 value pushed */\0120 \012RCVT[ ]	/* ReadCVT */\012IF[ ]	/* If */\012PUSHW[ ]	/* 1 value pushed */\0120 \012MDAP[1]	/* MoveDirectAbsPt */\012ELSE[ ]	/* Else */\012PUSHW[ ]	/* 2 values pushed */\0120 5 \012MIAP[0]	/* MoveIndirectAbsPt */\012EIF[ ]	/* EndIf */\012PUSHW[ ]	/* 1 value pushed */\0120 \012RCVT[ ]	/* ReadCVT */\012IF[ ]	/* If */\012PUSHW[ ]	/* 1 value pushed */\01225 \012MDAP[1]	/* MoveDirectAbsPt */\012ELSE[ ]	/* Else */\012PUSHW[ ]	/* 2 values pushed */\01225 5 \012MIAP[0]	/* MoveIndirectAbsPt */\012EIF[ ]	/* EndIf */\012IUP[0]	/* InterpolateUntPts */\012IUP[1]	/* InterpolateUntPts */";
};
width = 318;
}
);
note = Iogonek;
unicode = 012E;
},
{
color = 11;
glyphname = Itilde;
lastChange = "2021-11-24 01:00:13 +0000";
layers = (
{
layerId = "9AA098C0-EDBC-463F-BC21-AFCD07A070D0";
paths = (
{
closed = 1;
nodes = (
"150 591 LINE",
"67 0 LINE",
"79 0 LINE",
"162 591 LINE"
);
},
{
closed = 1;
nodes = (
"274 658 OFFCURVE",
"280 678 QCURVE",
"271 678 LINE",
"264 654 OFFCURVE",
"234 639 OFFCURVE",
"216 639 QCURVE SMOOTH",
"201 639 OFFCURVE",
"176 652 OFFCURVE",
"153 667 OFFCURVE",
"129 680 OFFCURVE",
"114 680 QCURVE SMOOTH",
"88 680 OFFCURVE",
"55 654 OFFCURVE",
"50 634 QCURVE",
"60 634 LINE",
"66 657 OFFCURVE",
"95 672 OFFCURVE",
"113 672 QCURVE SMOOTH",
"125 672 OFFCURVE",
"147 661 OFFCURVE",
"155 655 QCURVE SMOOTH",
"190 630 OFFCURVE",
"215 630 QCURVE SMOOTH",
"240 630 OFFCURVE"
);
}
);
userData = {
assembly = "SVTCA[0]	/* SetFreedomAndProjectionVectorToAxis */\012PUSHW[ ]	/* 1 value pushed */\0120 \012RCVT[ ]	/* ReadCVT */\012IF[ ]	/* If */\012PUSHW[ ]	/* 1 value pushed */\0120 \012MDAP[1]	/* MoveDirectAbsPt */\012ELSE[ ]	/* Else */\012PUSHW[ ]	/* 2 values pushed */\0120 5 \012MIAP[0]	/* MoveIndirectAbsPt */\012EIF[ ]	/* EndIf */\012IUP[0]	/* InterpolateUntPts */\012IUP[1]	/* InterpolateUntPts */";
};
width = 333;
}
);
note = Itilde;
unicode = 0128;
},
{
color = 6;
glyphname = J;
lastChange = "2021-11-24 16:17:35 +0000";
layers = (
{
layerId = "9AA098C0-EDBC-463F-BC21-AFCD07A070D0";
paths = (
{
closed = 1;
nodes = (
"-44 -1 OFFCURVE",
"-32 0 OFFCURVE",
"-27 0 QCURVE SMOOTH",
"-15 0 LINE SMOOTH",
"14 0 OFFCURVE",
"49 13 OFFCURVE",
"69 41 OFFCURVE",
"79 85 OFFCURVE",
"84 117 QCURVE SMOOTH",
"151 591 LINE",
"139 591 LINE",
"68 86 LINE SMOOTH",
"62 43 OFFCURVE",
"22 10 OFFCURVE",
"-14 10 QCURVE SMOOTH",
"-48 10 LINE",
"-49 0 LINE"
);
}
);
width = 153;
}
);
leftKerningGroup = J;
note = J;
rightKerningGroup = J;
rightMetricsKey = H;
unicode = 004A;
},
{
color = 11;
glyphname = Jcircumflex;
lastChange = "2021-11-24 16:17:35 +0000";
layers = (
{
layerId = "9AA098C0-EDBC-463F-BC21-AFCD07A070D0";
paths = (
{
closed = 1;
nodes = (
"55 -1 OFFCURVE",
"67 0 OFFCURVE",
"72 0 QCURVE SMOOTH",
"84 0 LINE SMOOTH",
"113 0 OFFCURVE",
"148 13 OFFCURVE",
"168 41 OFFCURVE",
"178 85 OFFCURVE",
"183 117 QCURVE SMOOTH",
"250 591 LINE",
"238 591 LINE",
"167 86 LINE SMOOTH",
"161 43 OFFCURVE",
"121 10 OFFCURVE",
"85 10 QCURVE SMOOTH",
"51 10 LINE",
"50 0 LINE"
);
},
{
closed = 1;
nodes = (
"231 701 OFFCURVE",
"178 654 OFFCURVE",
"152 630 QCURVE",
"165 630 LINE",
"262 717 LINE",
"334 630 LINE",
"348 630 LINE",
"331 651 OFFCURVE",
"308 680 OFFCURVE",
"291 701 OFFCURVE",
"278 716 OFFCURVE",
"272 724 QCURVE",
"256 724 LINE"
);
}
);
userData = {
assembly = "SVTCA[0]	/* SetFreedomAndProjectionVectorToAxis */\012PUSHW[ ]	/* 4 values pushed */\01217 3 23 4 \012CALL[ ]	/* CallFunction */\012PUSHW[ ]	/* 1 value pushed */\01223 \012SRP0[ ]	/* SetRefPoint0 */\012PUSHW[ ]	/* 1 value pushed */\01225 \012MDRP[10000]	/* MoveDirectRelPt */\012IUP[0]	/* InterpolateUntPts */\012IUP[1]	/* InterpolateUntPts */";
};
width = 399;
}
);
leftKerningGroup = J;
note = Jcircumflex;
rightKerningGroup = J;
unicode = 0134;
},
{
color = 6;
glyphname = K;
lastChange = "2021-11-24 16:17:35 +0000";
layers = (
{
layerId = "9AA098C0-EDBC-463F-BC21-AFCD07A070D0";
paths = (
{
closed = 1;
nodes = (
"256 0 LINE",
"113 306 LINE",
"334 591 LINE",
"320 591 LINE",
"99 306 LINE",
"241 0 LINE"
);
},
{
closed = 1;
nodes = (
"98 591 LINE",
"15 0 LINE",
"27 0 LINE",
"110 591 LINE"
);
}
);
userData = {
assembly = "SVTCA[0]	/* SetFreedomAndProjectionVectorToAxis */\012PUSHW[ ]	/* 1 value pushed */\0120 \012RCVT[ ]	/* ReadCVT */\012IF[ ]	/* If */\012PUSHW[ ]	/* 1 value pushed */\0124 \012MDAP[1]	/* MoveDirectAbsPt */\012ELSE[ ]	/* Else */\012PUSHW[ ]	/* 2 values pushed */\0124 5 \012MIAP[0]	/* MoveIndirectAbsPt */\012EIF[ ]	/* EndIf */\012PUSHW[ ]	/* 1 value pushed */\0120 \012RCVT[ ]	/* ReadCVT */\012IF[ ]	/* If */\012PUSHW[ ]	/* 1 value pushed */\0126 \012MDAP[1]	/* MoveDirectAbsPt */\012ELSE[ ]	/* Else */\012PUSHW[ ]	/* 2 values pushed */\0126 5 \012MIAP[0]	/* MoveIndirectAbsPt */\012EIF[ ]	/* EndIf */\012IUP[0]	/* InterpolateUntPts */\012IUP[1]	/* InterpolateUntPts */";
};
width = 295;
}
);
leftKerningGroup = H;
leftMetricsKey = H;
note = K;
rightKerningGroup = K;
unicode = 004B;
},
{
color = 6;
glyphname = L;
lastChange = "2021-11-24 16:17:35 +0000";
layers = (
{
layerId = "9AA098C0-EDBC-463F-BC21-AFCD07A070D0";
paths = (
{
closed = 1;
nodes = (
"225 0 LINE",
"226 11 LINE",
"28 11 LINE",
"110 591 LINE",
"98 591 LINE",
"15 0 LINE"
);
}
);
width = 265;
}
);
leftKerningGroup = H;
leftMetricsKey = H;
note = L;
rightKerningGroup = L;
unicode = 004C;
},
{
color = 11;
glyphname = Lacute;
lastChange = "2021-11-24 16:17:35 +0000";
layers = (
{
layerId = "9AA098C0-EDBC-463F-BC21-AFCD07A070D0";
paths = (
{
closed = 1;
nodes = (
"260 0 LINE",
"261 11 LINE",
"63 11 LINE",
"145 591 LINE",
"133 591 LINE",
"50 0 LINE"
);
},
{
closed = 1;
nodes = (
"198 716 LINE",
"124 630 LINE",
"135 630 LINE",
"220 716 LINE"
);
}
);
userData = {
assembly = "SVTCA[0]	/* SetFreedomAndProjectionVectorToAxis */\012PUSHW[ ]	/* 4 values pushed */\0128 3 6 4 \012CALL[ ]	/* CallFunction */\012IUP[0]	/* InterpolateUntPts */\012IUP[1]	/* InterpolateUntPts */";
};
width = 317;
}
);
leftKerningGroup = H;
note = Lacute;
rightKerningGroup = L;
unicode = 0139;
},
{
color = 11;
glyphname = Lcaron;
lastChange = "2021-11-24 16:17:35 +0000";
layers = (
{
layerId = "9AA098C0-EDBC-463F-BC21-AFCD07A070D0";
paths = (
{
closed = 1;
nodes = (
"260 0 LINE",
"261 11 LINE",
"63 11 LINE",
"145 591 LINE",
"133 591 LINE",
"50 0 LINE"
);
},
{
closed = 1;
nodes = (
"203 545 OFFCURVE",
"193 534 QCURVE",
"197 533 OFFCURVE",
"204 535 OFFCURVE",
"211 541 QCURVE SMOOTH",
"223 553 OFFCURVE",
"239 593 OFFCURVE",
"241 609 QCURVE SMOOTH",
"242 617 OFFCURVE",
"237 630 OFFCURVE",
"227 630 QCURVE SMOOTH",
"218 630 OFFCURVE",
"208 620 OFFCURVE",
"207 612 QCURVE SMOOTH",
"206 607 OFFCURVE",
"210 601 OFFCURVE",
"212 597 QCURVE",
"220 589 OFFCURVE",
"218 577 QCURVE SMOOTH",
"216 563 OFFCURVE"
);
}
);
userData = {
assembly = "SVTCA[0]	/* SetFreedomAndProjectionVectorToAxis */\012PUSHW[ ]	/* 1 value pushed */\0120 \012RCVT[ ]	/* ReadCVT */\012IF[ ]	/* If */\012PUSHW[ ]	/* 1 value pushed */\0124 \012MDAP[1]	/* MoveDirectAbsPt */\012ELSE[ ]	/* Else */\012PUSHW[ ]	/* 2 values pushed */\0124 5 \012MIAP[0]	/* MoveIndirectAbsPt */\012EIF[ ]	/* EndIf */\012IUP[0]	/* InterpolateUntPts */\012IUP[1]	/* InterpolateUntPts */";
};
width = 266;
}
);
leftKerningGroup = H;
note = Lcaron;
rightKerningGroup = L;
unicode = 013D;
},
{
color = 11;
glyphname = Lslash;
lastChange = "2021-11-24 16:17:35 +0000";
layers = (
{
layerId = "9AA098C0-EDBC-463F-BC21-AFCD07A070D0";
paths = (
{
closed = 1;
nodes = (
"50 160 LINE",
"123 191 LINE",
"97 0 LINE",
"307 0 LINE",
"308 11 LINE",
"110 11 LINE",
"136 197 LINE",
"229 237 LINE",
"230 247 LINE",
"138 207 LINE",
"192 591 LINE",
"180 591 LINE",
"125 202 LINE",
"52 171 LINE"
);
}
);
userData = {
assembly = "PUSHW[ ]	/* 4 values pushed */\0122 4 12 4 \012CALL[ ]	/* CallFunction */\012IUP[0]	/* InterpolateUntPts */\012IUP[1]	/* InterpolateUntPts */";
};
width = 353;
}
);
leftKerningGroup = H;
note = Lslash;
rightKerningGroup = L;
unicode = 0141;
},
{
color = 6;
glyphname = M;
lastChange = "2021-11-24 16:17:35 +0000";
layers = (
{
layerId = "9AA098C0-EDBC-463F-BC21-AFCD07A070D0";
paths = (
{
closed = 1;
nodes = (
"456 591 LINE",
"200 16 LINE",
"107 591 LINE",
"98 591 LINE",
"15 0 LINE",
"27 0 LINE",
"102 537 LINE",
"191 0 LINE",
"205 0 LINE",
"253 111 OFFCURVE",
"374 377 OFFCURVE",
"444 537 QCURVE",
"369 0 LINE",
"381 0 LINE",
"464 591 LINE"
);
}
);
userData = {
assembly = "SVTCA[0]	/* SetFreedomAndProjectionVectorToAxis */\012PUSHW[ ]	/* 1 value pushed */\0120 \012RCVT[ ]	/* ReadCVT */\012IF[ ]	/* If */\012PUSHW[ ]	/* 1 value pushed */\0120 \012MDAP[1]	/* MoveDirectAbsPt */\012ELSE[ ]	/* Else */\012PUSHW[ ]	/* 2 values pushed */\0120 5 \012MIAP[0]	/* MoveIndirectAbsPt */\012EIF[ ]	/* EndIf */\012PUSHW[ ]	/* 1 value pushed */\0120 \012RCVT[ ]	/* ReadCVT */\012IF[ ]	/* If */\012PUSHW[ ]	/* 1 value pushed */\0125 \012MDAP[1]	/* MoveDirectAbsPt */\012ELSE[ ]	/* Else */\012PUSHW[ ]	/* 2 values pushed */\0125 5 \012MIAP[0]	/* MoveIndirectAbsPt */\012EIF[ ]	/* EndIf */\012PUSHW[ ]	/* 1 value pushed */\0120 \012RCVT[ ]	/* ReadCVT */\012IF[ ]	/* If */\012PUSHW[ ]	/* 1 value pushed */\0128 \012MDAP[1]	/* MoveDirectAbsPt */\012ELSE[ ]	/* Else */\012PUSHW[ ]	/* 2 values pushed */\0128 5 \012MIAP[0]	/* MoveIndirectAbsPt */\012EIF[ ]	/* EndIf */\012IUP[0]	/* InterpolateUntPts */\012IUP[1]	/* InterpolateUntPts */";
};
width = 466;
}
);
leftKerningGroup = H;
leftMetricsKey = H;
note = M;
rightKerningGroup = H;
rightMetricsKey = H;
unicode = 004D;
},
{
color = 6;
glyphname = N;
lastChange = "2021-11-24 16:17:35 +0000";
layers = (
{
layerId = "9AA098C0-EDBC-463F-BC21-AFCD07A070D0";
paths = (
{
closed = 1;
nodes = (
"98 591 LINE",
"15 0 LINE",
"27 0 LINE",
"106 564 LINE",
"272 0 LINE",
"288 0 LINE",
"371 591 LINE",
"360 591 LINE",
"279 17 LINE",
"112 591 LINE"
);
}
);
userData = {
assembly = "SVTCA[0]	/* SetFreedomAndProjectionVectorToAxis */\012PUSHW[ ]	/* 1 value pushed */\0120 \012RCVT[ ]	/* ReadCVT */\012IF[ ]	/* If */\012PUSHW[ ]	/* 1 value pushed */\0123 \012MDAP[1]	/* MoveDirectAbsPt */\012ELSE[ ]	/* Else */\012PUSHW[ ]	/* 2 values pushed */\0123 5 \012MIAP[0]	/* MoveIndirectAbsPt */\012EIF[ ]	/* EndIf */\012PUSHW[ ]	/* 1 value pushed */\0120 \012RCVT[ ]	/* ReadCVT */\012IF[ ]	/* If */\012PUSHW[ ]	/* 1 value pushed */\0126 \012MDAP[1]	/* MoveDirectAbsPt */\012ELSE[ ]	/* Else */\012PUSHW[ ]	/* 2 values pushed */\0126 5 \012MIAP[0]	/* MoveIndirectAbsPt */\012EIF[ ]	/* EndIf */\012IUP[0]	/* InterpolateUntPts */\012IUP[1]	/* InterpolateUntPts */";
};
width = 373;
}
);
leftKerningGroup = H;
leftMetricsKey = H;
note = N;
rightKerningGroup = H;
rightMetricsKey = H;
unicode = 004E;
},
{
color = 11;
glyphname = Nacute;
lastChange = "2021-11-24 16:17:35 +0000";
layers = (
{
layerId = "9AA098C0-EDBC-463F-BC21-AFCD07A070D0";
paths = (
{
closed = 1;
nodes = (
"133 591 LINE",
"50 0 LINE",
"62 0 LINE",
"141 564 LINE",
"307 0 LINE",
"323 0 LINE",
"406 591 LINE",
"395 591 LINE",
"314 17 LINE",
"147 591 LINE"
);
},
{
closed = 1;
nodes = (
"316 716 LINE",
"242 630 LINE",
"253 630 LINE",
"338 716 LINE"
);
}
);
userData = {
assembly = "SVTCA[0]	/* SetFreedomAndProjectionVectorToAxis */\012PUSHW[ ]	/* 1 value pushed */\0120 \012RCVT[ ]	/* ReadCVT */\012IF[ ]	/* If */\012PUSHW[ ]	/* 1 value pushed */\0123 \012MDAP[1]	/* MoveDirectAbsPt */\012ELSE[ ]	/* Else */\012PUSHW[ ]	/* 2 values pushed */\0123 5 \012MIAP[0]	/* MoveIndirectAbsPt */\012EIF[ ]	/* EndIf */\012PUSHW[ ]	/* 1 value pushed */\0120 \012RCVT[ ]	/* ReadCVT */\012IF[ ]	/* If */\012PUSHW[ ]	/* 1 value pushed */\0126 \012MDAP[1]	/* MoveDirectAbsPt */\012ELSE[ ]	/* Else */\012PUSHW[ ]	/* 2 values pushed */\0126 5 \012MIAP[0]	/* MoveIndirectAbsPt */\012EIF[ ]	/* EndIf */\012PUSHW[ ]	/* 4 values pushed */\01212 3 10 4 \012CALL[ ]	/* CallFunction */\012IUP[0]	/* InterpolateUntPts */\012IUP[1]	/* InterpolateUntPts */";
};
width = 456;
}
);
leftKerningGroup = H;
note = Nacute;
rightKerningGroup = H;
unicode = 0143;
},
{
color = 11;
glyphname = Ncaron;
lastChange = "2021-11-24 16:17:35 +0000";
layers = (
{
layerId = "9AA098C0-EDBC-463F-BC21-AFCD07A070D0";
paths = (
{
closed = 1;
nodes = (
"133 591 LINE",
"50 0 LINE",
"62 0 LINE",
"141 564 LINE",
"307 0 LINE",
"323 0 LINE",
"406 591 LINE",
"395 591 LINE",
"314 17 LINE",
"147 591 LINE"
);
},
{
closed = 1;
nodes = (
"314 653 OFFCURVE",
"368 700 OFFCURVE",
"393 724 QCURVE",
"380 724 LINE",
"283 637 LINE",
"211 724 LINE",
"197 724 LINE",
"214 703 OFFCURVE",
"238 674 OFFCURVE",
"255 653 OFFCURVE",
"267 637 OFFCURVE",
"273 630 QCURVE",
"289 630 LINE"
);
}
);
userData = {
assembly = "SVTCA[0]	/* SetFreedomAndProjectionVectorToAxis */\012PUSHW[ ]	/* 1 value pushed */\0120 \012RCVT[ ]	/* ReadCVT */\012IF[ ]	/* If */\012PUSHW[ ]	/* 1 value pushed */\0123 \012MDAP[1]	/* MoveDirectAbsPt */\012ELSE[ ]	/* Else */\012PUSHW[ ]	/* 2 values pushed */\0123 5 \012MIAP[0]	/* MoveIndirectAbsPt */\012EIF[ ]	/* EndIf */\012PUSHW[ ]	/* 1 value pushed */\0120 \012RCVT[ ]	/* ReadCVT */\012IF[ ]	/* If */\012PUSHW[ ]	/* 1 value pushed */\0126 \012MDAP[1]	/* MoveDirectAbsPt */\012ELSE[ ]	/* Else */\012PUSHW[ ]	/* 2 values pushed */\0126 5 \012MIAP[0]	/* MoveIndirectAbsPt */\012EIF[ ]	/* EndIf */\012PUSHW[ ]	/* 4 values pushed */\01216 3 10 4 \012CALL[ ]	/* CallFunction */\012PUSHW[ ]	/* 1 value pushed */\01216 \012SRP0[ ]	/* SetRefPoint0 */\012PUSHW[ ]	/* 1 value pushed */\01218 \012MDRP[10000]	/* MoveDirectRelPt */\012IUP[0]	/* InterpolateUntPts */\012IUP[1]	/* InterpolateUntPts */";
};
width = 456;
}
);
leftKerningGroup = H;
note = Ncaron;
rightKerningGroup = H;
unicode = 0147;
},
{
color = 6;
glyphname = Eng;
lastChange = "2021-11-24 16:17:35 +0000";
layers = (
{
layerId = "9AA098C0-EDBC-463F-BC21-AFCD07A070D0";
paths = (
{
closed = 1;
nodes = (
"177 -248 OFFCURVE",
"189 -247 OFFCURVE",
"194 -247 QCURVE SMOOTH",
"206 -247 LINE SMOOTH",
"235 -247 OFFCURVE",
"270 -234 OFFCURVE",
"290 -206 OFFCURVE",
"300 -162 OFFCURVE",
"305 -130 QCURVE SMOOTH",
"406 591 LINE",
"395 591 LINE",
"315 17 LINE",
"147 591 LINE",
"133 591 LINE",
"50 0 LINE",
"62 0 LINE",
"142 564 LINE",
"310 -9 LINE",
"289 -161 LINE SMOOTH",
"283 -204 OFFCURVE",
"243 -237 OFFCURVE",
"207 -237 QCURVE SMOOTH",
"173 -237 LINE",
"172 -247 LINE"
);
}
);
userData = {
assembly = "SVTCA[0]	/* SetFreedomAndProjectionVectorToAxis */\012PUSHW[ ]	/* 1 value pushed */\0120 \012RCVT[ ]	/* ReadCVT */\012IF[ ]	/* If */\012PUSHW[ ]	/* 1 value pushed */\0127 \012MDAP[1]	/* MoveDirectAbsPt */\012ELSE[ ]	/* Else */\012PUSHW[ ]	/* 2 values pushed */\0127 5 \012MIAP[0]	/* MoveIndirectAbsPt */\012EIF[ ]	/* EndIf */\012IUP[0]	/* InterpolateUntPts */\012IUP[1]	/* InterpolateUntPts */";
};
width = 456;
}
);
leftKerningGroup = H;
note = Eng;
rightKerningGroup = H;
unicode = 014A;
},
{
color = 11;
glyphname = Ntilde;
lastChange = "2021-11-24 16:17:35 +0000";
layers = (
{
layerId = "9AA098C0-EDBC-463F-BC21-AFCD07A070D0";
paths = (
{
closed = 1;
nodes = (
"133 591 LINE",
"50 0 LINE",
"62 0 LINE",
"141 564 LINE",
"307 0 LINE",
"323 0 LINE",
"406 591 LINE",
"395 591 LINE",
"314 17 LINE",
"147 591 LINE"
);
},
{
closed = 1;
nodes = (
"399 728 OFFCURVE",
"405 748 QCURVE",
"396 748 LINE",
"389 724 OFFCURVE",
"359 709 OFFCURVE",
"341 709 QCURVE SMOOTH",
"326 709 OFFCURVE",
"301 722 OFFCURVE",
"278 737 OFFCURVE",
"254 750 OFFCURVE",
"239 750 QCURVE SMOOTH",
"213 750 OFFCURVE",
"180 724 OFFCURVE",
"174 704 QCURVE",
"184 704 LINE",
"191 727 OFFCURVE",
"220 742 OFFCURVE",
"238 742 QCURVE SMOOTH",
"250 742 OFFCURVE",
"271 731 OFFCURVE",
"279 725 QCURVE SMOOTH",
"316 700 OFFCURVE",
"340 700 QCURVE SMOOTH",
"365 700 OFFCURVE"
);
}
);
userData = {
assembly = "SVTCA[0]	/* SetFreedomAndProjectionVectorToAxis */\012PUSHW[ ]	/* 1 value pushed */\0120 \012RCVT[ ]	/* ReadCVT */\012IF[ ]	/* If */\012PUSHW[ ]	/* 1 value pushed */\0123 \012MDAP[1]	/* MoveDirectAbsPt */\012ELSE[ ]	/* Else */\012PUSHW[ ]	/* 2 values pushed */\0123 5 \012MIAP[0]	/* MoveIndirectAbsPt */\012EIF[ ]	/* EndIf */\012PUSHW[ ]	/* 1 value pushed */\0120 \012RCVT[ ]	/* ReadCVT */\012IF[ ]	/* If */\012PUSHW[ ]	/* 1 value pushed */\0126 \012MDAP[1]	/* MoveDirectAbsPt */\012ELSE[ ]	/* Else */\012PUSHW[ ]	/* 2 values pushed */\0126 5 \012MIAP[0]	/* MoveIndirectAbsPt */\012EIF[ ]	/* EndIf */\012IUP[0]	/* InterpolateUntPts */\012IUP[1]	/* InterpolateUntPts */";
};
width = 456;
}
);
leftKerningGroup = H;
note = Ntilde;
rightKerningGroup = H;
unicode = 00D1;
},
{
color = 6;
glyphname = O;
lastChange = "2021-11-24 16:17:35 +0000";
layers = (
{
layerId = "9AA098C0-EDBC-463F-BC21-AFCD07A070D0";
paths = (
{
closed = 1;
nodes = (
"354 512 OFFCURVE",
"341 563 OFFCURVE",
"308 590 OFFCURVE",
"259 599 OFFCURVE",
"230 599 QCURVE SMOOTH",
"201 599 OFFCURVE",
"149 591 OFFCURVE",
"109 564 OFFCURVE",
"81 512 OFFCURVE",
"75 469 QCURVE SMOOTH",
"26 118 LINE SMOOTH",
"20 75 OFFCURVE",
"33 24 OFFCURVE",
"66 -3 OFFCURVE",
"114 -12 OFFCURVE",
"143 -12 QCURVE SMOOTH",
"173 -12 OFFCURVE",
"224 -4 OFFCURVE",
"265 23 OFFCURVE",
"293 74 OFFCURVE",
"299 118 QCURVE SMOOTH",
"348 469 LINE SMOOTH"
);
},
{
closed = 1;
nodes = (
"281 76 OFFCURVE",
"255 30 OFFCURVE",
"218 5 OFFCURVE",
"171 -2 OFFCURVE",
"145 -2 QCURVE SMOOTH",
"119 -2 OFFCURVE",
"75 5 OFFCURVE",
"45 30 OFFCURVE",
"32 76 OFFCURVE",
"37 115 QCURVE SMOOTH",
"88 472 LINE SMOOTH",
"93 511 OFFCURVE",
"119 557 OFFCURVE",
"156 582 OFFCURVE",
"202 589 OFFCURVE",
"228 589 QCURVE SMOOTH",
"253 589 OFFCURVE",
"298 582 OFFCURVE",
"329 557 OFFCURVE",
"342 511 OFFCURVE",
"337 472 QCURVE SMOOTH",
"286 115 LINE SMOOTH"
);
}
);
width = 361;
}
);
leftKerningGroup = O;
note = O;
rightKerningGroup = O;
unicode = 004F;
},
{
color = 11;
glyphname = Oacute;
lastChange = "2021-11-24 16:17:35 +0000";
layers = (
{
layerId = "9AA098C0-EDBC-463F-BC21-AFCD07A070D0";
paths = (
{
closed = 1;
nodes = (
"381 512 OFFCURVE",
"368 563 OFFCURVE",
"335 590 OFFCURVE",
"286 599 OFFCURVE",
"257 599 QCURVE SMOOTH",
"228 599 OFFCURVE",
"176 591 OFFCURVE",
"136 564 OFFCURVE",
"108 512 OFFCURVE",
"102 469 QCURVE SMOOTH",
"53 118 LINE SMOOTH",
"47 75 OFFCURVE",
"60 24 OFFCURVE",
"93 -3 OFFCURVE",
"141 -12 OFFCURVE",
"170 -12 QCURVE SMOOTH",
"200 -12 OFFCURVE",
"251 -4 OFFCURVE",
"292 23 OFFCURVE",
"320 74 OFFCURVE",
"326 118 QCURVE SMOOTH",
"375 469 LINE SMOOTH"
);
},
{
closed = 1;
nodes = (
"308 76 OFFCURVE",
"282 30 OFFCURVE",
"245 5 OFFCURVE",
"198 -2 OFFCURVE",
"172 -2 QCURVE SMOOTH",
"146 -2 OFFCURVE",
"102 5 OFFCURVE",
"72 30 OFFCURVE",
"59 76 OFFCURVE",
"64 115 QCURVE SMOOTH",
"115 472 LINE SMOOTH",
"120 511 OFFCURVE",
"146 557 OFFCURVE",
"183 582 OFFCURVE",
"229 589 OFFCURVE",
"255 589 QCURVE SMOOTH",
"280 589 OFFCURVE",
"325 582 OFFCURVE",
"356 557 OFFCURVE",
"369 511 OFFCURVE",
"364 472 QCURVE SMOOTH",
"313 115 LINE SMOOTH"
);
},
{
closed = 1;
nodes = (
"300 750 LINE",
"226 664 LINE",
"237 664 LINE",
"322 750 LINE"
);
}
);
userData = {
assembly = "SVTCA[0]	/* SetFreedomAndProjectionVectorToAxis */\012PUSHW[ ]	/* 4 values pushed */\01246 3 44 4 \012CALL[ ]	/* CallFunction */\012IUP[0]	/* InterpolateUntPts */\012IUP[1]	/* InterpolateUntPts */";
};
width = 428;
}
);
leftKerningGroup = O;
note = Oacute;
rightKerningGroup = O;
unicode = 00D3;
},
{
color = 11;
glyphname = Ocircumflex;
lastChange = "2021-11-24 16:17:35 +0000";
layers = (
{
layerId = "9AA098C0-EDBC-463F-BC21-AFCD07A070D0";
paths = (
{
closed = 1;
nodes = (
"381 512 OFFCURVE",
"368 563 OFFCURVE",
"335 590 OFFCURVE",
"286 599 OFFCURVE",
"257 599 QCURVE SMOOTH",
"228 599 OFFCURVE",
"176 591 OFFCURVE",
"136 564 OFFCURVE",
"108 512 OFFCURVE",
"102 469 QCURVE SMOOTH",
"53 118 LINE SMOOTH",
"47 75 OFFCURVE",
"60 24 OFFCURVE",
"93 -3 OFFCURVE",
"141 -12 OFFCURVE",
"170 -12 QCURVE SMOOTH",
"200 -12 OFFCURVE",
"251 -4 OFFCURVE",
"292 23 OFFCURVE",
"320 74 OFFCURVE",
"326 118 QCURVE SMOOTH",
"375 469 LINE SMOOTH"
);
},
{
closed = 1;
nodes = (
"308 76 OFFCURVE",
"282 30 OFFCURVE",
"245 5 OFFCURVE",
"198 -2 OFFCURVE",
"172 -2 QCURVE SMOOTH",
"146 -2 OFFCURVE",
"102 5 OFFCURVE",
"72 30 OFFCURVE",
"59 76 OFFCURVE",
"64 115 QCURVE SMOOTH",
"115 472 LINE SMOOTH",
"120 511 OFFCURVE",
"146 557 OFFCURVE",
"183 582 OFFCURVE",
"229 589 OFFCURVE",
"255 589 QCURVE SMOOTH",
"280 589 OFFCURVE",
"325 582 OFFCURVE",
"356 557 OFFCURVE",
"369 511 OFFCURVE",
"364 472 QCURVE SMOOTH",
"313 115 LINE SMOOTH"
);
},
{
closed = 1;
nodes = (
"246 727 OFFCURVE",
"193 680 OFFCURVE",
"167 656 QCURVE",
"180 656 LINE",
"278 743 LINE",
"349 656 LINE",
"363 656 LINE",
"346 677 OFFCURVE",
"323 706 OFFCURVE",
"306 727 OFFCURVE",
"294 742 OFFCURVE",
"288 750 QCURVE",
"272 750 LINE"
);
}
);
userData = {
assembly = "SVTCA[0]	/* SetFreedomAndProjectionVectorToAxis */\012PUSHW[ ]	/* 4 values pushed */\01244 3 50 4 \012CALL[ ]	/* CallFunction */\012PUSHW[ ]	/* 1 value pushed */\01250 \012SRP0[ ]	/* SetRefPoint0 */\012PUSHW[ ]	/* 1 value pushed */\01252 \012MDRP[10000]	/* MoveDirectRelPt */\012IUP[0]	/* InterpolateUntPts */\012IUP[1]	/* InterpolateUntPts */";
};
width = 428;
}
);
leftKerningGroup = O;
note = Ocircumflex;
rightKerningGroup = O;
unicode = 00D4;
},
{
color = 11;
glyphname = Odieresis;
lastChange = "2021-11-24 16:17:35 +0000";
layers = (
{
layerId = "9AA098C0-EDBC-463F-BC21-AFCD07A070D0";
paths = (
{
closed = 1;
nodes = (
"381 512 OFFCURVE",
"368 563 OFFCURVE",
"335 590 OFFCURVE",
"286 599 OFFCURVE",
"257 599 QCURVE SMOOTH",
"228 599 OFFCURVE",
"176 591 OFFCURVE",
"136 564 OFFCURVE",
"108 512 OFFCURVE",
"102 469 QCURVE SMOOTH",
"53 118 LINE SMOOTH",
"47 75 OFFCURVE",
"60 24 OFFCURVE",
"93 -3 OFFCURVE",
"141 -12 OFFCURVE",
"170 -12 QCURVE SMOOTH",
"200 -12 OFFCURVE",
"251 -4 OFFCURVE",
"292 23 OFFCURVE",
"320 74 OFFCURVE",
"326 118 QCURVE SMOOTH",
"375 469 LINE SMOOTH"
);
},
{
closed = 1;
nodes = (
"308 76 OFFCURVE",
"282 30 OFFCURVE",
"245 5 OFFCURVE",
"198 -2 OFFCURVE",
"172 -2 QCURVE SMOOTH",
"146 -2 OFFCURVE",
"102 5 OFFCURVE",
"72 30 OFFCURVE",
"59 76 OFFCURVE",
"64 115 QCURVE SMOOTH",
"115 472 LINE SMOOTH",
"120 511 OFFCURVE",
"146 557 OFFCURVE",
"183 582 OFFCURVE",
"229 589 OFFCURVE",
"255 589 QCURVE SMOOTH",
"280 589 OFFCURVE",
"325 582 OFFCURVE",
"356 557 OFFCURVE",
"369 511 OFFCURVE",
"364 472 QCURVE SMOOTH",
"313 115 LINE SMOOTH"
);
},
{
closed = 1;
nodes = (
"336 718 QCURVE SMOOTH",
"352 718 OFFCURVE",
"354 734 QCURVE",
"356 741 OFFCURVE",
"348 750 OFFCURVE",
"341 750 QCURVE SMOOTH",
"326 750 OFFCURVE",
"322 734 QCURVE SMOOTH",
"320 718 OFFCURVE"
);
},
{
closed = 1;
nodes = (
"240 718 QCURVE SMOOTH",
"256 718 OFFCURVE",
"258 734 QCURVE",
"260 741 OFFCURVE",
"252 750 OFFCURVE",
"245 750 QCURVE SMOOTH",
"230 750 OFFCURVE",
"226 734 QCURVE SMOOTH",
"224 718 OFFCURVE"
);
}
);
width = 428;
}
);
leftKerningGroup = O;
note = Odieresis;
rightKerningGroup = O;
unicode = 00D6;
},
{
color = 11;
glyphname = Ograve;
lastChange = "2021-11-24 16:17:35 +0000";
layers = (
{
layerId = "9AA098C0-EDBC-463F-BC21-AFCD07A070D0";
paths = (
{
closed = 1;
nodes = (
"381 512 OFFCURVE",
"368 563 OFFCURVE",
"335 590 OFFCURVE",
"286 599 OFFCURVE",
"257 599 QCURVE SMOOTH",
"228 599 OFFCURVE",
"176 591 OFFCURVE",
"136 564 OFFCURVE",
"108 512 OFFCURVE",
"102 469 QCURVE SMOOTH",
"53 118 LINE SMOOTH",
"47 75 OFFCURVE",
"60 24 OFFCURVE",
"93 -3 OFFCURVE",
"141 -12 OFFCURVE",
"170 -12 QCURVE SMOOTH",
"200 -12 OFFCURVE",
"251 -4 OFFCURVE",
"292 23 OFFCURVE",
"320 74 OFFCURVE",
"326 118 QCURVE SMOOTH",
"375 469 LINE SMOOTH"
);
},
{
closed = 1;
nodes = (
"308 76 OFFCURVE",
"282 30 OFFCURVE",
"245 5 OFFCURVE",
"198 -2 OFFCURVE",
"172 -2 QCURVE SMOOTH",
"146 -2 OFFCURVE",
"102 5 OFFCURVE",
"72 30 OFFCURVE",
"59 76 OFFCURVE",
"64 115 QCURVE SMOOTH",
"115 472 LINE SMOOTH",
"120 511 OFFCURVE",
"146 557 OFFCURVE",
"183 582 OFFCURVE",
"229 589 OFFCURVE",
"255 589 QCURVE SMOOTH",
"280 589 OFFCURVE",
"325 582 OFFCURVE",
"356 557 OFFCURVE",
"369 511 OFFCURVE",
"364 472 QCURVE SMOOTH",
"313 115 LINE SMOOTH"
);
},
{
closed = 1;
nodes = (
"287 664 LINE",
"237 750 LINE",
"215 750 LINE",
"276 664 LINE"
);
}
);
userData = {
assembly = "SVTCA[0]	/* SetFreedomAndProjectionVectorToAxis */\012PUSHW[ ]	/* 4 values pushed */\01245 3 47 4 \012CALL[ ]	/* CallFunction */\012IUP[0]	/* InterpolateUntPts */\012IUP[1]	/* InterpolateUntPts */";
};
width = 428;
}
);
leftKerningGroup = O;
note = Ograve;
rightKerningGroup = O;
unicode = 00D2;
},
{
color = 11;
glyphname = Omacron;
lastChange = "2021-11-24 16:17:35 +0000";
layers = (
{
layerId = "9AA098C0-EDBC-463F-BC21-AFCD07A070D0";
paths = (
{
closed = 1;
nodes = (
"381 512 OFFCURVE",
"368 563 OFFCURVE",
"335 590 OFFCURVE",
"286 599 OFFCURVE",
"257 599 QCURVE SMOOTH",
"228 599 OFFCURVE",
"176 591 OFFCURVE",
"136 564 OFFCURVE",
"108 512 OFFCURVE",
"102 469 QCURVE SMOOTH",
"53 118 LINE SMOOTH",
"47 75 OFFCURVE",
"60 24 OFFCURVE",
"93 -3 OFFCURVE",
"141 -12 OFFCURVE",
"170 -12 QCURVE SMOOTH",
"200 -12 OFFCURVE",
"251 -4 OFFCURVE",
"292 23 OFFCURVE",
"320 74 OFFCURVE",
"326 118 QCURVE SMOOTH",
"375 469 LINE SMOOTH"
);
},
{
closed = 1;
nodes = (
"308 76 OFFCURVE",
"282 30 OFFCURVE",
"245 5 OFFCURVE",
"198 -2 OFFCURVE",
"172 -2 QCURVE SMOOTH",
"146 -2 OFFCURVE",
"102 5 OFFCURVE",
"72 30 OFFCURVE",
"59 76 OFFCURVE",
"64 115 QCURVE SMOOTH",
"115 472 LINE SMOOTH",
"120 511 OFFCURVE",
"146 557 OFFCURVE",
"183 582 OFFCURVE",
"229 589 OFFCURVE",
"255 589 QCURVE SMOOTH",
"280 589 OFFCURVE",
"325 582 OFFCURVE",
"356 557 OFFCURVE",
"369 511 OFFCURVE",
"364 472 QCURVE SMOOTH",
"313 115 LINE SMOOTH"
);
},
{
closed = 1;
nodes = (
"362 685 LINE",
"363 694 LINE",
"162 694 LINE",
"161 685 LINE"
);
}
);
width = 428;
}
);
leftKerningGroup = O;
note = Omacron;
rightKerningGroup = O;
unicode = 014C;
},
{
color = 6;
glyphname = Oslash;
lastChange = "2021-11-24 16:17:35 +0000";
layers = (
{
layerId = "9AA098C0-EDBC-463F-BC21-AFCD07A070D0";
paths = (
{
closed = 1;
nodes = (
"64 -46 LINE",
"109 25 LINE",
"124 2 OFFCURVE",
"180 -12 OFFCURVE",
"215 -12 QCURVE SMOOTH",
"245 -12 OFFCURVE",
"297 -4 OFFCURVE",
"337 23 OFFCURVE",
"366 74 OFFCURVE",
"372 118 QCURVE SMOOTH",
"421 469 LINE SMOOTH",
"424 491 OFFCURVE",
"424 510 QCURVE",
"438 533 OFFCURVE",
"468 580 OFFCURVE",
"485 604 QCURVE",
"472 604 LINE",
"422 527 LINE",
"419 550 OFFCURVE",
"398 579 OFFCURVE",
"367 594 OFFCURVE",
"326 599 OFFCURVE",
"303 599 QCURVE SMOOTH",
"274 599 OFFCURVE",
"222 591 OFFCURVE",
"182 564 OFFCURVE",
"154 512 OFFCURVE",
"148 469 QCURVE SMOOTH",
"99 118 LINE SMOOTH",
"90 66 OFFCURVE",
"103 36 QCURVE",
"50 -46 LINE"
);
},
{
closed = 1;
nodes = (
"166 511 OFFCURVE",
"192 557 OFFCURVE",
"229 582 OFFCURVE",
"275 589 OFFCURVE",
"301 589 QCURVE SMOOTH",
"323 589 OFFCURVE",
"362 584 OFFCURVE",
"392 567 OFFCURVE",
"410 536 OFFCURVE",
"412 511 QCURVE",
"111 49 LINE",
"104 72 OFFCURVE",
"110 114 QCURVE SMOOTH",
"160 472 LINE SMOOTH"
);
},
{
closed = 1;
nodes = (
"353 75 OFFCURVE",
"328 29 OFFCURVE",
"291 4 OFFCURVE",
"244 -3 OFFCURVE",
"218 -3 QCURVE SMOOTH",
"183 -3 OFFCURVE",
"129 11 OFFCURVE",
"117 36 QCURVE",
"193 154 OFFCURVE",
"335 375 OFFCURVE",
"411 491 QCURVE",
"410 486 OFFCURVE",
"410 477 OFFCURVE",
"409 472 QCURVE SMOOTH",
"359 114 LINE SMOOTH"
);
}
);
width = 537;
}
);
leftKerningGroup = O;
note = Oslash;
rightKerningGroup = O;
unicode = 00D8;
},
{
color = 11;
glyphname = Otilde;
lastChange = "2021-11-24 16:17:35 +0000";
layers = (
{
layerId = "9AA098C0-EDBC-463F-BC21-AFCD07A070D0";
paths = (
{
closed = 1;
nodes = (
"381 512 OFFCURVE",
"368 563 OFFCURVE",
"335 590 OFFCURVE",
"286 599 OFFCURVE",
"257 599 QCURVE SMOOTH",
"228 599 OFFCURVE",
"176 591 OFFCURVE",
"136 564 OFFCURVE",
"108 512 OFFCURVE",
"102 469 QCURVE SMOOTH",
"53 118 LINE SMOOTH",
"47 75 OFFCURVE",
"60 24 OFFCURVE",
"93 -3 OFFCURVE",
"141 -12 OFFCURVE",
"170 -12 QCURVE SMOOTH",
"200 -12 OFFCURVE",
"251 -4 OFFCURVE",
"292 23 OFFCURVE",
"320 74 OFFCURVE",
"326 118 QCURVE SMOOTH",
"375 469 LINE SMOOTH"
);
},
{
closed = 1;
nodes = (
"308 76 OFFCURVE",
"282 30 OFFCURVE",
"245 5 OFFCURVE",
"198 -2 OFFCURVE",
"172 -2 QCURVE SMOOTH",
"146 -2 OFFCURVE",
"102 5 OFFCURVE",
"72 30 OFFCURVE",
"59 76 OFFCURVE",
"64 115 QCURVE SMOOTH",
"115 472 LINE SMOOTH",
"120 511 OFFCURVE",
"146 557 OFFCURVE",
"183 582 OFFCURVE",
"229 589 OFFCURVE",
"255 589 QCURVE SMOOTH",
"280 589 OFFCURVE",
"325 582 OFFCURVE",
"356 557 OFFCURVE",
"369 511 OFFCURVE",
"364 472 QCURVE SMOOTH",
"313 115 LINE SMOOTH"
);
},
{
closed = 1;
nodes = (
"385 728 OFFCURVE",
"390 748 QCURVE",
"381 748 LINE",
"375 724 OFFCURVE",
"345 709 OFFCURVE",
"327 709 QCURVE SMOOTH",
"312 709 OFFCURVE",
"287 722 OFFCURVE",
"264 737 OFFCURVE",
"240 750 OFFCURVE",
"225 750 QCURVE SMOOTH",
"199 750 OFFCURVE",
"166 724 OFFCURVE",
"160 704 QCURVE",
"170 704 LINE",
"176 727 OFFCURVE",
"205 742 OFFCURVE",
"223 742 QCURVE SMOOTH",
"235 742 OFFCURVE",
"257 731 OFFCURVE",
"265 725 QCURVE SMOOTH",
"302 700 OFFCURVE",
"326 700 QCURVE SMOOTH",
"351 700 OFFCURVE"
);
}
);
width = 440;
}
);
leftKerningGroup = O;
note = Otilde;
rightKerningGroup = O;
unicode = 00D5;
},
{
color = 6;
glyphname = OE;
lastChange = "2021-11-24 16:17:35 +0000";
layers = (
{
layerId = "9AA098C0-EDBC-463F-BC21-AFCD07A070D0";
paths = (
{
closed = 1;
nodes = (
"538 0 LINE",
"540 11 LINE",
"311 11 LINE",
"352 306 LINE",
"530 306 LINE",
"532 317 LINE",
"354 317 LINE",
"391 580 LINE",
"620 580 LINE",
"621 591 LINE",
"380 591 LINE",
"373 541 LINE",
"362 578 OFFCURVE",
"300 599 OFFCURVE",
"257 599 QCURVE SMOOTH",
"228 599 OFFCURVE",
"176 591 OFFCURVE",
"136 564 OFFCURVE",
"108 512 OFFCURVE",
"102 469 QCURVE SMOOTH",
"53 118 LINE SMOOTH",
"47 75 OFFCURVE",
"60 24 OFFCURVE",
"93 -3 OFFCURVE",
"141 -12 OFFCURVE",
"170 -12 QCURVE SMOOTH",
"214 -12 OFFCURVE",
"283 8 OFFCURVE",
"304 45 QCURVE",
"297 0 LINE"
);
},
{
closed = 1;
nodes = (
"307 70 OFFCURVE",
"281 26 OFFCURVE",
"244 4 OFFCURVE",
"197 -3 OFFCURVE",
"172 -3 QCURVE SMOOTH",
"146 -3 OFFCURVE",
"102 4 OFFCURVE",
"72 29 OFFCURVE",
"59 75 OFFCURVE",
"64 114 QCURVE SMOOTH",
"115 472 LINE SMOOTH",
"120 511 OFFCURVE",
"146 557 OFFCURVE",
"183 582 OFFCURVE",
"229 589 OFFCURVE",
"255 589 QCURVE SMOOTH",
"280 589 OFFCURVE",
"325 582 OFFCURVE",
"356 557 OFFCURVE",
"369 511 OFFCURVE",
"364 472 QCURVE SMOOTH",
"312 106 LINE SMOOTH"
);
}
);
width = 663;
}
);
leftKerningGroup = O;
note = OE;
rightKerningGroup = E;
unicode = 0152;
},
{
color = 6;
glyphname = P;
lastChange = "2021-11-24 16:17:35 +0000";
layers = (
{
layerId = "9AA098C0-EDBC-463F-BC21-AFCD07A070D0";
paths = (
{
closed = 1;
nodes = (
"222 271 OFFCURVE",
"281 287 OFFCURVE",
"317 323 OFFCURVE",
"335 379 OFFCURVE",
"341 418 QCURVE SMOOTH",
"352 494 LINE SMOOTH",
"359 549 OFFCURVE",
"305 591 OFFCURVE",
"246 591 QCURVE SMOOTH",
"98 591 LINE",
"15 0 LINE",
"27 0 LINE",
"65 271 LINE",
"176 271 LINE SMOOTH"
);
},
{
closed = 1;
nodes = (
"243 580 LINE SMOOTH",
"275 580 OFFCURVE",
"316 570 OFFCURVE",
"337 546 OFFCURVE",
"341 506 OFFCURVE",
"337 476 QCURVE SMOOTH",
"329 417 LINE SMOOTH",
"324 379 OFFCURVE",
"306 327 OFFCURVE",
"272 295 OFFCURVE",
"218 282 OFFCURVE",
"177 282 QCURVE SMOOTH",
"66 282 LINE",
"108 580 LINE"
);
}
);
userData = {
assembly = "SVTCA[0]	/* SetFreedomAndProjectionVectorToAxis */\012PUSHW[ ]	/* 1 value pushed */\0120 \012RCVT[ ]	/* ReadCVT */\012IF[ ]	/* If */\012PUSHW[ ]	/* 1 value pushed */\0121 \012MDAP[1]	/* MoveDirectAbsPt */\012ELSE[ ]	/* Else */\012PUSHW[ ]	/* 2 values pushed */\0121 5 \012MIAP[0]	/* MoveIndirectAbsPt */\012EIF[ ]	/* EndIf */\012IUP[0]	/* InterpolateUntPts */\012IUP[1]	/* InterpolateUntPts */";
};
width = 344;
}
);
leftKerningGroup = H;
leftMetricsKey = H;
note = P;
rightKerningGroup = P;
unicode = 0050;
},
{
color = 6;
glyphname = Thorn;
lastChange = "2021-11-24 01:00:13 +0000";
layers = (
{
layerId = "9AA098C0-EDBC-463F-BC21-AFCD07A070D0";
paths = (
{
closed = 1;
nodes = (
"254 151 OFFCURVE",
"303 172 OFFCURVE",
"335 205 OFFCURVE",
"352 248 OFFCURVE",
"355 270 QCURVE SMOOTH",
"370 374 LINE SMOOTH",
"374 401 OFFCURVE",
"362 438 OFFCURVE",
"336 461 OFFCURVE",
"299 471 OFFCURVE",
"278 471 QCURVE SMOOTH",
"128 471 LINE",
"145 591 LINE",
"133 591 LINE",
"50 0 LINE",
"62 0 LINE",
"83 151 LINE",
"219 151 LINE SMOOTH"
);
},
{
closed = 1;
nodes = (
"284 460 LINE SMOOTH",
"318 460 OFFCURVE",
"364 419 OFFCURVE",
"358 376 QCURVE SMOOTH",
"343 265 LINE SMOOTH",
"335 214 OFFCURVE",
"269 162 OFFCURVE",
"220 162 QCURVE SMOOTH",
"84 162 LINE",
"126 460 LINE"
);
}
);
userData = {
assembly = "SVTCA[0]	/* SetFreedomAndProjectionVectorToAxis */\012PUSHW[ ]	/* 1 value pushed */\0120 \012RCVT[ ]	/* ReadCVT */\012IF[ ]	/* If */\012PUSHW[ ]	/* 1 value pushed */\0121 \012MDAP[1]	/* MoveDirectAbsPt */\012ELSE[ ]	/* Else */\012PUSHW[ ]	/* 2 values pushed */\0121 5 \012MIAP[0]	/* MoveIndirectAbsPt */\012EIF[ ]	/* EndIf */\012IUP[0]	/* InterpolateUntPts */\012IUP[1]	/* InterpolateUntPts */";
};
width = 422;
}
);
note = Thorn;
unicode = 00DE;
},
{
color = 6;
glyphname = Q;
lastChange = "2021-11-24 16:17:35 +0000";
layers = (
{
layerId = "9AA098C0-EDBC-463F-BC21-AFCD07A070D0";
paths = (
{
closed = 1;
nodes = (
"355 512 OFFCURVE",
"342 563 OFFCURVE",
"309 590 OFFCURVE",
"260 599 OFFCURVE",
"231 599 QCURVE SMOOTH",
"202 599 OFFCURVE",
"150 591 OFFCURVE",
"110 564 OFFCURVE",
"82 512 OFFCURVE",
"76 469 QCURVE SMOOTH",
"26 118 LINE SMOOTH",
"20 75 OFFCURVE",
"33 24 OFFCURVE",
"66 -3 OFFCURVE",
"114 -12 OFFCURVE",
"143 -12 QCURVE SMOOTH",
"157 -12 OFFCURVE",
"184 -10 OFFCURVE",
"198 -8 QCURVE",
"243 -109 LINE",
"253 -103 LINE",
"209 -6 LINE",
"244 2 OFFCURVE",
"291 57 OFFCURVE",
"299 118 QCURVE SMOOTH",
"349 469 LINE SMOOTH"
);
},
{
closed = 1;
nodes = (
"281 75 OFFCURVE",
"255 29 OFFCURVE",
"218 4 OFFCURVE",
"171 -3 OFFCURVE",
"145 -3 QCURVE SMOOTH",
"119 -3 OFFCURVE",
"75 4 OFFCURVE",
"45 29 OFFCURVE",
"32 75 OFFCURVE",
"38 114 QCURVE SMOOTH",
"88 472 LINE SMOOTH",
"94 511 OFFCURVE",
"120 557 OFFCURVE",
"157 582 OFFCURVE",
"203 589 OFFCURVE",
"229 589 QCURVE SMOOTH",
"254 589 OFFCURVE",
"299 582 OFFCURVE",
"329 557 OFFCURVE",
"343 511 OFFCURVE",
"337 472 QCURVE SMOOTH",
"287 114 LINE SMOOTH"
);
}
);
userData = {
assembly = "PUSHW[ ]	/* 4 values pushed */\01225 4 6 4 \012CALL[ ]	/* CallFunction */\012PUSHW[ ]	/* 1 value pushed */\01225 \012SRP0[ ]	/* SetRefPoint0 */\012PUSHW[ ]	/* 1 value pushed */\01249 \012MDRP[11100]	/* MoveDirectRelPt */\012SVTCA[0]	/* SetFreedomAndProjectionVectorToAxis */\012PUSHW[ ]	/* 1 value pushed */\0120 \012RCVT[ ]	/* ReadCVT */\012IF[ ]	/* If */\012PUSHW[ ]	/* 1 value pushed */\0123 \012MDAP[1]	/* MoveDirectAbsPt */\012ELSE[ ]	/* Else */\012PUSHW[ ]	/* 2 values pushed */\0123 5 \012MIAP[0]	/* MoveIndirectAbsPt */\012EIF[ ]	/* EndIf */\012PUSHW[ ]	/* 1 value pushed */\0120 \012RCVT[ ]	/* ReadCVT */\012IF[ ]	/* If */\012PUSHW[ ]	/* 1 value pushed */\0126 \012MDAP[1]	/* MoveDirectAbsPt */\012ELSE[ ]	/* Else */\012PUSHW[ ]	/* 2 values pushed */\0126 5 \012MIAP[0]	/* MoveIndirectAbsPt */\012EIF[ ]	/* EndIf */\012PUSHW[ ]	/* 1 value pushed */\0120 \012RCVT[ ]	/* ReadCVT */\012IF[ ]	/* If */\012PUSHW[ ]	/* 1 value pushed */\01242 \012MDAP[1]	/* MoveDirectAbsPt */\012ELSE[ ]	/* Else */\012PUSHW[ ]	/* 2 values pushed */\01242 5 \012MIAP[0]	/* MoveIndirectAbsPt */\012EIF[ ]	/* EndIf */\012IUP[0]	/* InterpolateUntPts */\012IUP[1]	/* InterpolateUntPts */";
};
width = 362;
}
);
leftKerningGroup = O;
leftMetricsKey = O;
note = Q;
rightKerningGroup = O;
rightMetricsKey = O;
unicode = 0051;
},
{
color = 6;
glyphname = R;
lastChange = "2021-11-24 16:17:35 +0000";
layers = (
{
layerId = "9AA098C0-EDBC-463F-BC21-AFCD07A070D0";
paths = (
{
closed = 1;
nodes = (
"218 292 OFFCURVE",
"251 244 OFFCURVE",
"257 205 QCURVE SMOOTH",
"290 0 LINE",
"304 0 LINE",
"266 224 LINE SMOOTH",
"261 248 OFFCURVE",
"234 294 OFFCURVE",
"210 296 QCURVE",
"234 296 OFFCURVE",
"277 309 OFFCURVE",
"312 336 OFFCURVE",
"336 380 OFFCURVE",
"340 411 QCURVE SMOOTH",
"352 494 LINE SMOOTH",
"356 521 OFFCURVE",
"344 558 OFFCURVE",
"318 581 OFFCURVE",
"281 591 OFFCURVE",
"260 591 QCURVE SMOOTH",
"98 591 LINE",
"15 0 LINE",
"27 0 LINE",
"68 292 LINE",
"187 292 LINE SMOOTH"
);
},
{
closed = 1;
nodes = (
"266 580 LINE SMOOTH",
"300 580 OFFCURVE",
"346 539 OFFCURVE",
"340 496 QCURVE SMOOTH",
"328 409 LINE SMOOTH",
"324 380 OFFCURVE",
"300 339 OFFCURVE",
"265 314 OFFCURVE",
"219 303 OFFCURVE",
"194 303 QCURVE SMOOTH",
"69 303 LINE",
"108 580 LINE"
);
}
);
userData = {
assembly = "SVTCA[0]	/* SetFreedomAndProjectionVectorToAxis */\012PUSHW[ ]	/* 1 value pushed */\0120 \012RCVT[ ]	/* ReadCVT */\012IF[ ]	/* If */\012PUSHW[ ]	/* 1 value pushed */\0121 \012MDAP[1]	/* MoveDirectAbsPt */\012ELSE[ ]	/* Else */\012PUSHW[ ]	/* 2 values pushed */\0121 5 \012MIAP[0]	/* MoveIndirectAbsPt */\012EIF[ ]	/* EndIf */\012PUSHW[ ]	/* 1 value pushed */\0120 \012RCVT[ ]	/* ReadCVT */\012IF[ ]	/* If */\012PUSHW[ ]	/* 1 value pushed */\01219 \012MDAP[1]	/* MoveDirectAbsPt */\012ELSE[ ]	/* Else */\012PUSHW[ ]	/* 2 values pushed */\01219 5 \012MIAP[0]	/* MoveIndirectAbsPt */\012EIF[ ]	/* EndIf */\012PUSHW[ ]	/* 4 values pushed */\01215 1 18 4 \012CALL[ ]	/* CallFunction */\012PUSHW[ ]	/* 1 value pushed */\01215 \012SRP0[ ]	/* SetRefPoint0 */\012PUSHW[ ]	/* 1 value pushed */\0120 \012MDRP[10000]	/* MoveDirectRelPt */\012PUSHW[ ]	/* 1 value pushed */\0120 \012MDAP[1]	/* MoveDirectAbsPt */\012PUSHW[ ]	/* 1 value pushed */\01215 \012SRP0[ ]	/* SetRefPoint0 */\012PUSHW[ ]	/* 1 value pushed */\01225 \012MDRP[10000]	/* MoveDirectRelPt */\012PUSHW[ ]	/* 1 value pushed */\01225 \012MDAP[1]	/* MoveDirectAbsPt */\012IUP[0]	/* InterpolateUntPts */\012IUP[1]	/* InterpolateUntPts */";
};
width = 355;
}
);
leftKerningGroup = H;
leftMetricsKey = H;
note = R;
rightKerningGroup = R;
unicode = 0052;
},
{
color = 11;
glyphname = Racute;
lastChange = "2021-11-24 16:17:35 +0000";
layers = (
{
layerId = "9AA098C0-EDBC-463F-BC21-AFCD07A070D0";
paths = (
{
closed = 1;
nodes = (
"253 292 OFFCURVE",
"286 244 OFFCURVE",
"292 205 QCURVE SMOOTH",
"325 0 LINE",
"339 0 LINE",
"301 224 LINE SMOOTH",
"296 248 OFFCURVE",
"269 294 OFFCURVE",
"245 296 QCURVE",
"269 296 OFFCURVE",
"312 309 OFFCURVE",
"347 336 OFFCURVE",
"371 380 OFFCURVE",
"375 411 QCURVE SMOOTH",
"387 494 LINE SMOOTH",
"391 521 OFFCURVE",
"379 558 OFFCURVE",
"353 581 OFFCURVE",
"316 591 OFFCURVE",
"295 591 QCURVE SMOOTH",
"133 591 LINE",
"50 0 LINE",
"62 0 LINE",
"103 292 LINE",
"222 292 LINE SMOOTH"
);
},
{
closed = 1;
nodes = (
"301 580 LINE SMOOTH",
"335 580 OFFCURVE",
"381 539 OFFCURVE",
"375 496 QCURVE SMOOTH",
"363 409 LINE SMOOTH",
"359 380 OFFCURVE",
"335 339 OFFCURVE",
"300 314 OFFCURVE",
"254 303 OFFCURVE",
"229 303 QCURVE SMOOTH",
"104 303 LINE",
"143 580 LINE"
);
},
{
closed = 1;
nodes = (
"299 716 LINE",
"225 630 LINE",
"236 630 LINE",
"321 716 LINE"
);
}
);
userData = {
assembly = "SVTCA[0]	/* SetFreedomAndProjectionVectorToAxis */\012PUSHW[ ]	/* 1 value pushed */\0120 \012RCVT[ ]	/* ReadCVT */\012IF[ ]	/* If */\012PUSHW[ ]	/* 1 value pushed */\0121 \012MDAP[1]	/* MoveDirectAbsPt */\012ELSE[ ]	/* Else */\012PUSHW[ ]	/* 2 values pushed */\0121 5 \012MIAP[0]	/* MoveIndirectAbsPt */\012EIF[ ]	/* EndIf */\012PUSHW[ ]	/* 1 value pushed */\0120 \012RCVT[ ]	/* ReadCVT */\012IF[ ]	/* If */\012PUSHW[ ]	/* 1 value pushed */\01219 \012MDAP[1]	/* MoveDirectAbsPt */\012ELSE[ ]	/* Else */\012PUSHW[ ]	/* 2 values pushed */\01219 5 \012MIAP[0]	/* MoveIndirectAbsPt */\012EIF[ ]	/* EndIf */\012PUSHW[ ]	/* 4 values pushed */\01239 3 37 4 \012CALL[ ]	/* CallFunction */\012PUSHW[ ]	/* 4 values pushed */\01215 1 18 4 \012CALL[ ]	/* CallFunction */\012PUSHW[ ]	/* 1 value pushed */\01215 \012SRP0[ ]	/* SetRefPoint0 */\012PUSHW[ ]	/* 1 value pushed */\0120 \012MDRP[10000]	/* MoveDirectRelPt */\012PUSHW[ ]	/* 1 value pushed */\0120 \012MDAP[1]	/* MoveDirectAbsPt */\012PUSHW[ ]	/* 1 value pushed */\01215 \012SRP0[ ]	/* SetRefPoint0 */\012PUSHW[ ]	/* 1 value pushed */\01225 \012MDRP[10000]	/* MoveDirectRelPt */\012PUSHW[ ]	/* 1 value pushed */\01225 \012MDAP[1]	/* MoveDirectAbsPt */\012IUP[0]	/* InterpolateUntPts */\012IUP[1]	/* InterpolateUntPts */";
};
width = 440;
}
);
leftKerningGroup = H;
note = Racute;
rightKerningGroup = R;
unicode = 0154;
},
{
color = 11;
glyphname = Rcaron;
lastChange = "2021-11-24 16:17:35 +0000";
layers = (
{
layerId = "9AA098C0-EDBC-463F-BC21-AFCD07A070D0";
paths = (
{
closed = 1;
nodes = (
"253 292 OFFCURVE",
"286 244 OFFCURVE",
"292 205 QCURVE SMOOTH",
"325 0 LINE",
"339 0 LINE",
"301 224 LINE SMOOTH",
"296 248 OFFCURVE",
"269 294 OFFCURVE",
"245 296 QCURVE",
"269 296 OFFCURVE",
"312 309 OFFCURVE",
"347 336 OFFCURVE",
"371 380 OFFCURVE",
"375 411 QCURVE SMOOTH",
"387 494 LINE SMOOTH",
"391 521 OFFCURVE",
"379 558 OFFCURVE",
"353 581 OFFCURVE",
"316 591 OFFCURVE",
"295 591 QCURVE SMOOTH",
"133 591 LINE",
"50 0 LINE",
"62 0 LINE",
"103 292 LINE",
"222 292 LINE SMOOTH"
);
},
{
closed = 1;
nodes = (
"301 580 LINE SMOOTH",
"335 580 OFFCURVE",
"381 539 OFFCURVE",
"375 496 QCURVE SMOOTH",
"363 409 LINE SMOOTH",
"359 380 OFFCURVE",
"335 339 OFFCURVE",
"300 314 OFFCURVE",
"254 303 OFFCURVE",
"229 303 QCURVE SMOOTH",
"104 303 LINE",
"143 580 LINE"
);
},
{
closed = 1;
nodes = (
"297 653 OFFCURVE",
"351 700 OFFCURVE",
"376 724 QCURVE",
"363 724 LINE",
"266 637 LINE",
"194 724 LINE",
"180 724 LINE",
"197 703 OFFCURVE",
"221 674 OFFCURVE",
"238 653 OFFCURVE",
"250 637 OFFCURVE",
"256 630 QCURVE",
"272 630 LINE"
);
}
);
userData = {
assembly = "PUSHW[ ]	/* 4 values pushed */\01246 4 37 4 \012CALL[ ]	/* CallFunction */\012PUSHW[ ]	/* 1 value pushed */\01246 \012SRP0[ ]	/* SetRefPoint0 */\012PUSHW[ ]	/* 1 value pushed */\01210 \012MDRP[10000]	/* MoveDirectRelPt */\012PUSHW[ ]	/* 1 value pushed */\01210 \012MDAP[1]	/* MoveDirectAbsPt */\012PUSHW[ ]	/* 1 value pushed */\01246 \012SRP0[ ]	/* SetRefPoint0 */\012PUSHW[ ]	/* 1 value pushed */\01232 \012MDRP[10000]	/* MoveDirectRelPt */\012PUSHW[ ]	/* 1 value pushed */\01232 \012MDAP[1]	/* MoveDirectAbsPt */\012PUSHW[ ]	/* 1 value pushed */\01246 \012SRP0[ ]	/* SetRefPoint0 */\012PUSHW[ ]	/* 1 value pushed */\01251 \012MDRP[11100]	/* MoveDirectRelPt */\012SVTCA[0]	/* SetFreedomAndProjectionVectorToAxis */\012PUSHW[ ]	/* 1 value pushed */\0120 \012RCVT[ ]	/* ReadCVT */\012IF[ ]	/* If */\012PUSHW[ ]	/* 1 value pushed */\0121 \012MDAP[1]	/* MoveDirectAbsPt */\012ELSE[ ]	/* Else */\012PUSHW[ ]	/* 2 values pushed */\0121 5 \012MIAP[0]	/* MoveIndirectAbsPt */\012EIF[ ]	/* EndIf */\012PUSHW[ ]	/* 1 value pushed */\0120 \012RCVT[ ]	/* ReadCVT */\012IF[ ]	/* If */\012PUSHW[ ]	/* 1 value pushed */\01219 \012MDAP[1]	/* MoveDirectAbsPt */\012ELSE[ ]	/* Else */\012PUSHW[ ]	/* 2 values pushed */\01219 5 \012MIAP[0]	/* MoveIndirectAbsPt */\012EIF[ ]	/* EndIf */\012PUSHW[ ]	/* 4 values pushed */\01243 3 37 4 \012CALL[ ]	/* CallFunction */\012PUSHW[ ]	/* 4 values pushed */\01215 1 18 4 \012CALL[ ]	/* CallFunction */\012PUSHW[ ]	/* 1 value pushed */\01215 \012SRP0[ ]	/* SetRefPoint0 */\012PUSHW[ ]	/* 1 value pushed */\0120 \012MDRP[10000]	/* MoveDirectRelPt */\012PUSHW[ ]	/* 1 value pushed */\0120 \012MDAP[1]	/* MoveDirectAbsPt */\012PUSHW[ ]	/* 1 value pushed */\01215 \012SRP0[ ]	/* SetRefPoint0 */\012PUSHW[ ]	/* 1 value pushed */\01225 \012MDRP[10000]	/* MoveDirectRelPt */\012PUSHW[ ]	/* 1 value pushed */\01225 \012MDAP[1]	/* MoveDirectAbsPt */\012PUSHW[ ]	/* 1 value pushed */\01243 \012SRP0[ ]	/* SetRefPoint0 */\012PUSHW[ ]	/* 1 value pushed */\01245 \012MDRP[10000]	/* MoveDirectRelPt */\012IUP[0]	/* InterpolateUntPts */\012IUP[1]	/* InterpolateUntPts */";
};
width = 440;
}
);
leftKerningGroup = H;
note = Rcaron;
rightKerningGroup = R;
unicode = 0158;
},
{
color = 6;
glyphname = S;
lastChange = "2021-11-24 16:17:35 +0000";
layers = (
{
layerId = "9AA098C0-EDBC-463F-BC21-AFCD07A070D0";
paths = (
{
closed = 1;
nodes = (
"319 469 LINE SMOOTH",
"327 529 OFFCURVE",
"270 595 OFFCURVE",
"210 595 QCURVE SMOOTH",
"141 595 OFFCURVE",
"72 520 OFFCURVE",
"62 448 QCURVE SMOOTH",
"57 413 OFFCURVE",
"70 364 OFFCURVE",
"98 329 OFFCURVE",
"137 307 OFFCURVE",
"159 298 QCURVE SMOOTH",
"187 287 OFFCURVE",
"232 266 OFFCURVE",
"261 234 OFFCURVE",
"273 185 OFFCURVE",
"267 146 QCURVE SMOOTH",
"261 105 OFFCURVE",
"235 51 OFFCURVE",
"197 17 OFFCURVE",
"149 3 OFFCURVE",
"123 3 QCURVE SMOOTH",
"97 3 OFFCURVE",
"57 18 OFFCURVE",
"32 54 OFFCURVE",
"24 116 OFFCURVE",
"31 163 QCURVE SMOOTH",
"32 175 LINE",
"20 175 LINE",
"19 163 LINE SMOOTH",
"12 114 OFFCURVE",
"21 48 OFFCURVE",
"48 8 OFFCURVE",
"93 -9 OFFCURVE",
"122 -9 QCURVE SMOOTH",
"151 -9 OFFCURVE",
"203 7 OFFCURVE",
"244 44 OFFCURVE",
"273 103 OFFCURVE",
"279 146 QCURVE SMOOTH",
"285 188 OFFCURVE",
"272 243 OFFCURVE",
"255 260 QCURVE SMOOTH",
"239 276 OFFCURVE",
"198 297 OFFCURVE",
"154 314 OFFCURVE",
"113 334 OFFCURVE",
"83 365 OFFCURVE",
"69 412 OFFCURVE",
"74 448 QCURVE SMOOTH",
"84 517 OFFCURVE",
"147 583 OFFCURVE",
"209 583 QCURVE SMOOTH",
"263 583 OFFCURVE",
"315 523 OFFCURVE",
"307 469 QCURVE SMOOTH",
"301 429 LINE",
"313 429 LINE"
);
}
);
width = 325;
}
);
leftKerningGroup = S;
note = S;
rightKerningGroup = S;
unicode = 0053;
},
{
color = 11;
glyphname = Sacute;
lastChange = "2021-11-24 16:17:35 +0000";
layers = (
{
layerId = "9AA098C0-EDBC-463F-BC21-AFCD07A070D0";
paths = (
{
closed = 1;
nodes = (
"354 469 LINE SMOOTH",
"362 529 OFFCURVE",
"305 595 OFFCURVE",
"245 595 QCURVE SMOOTH",
"176 595 OFFCURVE",
"107 520 OFFCURVE",
"97 448 QCURVE SMOOTH",
"92 413 OFFCURVE",
"105 364 OFFCURVE",
"133 329 OFFCURVE",
"172 307 OFFCURVE",
"194 298 QCURVE SMOOTH",
"222 287 OFFCURVE",
"267 266 OFFCURVE",
"296 234 OFFCURVE",
"308 185 OFFCURVE",
"302 146 QCURVE SMOOTH",
"296 105 OFFCURVE",
"270 51 OFFCURVE",
"232 17 OFFCURVE",
"184 3 OFFCURVE",
"158 3 QCURVE SMOOTH",
"132 3 OFFCURVE",
"92 18 OFFCURVE",
"67 54 OFFCURVE",
"59 116 OFFCURVE",
"66 163 QCURVE SMOOTH",
"67 175 LINE",
"55 175 LINE",
"54 163 LINE SMOOTH",
"47 114 OFFCURVE",
"56 48 OFFCURVE",
"83 8 OFFCURVE",
"128 -9 OFFCURVE",
"157 -9 QCURVE SMOOTH",
"186 -9 OFFCURVE",
"238 7 OFFCURVE",
"279 44 OFFCURVE",
"308 103 OFFCURVE",
"314 146 QCURVE SMOOTH",
"320 188 OFFCURVE",
"307 243 OFFCURVE",
"290 260 QCURVE SMOOTH",
"274 276 OFFCURVE",
"233 297 OFFCURVE",
"189 314 OFFCURVE",
"148 334 OFFCURVE",
"118 365 OFFCURVE",
"104 412 OFFCURVE",
"109 448 QCURVE SMOOTH",
"119 517 OFFCURVE",
"182 583 OFFCURVE",
"244 583 QCURVE SMOOTH",
"298 583 OFFCURVE",
"350 523 OFFCURVE",
"342 469 QCURVE SMOOTH",
"336 429 LINE",
"348 429 LINE"
);
},
{
closed = 1;
nodes = (
"284 716 LINE",
"210 630 LINE",
"221 630 LINE",
"306 716 LINE"
);
}
);
userData = {
assembly = "PUSHW[ ]	/* 4 values pushed */\01256 4 59 4 \012CALL[ ]	/* CallFunction */\012PUSHW[ ]	/* 3 values pushed */\01261 59 56 \012SRP1[ ]	/* SetRefPoint1 */\012SRP2[ ]	/* SetRefPoint2 */\012IP[ ]	/* InterpolatePts */\012PUSHW[ ]	/* 1 value pushed */\01256 \012SRP0[ ]	/* SetRefPoint0 */\012PUSHW[ ]	/* 1 value pushed */\01263 \012MDRP[11100]	/* MoveDirectRelPt */\012SVTCA[0]	/* SetFreedomAndProjectionVectorToAxis */\012PUSHW[ ]	/* 4 values pushed */\01260 3 58 4 \012CALL[ ]	/* CallFunction */\012IUP[0]	/* InterpolateUntPts */\012IUP[1]	/* InterpolateUntPts */";
};
width = 407;
}
);
leftKerningGroup = S;
note = Sacute;
rightKerningGroup = S;
unicode = 015A;
},
{
color = 11;
glyphname = Scaron;
lastChange = "2021-11-24 16:17:35 +0000";
layers = (
{
layerId = "9AA098C0-EDBC-463F-BC21-AFCD07A070D0";
paths = (
{
closed = 1;
nodes = (
"354 469 LINE SMOOTH",
"362 529 OFFCURVE",
"305 595 OFFCURVE",
"245 595 QCURVE SMOOTH",
"176 595 OFFCURVE",
"107 520 OFFCURVE",
"97 448 QCURVE SMOOTH",
"92 413 OFFCURVE",
"105 364 OFFCURVE",
"133 329 OFFCURVE",
"172 307 OFFCURVE",
"194 298 QCURVE SMOOTH",
"222 287 OFFCURVE",
"267 266 OFFCURVE",
"296 234 OFFCURVE",
"308 185 OFFCURVE",
"302 146 QCURVE SMOOTH",
"296 105 OFFCURVE",
"270 51 OFFCURVE",
"232 17 OFFCURVE",
"184 3 OFFCURVE",
"158 3 QCURVE SMOOTH",
"132 3 OFFCURVE",
"92 18 OFFCURVE",
"67 54 OFFCURVE",
"59 116 OFFCURVE",
"66 163 QCURVE SMOOTH",
"67 175 LINE",
"55 175 LINE",
"54 163 LINE SMOOTH",
"47 114 OFFCURVE",
"56 48 OFFCURVE",
"83 8 OFFCURVE",
"128 -9 OFFCURVE",
"157 -9 QCURVE SMOOTH",
"186 -9 OFFCURVE",
"238 7 OFFCURVE",
"279 44 OFFCURVE",
"308 103 OFFCURVE",
"314 146 QCURVE SMOOTH",
"320 188 OFFCURVE",
"307 243 OFFCURVE",
"290 260 QCURVE SMOOTH",
"274 276 OFFCURVE",
"233 297 OFFCURVE",
"189 314 OFFCURVE",
"148 334 OFFCURVE",
"118 365 OFFCURVE",
"104 412 OFFCURVE",
"109 448 QCURVE SMOOTH",
"119 517 OFFCURVE",
"182 583 OFFCURVE",
"244 583 QCURVE SMOOTH",
"298 583 OFFCURVE",
"350 523 OFFCURVE",
"342 469 QCURVE SMOOTH",
"336 429 LINE",
"348 429 LINE"
);
},
{
closed = 1;
nodes = (
"287 679 OFFCURVE",
"341 726 OFFCURVE",
"366 750 QCURVE",
"353 750 LINE",
"256 663 LINE",
"184 750 LINE",
"170 750 LINE",
"187 729 OFFCURVE",
"211 700 OFFCURVE",
"228 679 OFFCURVE",
"240 663 OFFCURVE",
"246 656 QCURVE",
"262 656 LINE"
);
}
);
userData = {
assembly = "SVTCA[0]	/* SetFreedomAndProjectionVectorToAxis */\012PUSHW[ ]	/* 4 values pushed */\01264 3 58 4 \012CALL[ ]	/* CallFunction */\012PUSHW[ ]	/* 1 value pushed */\01264 \012SRP0[ ]	/* SetRefPoint0 */\012PUSHW[ ]	/* 1 value pushed */\01266 \012MDRP[10000]	/* MoveDirectRelPt */\012IUP[0]	/* InterpolateUntPts */\012IUP[1]	/* InterpolateUntPts */";
};
width = 417;
}
);
leftKerningGroup = S;
note = Scaron;
rightKerningGroup = S;
unicode = 0160;
},
{
color = 11;
glyphname = Scedilla;
lastChange = "2021-11-24 16:17:35 +0000";
layers = (
{
layerId = "9AA098C0-EDBC-463F-BC21-AFCD07A070D0";
paths = (
{
closed = 1;
nodes = (
"354 469 LINE SMOOTH",
"362 529 OFFCURVE",
"306 595 OFFCURVE",
"246 595 QCURVE SMOOTH",
"177 595 OFFCURVE",
"108 520 OFFCURVE",
"97 448 QCURVE SMOOTH",
"92 413 OFFCURVE",
"105 364 OFFCURVE",
"133 329 OFFCURVE",
"172 307 OFFCURVE",
"194 298 QCURVE SMOOTH",
"222 287 OFFCURVE",
"268 266 OFFCURVE",
"297 234 OFFCURVE",
"308 185 OFFCURVE",
"303 146 QCURVE SMOOTH",
"297 105 OFFCURVE",
"271 51 OFFCURVE",
"233 17 OFFCURVE",
"185 3 OFFCURVE",
"159 3 QCURVE SMOOTH",
"133 3 OFFCURVE",
"93 18 OFFCURVE",
"68 54 OFFCURVE",
"60 116 OFFCURVE",
"66 163 QCURVE SMOOTH",
"68 175 LINE",
"56 175 LINE",
"54 163 LINE SMOOTH",
"47 114 OFFCURVE",
"56 48 OFFCURVE",
"84 8 OFFCURVE",
"128 -9 OFFCURVE",
"157 -9 QCURVE SMOOTH",
"186 -9 OFFCURVE",
"238 7 OFFCURVE",
"280 44 OFFCURVE",
"309 103 OFFCURVE",
"315 146 QCURVE SMOOTH",
"321 188 OFFCURVE",
"308 243 OFFCURVE",
"291 260 QCURVE SMOOTH",
"275 276 OFFCURVE",
"234 297 OFFCURVE",
"190 314 OFFCURVE",
"149 334 OFFCURVE",
"118 365 OFFCURVE",
"104 412 OFFCURVE",
"109 448 QCURVE SMOOTH",
"119 517 OFFCURVE",
"182 583 OFFCURVE",
"244 583 QCURVE SMOOTH",
"298 583 OFFCURVE",
"350 523 OFFCURVE",
"342 469 QCURVE SMOOTH",
"337 429 LINE",
"349 429 LINE"
);
},
{
closed = 1;
nodes = (
"130 -157 OFFCURVE",
"120 -168 QCURVE",
"125 -169 OFFCURVE",
"132 -167 OFFCURVE",
"138 -161 QCURVE SMOOTH",
"150 -149 OFFCURVE",
"166 -109 OFFCURVE",
"168 -93 QCURVE SMOOTH",
"170 -85 OFFCURVE",
"164 -72 OFFCURVE",
"154 -72 QCURVE SMOOTH",
"145 -72 OFFCURVE",
"135 -82 OFFCURVE",
"134 -90 QCURVE SMOOTH",
"133 -95 OFFCURVE",
"137 -101 OFFCURVE",
"139 -105 QCURVE",
"147 -113 OFFCURVE",
"145 -125 QCURVE SMOOTH",
"143 -139 OFFCURVE"
);
}
);
userData = {
assembly = "PUSHW[ ]	/* 4 values pushed */\0120 4 45 4 \012CALL[ ]	/* CallFunction */\012PUSHW[ ]	/* 1 value pushed */\01245 \012SRP0[ ]	/* SetRefPoint0 */\012PUSHW[ ]	/* 2 values pushed */\01229 4 \012MIRP[10100]	/* MoveIndirectRelPt */\012PUSHW[ ]	/* 3 values pushed */\01275 45 29 \012SRP1[ ]	/* SetRefPoint1 */\012SRP2[ ]	/* SetRefPoint2 */\012IP[ ]	/* InterpolatePts */\012IUP[0]	/* InterpolateUntPts */\012IUP[1]	/* InterpolateUntPts */";
};
width = 407;
}
);
leftKerningGroup = S;
note = Scedilla;
rightKerningGroup = S;
unicode = 015E;
},
{
color = 11;
glyphname = Scircumflex;
lastChange = "2021-11-24 16:17:35 +0000";
layers = (
{
layerId = "9AA098C0-EDBC-463F-BC21-AFCD07A070D0";
paths = (
{
closed = 1;
nodes = (
"354 469 LINE SMOOTH",
"362 529 OFFCURVE",
"305 595 OFFCURVE",
"245 595 QCURVE SMOOTH",
"176 595 OFFCURVE",
"107 520 OFFCURVE",
"97 448 QCURVE SMOOTH",
"92 413 OFFCURVE",
"105 364 OFFCURVE",
"133 329 OFFCURVE",
"172 307 OFFCURVE",
"194 298 QCURVE SMOOTH",
"222 287 OFFCURVE",
"267 266 OFFCURVE",
"296 234 OFFCURVE",
"308 185 OFFCURVE",
"302 146 QCURVE SMOOTH",
"296 105 OFFCURVE",
"270 51 OFFCURVE",
"232 17 OFFCURVE",
"184 3 OFFCURVE",
"158 3 QCURVE SMOOTH",
"132 3 OFFCURVE",
"92 18 OFFCURVE",
"67 54 OFFCURVE",
"59 116 OFFCURVE",
"66 163 QCURVE SMOOTH",
"67 175 LINE",
"55 175 LINE",
"54 163 LINE SMOOTH",
"47 114 OFFCURVE",
"56 48 OFFCURVE",
"83 8 OFFCURVE",
"128 -9 OFFCURVE",
"157 -9 QCURVE SMOOTH",
"186 -9 OFFCURVE",
"238 7 OFFCURVE",
"279 44 OFFCURVE",
"308 103 OFFCURVE",
"314 146 QCURVE SMOOTH",
"320 188 OFFCURVE",
"307 243 OFFCURVE",
"290 260 QCURVE SMOOTH",
"274 276 OFFCURVE",
"233 297 OFFCURVE",
"189 314 OFFCURVE",
"148 334 OFFCURVE",
"118 365 OFFCURVE",
"104 412 OFFCURVE",
"109 448 QCURVE SMOOTH",
"119 517 OFFCURVE",
"182 583 OFFCURVE",
"244 583 QCURVE SMOOTH",
"298 583 OFFCURVE",
"350 523 OFFCURVE",
"342 469 QCURVE SMOOTH",
"336 429 LINE",
"348 429 LINE"
);
},
{
closed = 1;
nodes = (
"232 701 OFFCURVE",
"179 654 OFFCURVE",
"153 630 QCURVE",
"166 630 LINE",
"264 717 LINE",
"335 630 LINE",
"349 630 LINE",
"332 651 OFFCURVE",
"309 680 OFFCURVE",
"292 701 OFFCURVE",
"280 716 OFFCURVE",
"274 724 QCURVE",
"258 724 LINE"
);
}
);
userData = {
assembly = "SVTCA[0]	/* SetFreedomAndProjectionVectorToAxis */\012PUSHW[ ]	/* 4 values pushed */\01258 3 64 4 \012CALL[ ]	/* CallFunction */\012PUSHW[ ]	/* 1 value pushed */\01264 \012SRP0[ ]	/* SetRefPoint0 */\012PUSHW[ ]	/* 1 value pushed */\01266 \012MDRP[10000]	/* MoveDirectRelPt */\012IUP[0]	/* InterpolateUntPts */\012IUP[1]	/* InterpolateUntPts */";
};
width = 407;
}
);
leftKerningGroup = S;
note = Scircumflex;
rightKerningGroup = S;
unicode = 015C;
},
{
color = 6;
glyphname = Germandbls;
lastChange = "2021-11-24 01:00:55 +0000";
layers = (
{
associatedMasterId = "9AA098C0-EDBC-463F-BC21-AFCD07A070D0";
background = {
paths = (
{
closed = 1;
nodes = (
"718 -8 OFFCURVE",
"794 36 OFFCURVE",
"794 171 CURVE SMOOTH",
"794 290 OFFCURVE",
"757 313 OFFCURVE",
"669 345 CURVE SMOOTH",
"626 361 OFFCURVE",
"587 368 OFFCURVE",
"587 427 CURVE SMOOTH",
"587 456 OFFCURVE",
"590 467 OFFCURVE",
"607 467 CURVE SMOOTH",
"628 467 OFFCURVE",
"628 453 OFFCURVE",
"628 399 CURVE SMOOTH",
"628 373 LINE",
"681 373 OFFCURVE",
"734 373 OFFCURVE",
"787 373 CURVE",
"787 449 LINE SMOOTH",
"787 546 OFFCURVE",
"725 593 OFFCURVE",
"605 593 CURVE SMOOTH",
"465 593 OFFCURVE",
"422 548 OFFCURVE",
"422 422 CURVE SMOOTH",
"422 332 OFFCURVE",
"443 279 OFFCURVE",
"518 246 CURVE SMOOTH",
"598 211 OFFCURVE",
"625 211 OFFCURVE",
"625 147 CURVE SMOOTH",
"625 101 OFFCURVE",
"620 92 OFFCURVE",
"605 92 CURVE SMOOTH",
"591 92 OFFCURVE",
"584 101 OFFCURVE",
"584 155 CURVE SMOOTH",
"584 206 LINE",
"528 206 OFFCURVE",
"473 206 OFFCURVE",
"417 206 CURVE",
"417 169 LINE SMOOTH",
"417 26 OFFCURVE",
"480 -8 OFFCURVE",
"599 -8 CURVE SMOOTH"
);
},
{
closed = 1;
nodes = (
"321 -8 OFFCURVE",
"397 36 OFFCURVE",
"397 171 CURVE SMOOTH",
"397 290 OFFCURVE",
"360 313 OFFCURVE",
"272 345 CURVE SMOOTH",
"229 361 OFFCURVE",
"190 368 OFFCURVE",
"190 427 CURVE SMOOTH",
"190 456 OFFCURVE",
"193 467 OFFCURVE",
"210 467 CURVE SMOOTH",
"231 467 OFFCURVE",
"231 453 OFFCURVE",
"231 399 CURVE SMOOTH",
"231 373 LINE",
"284 373 OFFCURVE",
"337 373 OFFCURVE",
"390 373 CURVE",
"390 449 LINE SMOOTH",
"390 546 OFFCURVE",
"328 593 OFFCURVE",
"208 593 CURVE SMOOTH",
"68 593 OFFCURVE",
"25 548 OFFCURVE",
"25 422 CURVE SMOOTH",
"25 332 OFFCURVE",
"46 279 OFFCURVE",
"121 246 CURVE SMOOTH",
"201 211 OFFCURVE",
"228 211 OFFCURVE",
"228 147 CURVE SMOOTH",
"228 101 OFFCURVE",
"223 92 OFFCURVE",
"208 92 CURVE SMOOTH",
"194 92 OFFCURVE",
"187 101 OFFCURVE",
"187 155 CURVE SMOOTH",
"187 206 LINE",
"131 206 OFFCURVE",
"76 206 OFFCURVE",
"20 206 CURVE",
"20 169 LINE SMOOTH",
"20 26 OFFCURVE",
"83 -8 OFFCURVE",
"202 -8 CURVE SMOOTH"
);
}
);
};
layerId = "6ADAA0BD-4310-4C3A-8DC7-22C991837926";
name = Black;
paths = (
{
closed = 1;
nodes = (
"215 -25 LINE",
"214 542 LINE SMOOTH",
"214 556 OFFCURVE",
"221 558 OFFCURVE",
"258 558 CURVE SMOOTH",
"302 558 OFFCURVE",
"302 538 OFFCURVE",
"302 483 CURVE SMOOTH",
"302 435 LINE SMOOTH",
"302 396 OFFCURVE",
"298 373 OFFCURVE",
"276 373 CURVE SMOOTH",
"239 373 LINE",
"238 293 LINE",
"256 293 LINE SMOOTH",
"301 293 OFFCURVE",
"301 270 OFFCURVE",
"301 239 CURVE SMOOTH",
"301 186 LINE SMOOTH",
"301 94 OFFCURVE",
"298 78 OFFCURVE",
"261 78 CURVE SMOOTH",
"241 78 LINE",
"241 0 LINE",
"285 0 LINE SMOOTH",
"398 0 OFFCURVE",
"474 16 OFFCURVE",
"474 121 CURVE SMOOTH",
"474 244 LINE SMOOTH",
"474 303 OFFCURVE",
"419 334 OFFCURVE",
"371 338 CURVE",
"371 342 LINE",
"413 345 OFFCURVE",
"456 382 OFFCURVE",
"456 438 CURVE SMOOTH",
"456 533 LINE SMOOTH",
"456 606 OFFCURVE",
"385 631 OFFCURVE",
"256 631 CURVE SMOOTH",
"89 631 OFFCURVE",
"58 624 OFFCURVE",
"58 584 CURVE",
"58 -25 LINE"
);
}
);
width = 499;
},
{
layerId = "9AA098C0-EDBC-463F-BC21-AFCD07A070D0";
paths = (
{
closed = 1;
nodes = (
"161 525 LINE SMOOTH",
"166 558 OFFCURVE",
"165 583 OFFCURVE",
"273 583 CURVE SMOOTH",
"345 583 OFFCURVE",
"375 558 OFFCURVE",
"366 497 CURVE SMOOTH",
"359 448 LINE SMOOTH",
"351 385 OFFCURVE",
"325 346 OFFCURVE",
"254 346 CURVE SMOOTH",
"200 346 LINE",
"199 336 LINE",
"242 336 LINE SMOOTH",
"302 336 OFFCURVE",
"353 315 OFFCURVE",
"342 239 CURVE SMOOTH",
"326 123 LINE SMOOTH",
"312 24 OFFCURVE",
"269 9 OFFCURVE",
"210 9 CURVE SMOOTH",
"133 9 LINE",
"132 0 LINE",
"209 0 LINE SMOOTH",
"274 0 OFFCURVE",
"321 15 OFFCURVE",
"335 119 CURVE SMOOTH",
"353 244 LINE SMOOTH",
"361 300 OFFCURVE",
"330 334 OFFCURVE",
"285 340 CURVE",
"286 343 LINE",
"329 347 OFFCURVE",
"362 385 OFFCURVE",
"369 441 CURVE SMOOTH",
"377 498 LINE SMOOTH",
"387 570 OFFCURVE",
"350 593 OFFCURVE",
"275 593 CURVE SMOOTH",
"168 593 OFFCURVE",
"156 573 OFFCURVE",
"149 527 CURVE",
"67 -59 LINE",
"79 -59 LINE"
);
}
);
width = 419;
}
);
unicode = 1E9E;
},
{
glyphname = Schwa;
lastChange = "2021-11-24 16:24:16 +0000";
layers = (
{
layerId = "9AA098C0-EDBC-463F-BC21-AFCD07A070D0";
paths = (
{
closed = 1;
nodes = (
"71 402 LINE",
"81 475 LINE SMOOTH",
"95 579 OFFCURVE",
"152 594 OFFCURVE",
"222 594 CURVE SMOOTH",
"291 594 OFFCURVE",
"344 579 OFFCURVE",
"330 475 CURVE SMOOTH",
"281 124 LINE SMOOTH",
"266 19 OFFCURVE",
"215 2 OFFCURVE",
"140 2 CURVE SMOOTH",
"65 2 OFFCURVE",
"17 17 OFFCURVE",
"31 118 CURVE SMOOTH",
"49 247 LINE",
"37 247 LINE",
"19 122 LINE SMOOTH",
"4 8 OFFCURVE",
"60 -8 OFFCURVE",
"137 -8 CURVE SMOOTH",
"214 -8 OFFCURVE",
"276 6 OFFCURVE",
"292 122 CURVE SMOOTH",
"342 473 LINE SMOOTH",
"357 587 OFFCURVE",
"301 603 OFFCURVE",
"225 603 CURVE SMOOTH",
"145 603 OFFCURVE",
"85 589 OFFCURVE",
"69 473 CURVE SMOOTH",
"59 402 LINE"
);
},
{
closed = 1;
nodes = (
"35 236 LINE",
"300 236 LINE",
"302 247 LINE",
"37 247 LINE"
);
}
);
width = 355;
},
{
anchors = (
{
name = bottom;
position = "{197, 0}";
},
{
name = top;
position = "{197, 591}";
}
);
associatedMasterId = "9AA098C0-EDBC-463F-BC21-AFCD07A070D0";
layerId = "EEA0EE5D-DDBE-4C62-9355-9D48BAED48A9";
name = Black;
paths = (
{
closed = 1;
nodes = (
"302 -12 OFFCURVE",
"375 14 OFFCURVE",
"375 173 CURVE SMOOTH",
"375 465 LINE SMOOTH",
"375 564 OFFCURVE",
"302 600 OFFCURVE",
"193 600 CURVE SMOOTH",
"84 600 OFFCURVE",
"18 564 OFFCURVE",
"18 465 CURVE SMOOTH",
"18 327 LINE",
"177 327 LINE",
"177 473 LINE SMOOTH",
"177 496 OFFCURVE",
"184 503 OFFCURVE",
"193 503 CURVE SMOOTH",
"203 503 OFFCURVE",
"209 496 OFFCURVE",
"209 473 CURVE SMOOTH",
"209 110 LINE SMOOTH",
"209 87 OFFCURVE",
"203 80 OFFCURVE",
"193 80 CURVE SMOOTH",
"184 80 OFFCURVE",
"177 87 OFFCURVE",
"177 110 CURVE SMOOTH",
"177 248 LINE",
"18 248 LINE",
"18 174 LINE SMOOTH",
"18 14 OFFCURVE",
"84 -12 OFFCURVE",
"193 -12 CURVE SMOOTH"
);
},
{
closed = 1;
nodes = (
"230 216 LINE",
"230 289 LINE",
"18 289 LINE",
"18 216 LINE"
);
}
);
width = 395;
}
);
leftMetricsKey = "=o-8";
rightKerningGroup = o;
rightMetricsKey = o;
unicode = 018F;
},
{
color = 6;
glyphname = T;
lastChange = "2021-11-24 16:17:35 +0000";
layers = (
{
layerId = "9AA098C0-EDBC-463F-BC21-AFCD07A070D0";
paths = (
{
closed = 1;
nodes = (
"54 580 LINE",
"167 580 LINE",
"86 0 LINE",
"98 0 LINE",
"179 580 LINE",
"293 580 LINE",
"295 591 LINE",
"56 591 LINE"
);
}
);
userData = {
assembly = "SVTCA[0]	/* SetFreedomAndProjectionVectorToAxis */\012PUSHW[ ]	/* 1 value pushed */\0120 \012RCVT[ ]	/* ReadCVT */\012IF[ ]	/* If */\012PUSHW[ ]	/* 1 value pushed */\0123 \012MDAP[1]	/* MoveDirectAbsPt */\012ELSE[ ]	/* Else */\012PUSHW[ ]	/* 2 values pushed */\0123 5 \012MIAP[0]	/* MoveIndirectAbsPt */\012EIF[ ]	/* EndIf */\012IUP[0]	/* InterpolateUntPts */\012IUP[1]	/* InterpolateUntPts */";
};
width = 252;
}
);
leftKerningGroup = T;
note = T;
rightKerningGroup = T;
unicode = 0054;
},
{
color = 11;
glyphname = Tbar;
lastChange = "2021-11-24 16:17:35 +0000";
layers = (
{
layerId = "9AA098C0-EDBC-463F-BC21-AFCD07A070D0";
paths = (
{
closed = 1;
nodes = (
"144 424 LINE",
"85 0 LINE",
"97 0 LINE",
"156 424 LINE",
"251 424 LINE",
"252 433 LINE",
"157 433 LINE",
"178 580 LINE",
"292 580 LINE",
"294 591 LINE",
"55 591 LINE",
"53 580 LINE",
"166 580 LINE",
"145 433 LINE",
"51 433 LINE",
"50 424 LINE"
);
}
);
userData = {
assembly = "SVTCA[0]	/* SetFreedomAndProjectionVectorToAxis */\012PUSHW[ ]	/* 1 value pushed */\0120 \012RCVT[ ]	/* ReadCVT */\012IF[ ]	/* If */\012PUSHW[ ]	/* 1 value pushed */\01212 \012MDAP[1]	/* MoveDirectAbsPt */\012ELSE[ ]	/* Else */\012PUSHW[ ]	/* 2 values pushed */\01212 5 \012MIAP[0]	/* MoveIndirectAbsPt */\012EIF[ ]	/* EndIf */\012IUP[0]	/* InterpolateUntPts */\012IUP[1]	/* InterpolateUntPts */";
};
width = 339;
}
);
leftKerningGroup = T;
note = Tbar;
rightKerningGroup = T;
unicode = 0166;
},
{
color = 11;
glyphname = Tcaron;
lastChange = "2021-11-24 16:17:35 +0000";
layers = (
{
layerId = "9AA098C0-EDBC-463F-BC21-AFCD07A070D0";
paths = (
{
closed = 1;
nodes = (
"50 580 LINE",
"163 580 LINE",
"82 0 LINE",
"94 0 LINE",
"175 580 LINE",
"289 580 LINE",
"291 591 LINE",
"52 591 LINE"
);
},
{
closed = 1;
nodes = (
"209 653 OFFCURVE",
"263 700 OFFCURVE",
"288 724 QCURVE",
"275 724 LINE",
"178 637 LINE",
"106 724 LINE",
"92 724 LINE",
"109 703 OFFCURVE",
"133 674 OFFCURVE",
"150 653 OFFCURVE",
"162 637 OFFCURVE",
"168 630 QCURVE",
"184 630 LINE"
);
}
);
userData = {
assembly = "SVTCA[0]	/* SetFreedomAndProjectionVectorToAxis */\012PUSHW[ ]	/* 1 value pushed */\0120 \012RCVT[ ]	/* ReadCVT */\012IF[ ]	/* If */\012PUSHW[ ]	/* 1 value pushed */\0123 \012MDAP[1]	/* MoveDirectAbsPt */\012ELSE[ ]	/* Else */\012PUSHW[ ]	/* 2 values pushed */\0123 5 \012MIAP[0]	/* MoveIndirectAbsPt */\012EIF[ ]	/* EndIf */\012PUSHW[ ]	/* 4 values pushed */\01214 3 8 4 \012CALL[ ]	/* CallFunction */\012PUSHW[ ]	/* 1 value pushed */\01214 \012SRP0[ ]	/* SetRefPoint0 */\012PUSHW[ ]	/* 1 value pushed */\01216 \012MDRP[10000]	/* MoveDirectRelPt */\012IUP[0]	/* InterpolateUntPts */\012IUP[1]	/* InterpolateUntPts */";
};
width = 336;
}
);
leftKerningGroup = T;
note = Tcaron;
rightKerningGroup = T;
unicode = 0164;
},
{
color = 6;
glyphname = U;
lastChange = "2021-11-24 16:17:35 +0000";
layers = (
{
layerId = "9AA098C0-EDBC-463F-BC21-AFCD07A070D0";
paths = (
{
closed = 1;
nodes = (
"222 -3 OFFCURVE",
"266 23 OFFCURVE",
"296 71 OFFCURVE",
"302 110 QCURVE SMOOTH",
"369 591 LINE",
"357 591 LINE",
"289 106 LINE SMOOTH",
"284 71 OFFCURVE",
"255 29 OFFCURVE",
"214 5 OFFCURVE",
"167 -3 OFFCURVE",
"144 -3 QCURVE SMOOTH",
"121 -3 OFFCURVE",
"79 5 OFFCURVE",
"49 29 OFFCURVE",
"35 71 OFFCURVE",
"40 106 QCURVE SMOOTH",
"108 591 LINE",
"96 591 LINE",
"29 110 LINE SMOOTH",
"23 71 OFFCURVE",
"38 23 OFFCURVE",
"70 -3 OFFCURVE",
"116 -12 OFFCURVE",
"143 -12 QCURVE SMOOTH",
"170 -12 OFFCURVE"
);
}
);
width = 369;
}
);
leftKerningGroup = U;
leftMetricsKey = "=H-2";
note = U;
rightKerningGroup = U;
rightMetricsKey = "=H-2";
unicode = 0055;
},
{
color = 11;
glyphname = Uacute;
lastChange = "2021-11-24 16:17:35 +0000";
layers = (
{
layerId = "9AA098C0-EDBC-463F-BC21-AFCD07A070D0";
paths = (
{
closed = 1;
nodes = (
"246 -3 OFFCURVE",
"290 23 OFFCURVE",
"320 71 OFFCURVE",
"326 110 QCURVE SMOOTH",
"393 591 LINE",
"381 591 LINE",
"313 106 LINE SMOOTH",
"308 71 OFFCURVE",
"279 29 OFFCURVE",
"238 5 OFFCURVE",
"191 -3 OFFCURVE",
"168 -3 QCURVE SMOOTH",
"145 -3 OFFCURVE",
"103 5 OFFCURVE",
"73 29 OFFCURVE",
"59 71 OFFCURVE",
"64 106 QCURVE SMOOTH",
"132 591 LINE",
"120 591 LINE",
"53 110 LINE SMOOTH",
"47 71 OFFCURVE",
"62 23 OFFCURVE",
"94 -3 OFFCURVE",
"140 -12 OFFCURVE",
"167 -12 QCURVE SMOOTH",
"194 -12 OFFCURVE"
);
},
{
closed = 1;
nodes = (
"301 750 LINE",
"227 664 LINE",
"238 664 LINE",
"323 750 LINE"
);
}
);
userData = {
assembly = "SVTCA[0]	/* SetFreedomAndProjectionVectorToAxis */\012PUSHW[ ]	/* 4 values pushed */\01228 3 26 4 \012CALL[ ]	/* CallFunction */\012IUP[0]	/* InterpolateUntPts */\012IUP[1]	/* InterpolateUntPts */";
};
width = 442;
}
);
leftKerningGroup = U;
note = Uacute;
rightKerningGroup = U;
unicode = 00DA;
},
{
color = 11;
glyphname = Ubreve;
lastChange = "2021-11-24 16:17:35 +0000";
layers = (
{
layerId = "9AA098C0-EDBC-463F-BC21-AFCD07A070D0";
paths = (
{
closed = 1;
nodes = (
"246 -3 OFFCURVE",
"290 23 OFFCURVE",
"320 71 OFFCURVE",
"326 110 QCURVE SMOOTH",
"393 591 LINE",
"381 591 LINE",
"313 106 LINE SMOOTH",
"308 71 OFFCURVE",
"279 29 OFFCURVE",
"238 5 OFFCURVE",
"191 -3 OFFCURVE",
"168 -3 QCURVE SMOOTH",
"145 -3 OFFCURVE",
"103 5 OFFCURVE",
"73 29 OFFCURVE",
"59 71 OFFCURVE",
"64 106 QCURVE SMOOTH",
"132 591 LINE",
"120 591 LINE",
"53 110 LINE SMOOTH",
"47 71 OFFCURVE",
"62 23 OFFCURVE",
"94 -3 OFFCURVE",
"140 -12 OFFCURVE",
"167 -12 QCURVE SMOOTH",
"194 -12 OFFCURVE"
);
},
{
closed = 1;
nodes = (
"196 671 OFFCURVE",
"196 707 QCURVE",
"185 707 LINE",
"185 695 OFFCURVE",
"192 667 OFFCURVE",
"209 645 OFFCURVE",
"239 630 OFFCURVE",
"263 630 QCURVE SMOOTH",
"287 630 OFFCURVE",
"322 645 OFFCURVE",
"346 667 OFFCURVE",
"360 695 OFFCURVE",
"363 707 QCURVE",
"352 707 LINE",
"341 671 OFFCURVE",
"294 638 OFFCURVE",
"264 638 QCURVE SMOOTH",
"234 638 OFFCURVE"
);
}
);
width = 442;
}
);
leftKerningGroup = U;
note = Ubreve;
rightKerningGroup = U;
unicode = 016C;
},
{
color = 11;
glyphname = Ucircumflex;
lastChange = "2021-11-24 16:17:35 +0000";
layers = (
{
layerId = "9AA098C0-EDBC-463F-BC21-AFCD07A070D0";
paths = (
{
closed = 1;
nodes = (
"246 -3 OFFCURVE",
"290 23 OFFCURVE",
"320 71 OFFCURVE",
"326 110 QCURVE SMOOTH",
"393 591 LINE",
"381 591 LINE",
"313 106 LINE SMOOTH",
"308 71 OFFCURVE",
"279 29 OFFCURVE",
"238 5 OFFCURVE",
"191 -3 OFFCURVE",
"168 -3 QCURVE SMOOTH",
"145 -3 OFFCURVE",
"103 5 OFFCURVE",
"73 29 OFFCURVE",
"59 71 OFFCURVE",
"64 106 QCURVE SMOOTH",
"132 591 LINE",
"120 591 LINE",
"53 110 LINE SMOOTH",
"47 71 OFFCURVE",
"62 23 OFFCURVE",
"94 -3 OFFCURVE",
"140 -12 OFFCURVE",
"167 -12 QCURVE SMOOTH",
"194 -12 OFFCURVE"
);
},
{
closed = 1;
nodes = (
"247 727 OFFCURVE",
"194 680 OFFCURVE",
"168 656 QCURVE",
"181 656 LINE",
"279 743 LINE",
"350 656 LINE",
"364 656 LINE",
"347 677 OFFCURVE",
"324 706 OFFCURVE",
"307 727 OFFCURVE",
"295 742 OFFCURVE",
"289 750 QCURVE",
"273 750 LINE"
);
}
);
userData = {
assembly = "SVTCA[0]	/* SetFreedomAndProjectionVectorToAxis */\012PUSHW[ ]	/* 4 values pushed */\01226 3 32 4 \012CALL[ ]	/* CallFunction */\012PUSHW[ ]	/* 1 value pushed */\01232 \012SRP0[ ]	/* SetRefPoint0 */\012PUSHW[ ]	/* 1 value pushed */\01234 \012MDRP[10000]	/* MoveDirectRelPt */\012IUP[0]	/* InterpolateUntPts */\012IUP[1]	/* InterpolateUntPts */";
};
width = 442;
}
);
leftKerningGroup = U;
note = Ucircumflex;
rightKerningGroup = U;
unicode = 00DB;
},
{
color = 11;
glyphname = Udieresis;
lastChange = "2021-11-24 16:17:35 +0000";
layers = (
{
layerId = "9AA098C0-EDBC-463F-BC21-AFCD07A070D0";
paths = (
{
closed = 1;
nodes = (
"246 -3 OFFCURVE",
"290 23 OFFCURVE",
"320 71 OFFCURVE",
"326 110 QCURVE SMOOTH",
"393 591 LINE",
"381 591 LINE",
"313 106 LINE SMOOTH",
"308 71 OFFCURVE",
"279 29 OFFCURVE",
"238 5 OFFCURVE",
"191 -3 OFFCURVE",
"168 -3 QCURVE SMOOTH",
"145 -3 OFFCURVE",
"103 5 OFFCURVE",
"73 29 OFFCURVE",
"59 71 OFFCURVE",
"64 106 QCURVE SMOOTH",
"132 591 LINE",
"120 591 LINE",
"53 110 LINE SMOOTH",
"47 71 OFFCURVE",
"62 23 OFFCURVE",
"94 -3 OFFCURVE",
"140 -12 OFFCURVE",
"167 -12 QCURVE SMOOTH",
"194 -12 OFFCURVE"
);
},
{
closed = 1;
nodes = (
"337 718 QCURVE SMOOTH",
"353 718 OFFCURVE",
"355 734 QCURVE",
"357 741 OFFCURVE",
"349 750 OFFCURVE",
"342 750 QCURVE SMOOTH",
"327 750 OFFCURVE",
"323 734 QCURVE SMOOTH",
"321 718 OFFCURVE"
);
},
{
closed = 1;
nodes = (
"241 718 QCURVE SMOOTH",
"257 718 OFFCURVE",
"259 734 QCURVE",
"261 741 OFFCURVE",
"253 750 OFFCURVE",
"246 750 QCURVE SMOOTH",
"231 750 OFFCURVE",
"227 734 QCURVE SMOOTH",
"225 718 OFFCURVE"
);
}
);
width = 442;
}
);
leftKerningGroup = U;
note = Udieresis;
rightKerningGroup = U;
unicode = 00DC;
},
{
color = 11;
glyphname = Ugrave;
lastChange = "2021-11-24 16:17:35 +0000";
layers = (
{
layerId = "9AA098C0-EDBC-463F-BC21-AFCD07A070D0";
paths = (
{
closed = 1;
nodes = (
"246 -3 OFFCURVE",
"290 23 OFFCURVE",
"320 71 OFFCURVE",
"326 110 QCURVE SMOOTH",
"393 591 LINE",
"381 591 LINE",
"313 106 LINE SMOOTH",
"308 71 OFFCURVE",
"279 29 OFFCURVE",
"238 5 OFFCURVE",
"191 -3 OFFCURVE",
"168 -3 QCURVE SMOOTH",
"145 -3 OFFCURVE",
"103 5 OFFCURVE",
"73 29 OFFCURVE",
"59 71 OFFCURVE",
"64 106 QCURVE SMOOTH",
"132 591 LINE",
"120 591 LINE",
"53 110 LINE SMOOTH",
"47 71 OFFCURVE",
"62 23 OFFCURVE",
"94 -3 OFFCURVE",
"140 -12 OFFCURVE",
"167 -12 QCURVE SMOOTH",
"194 -12 OFFCURVE"
);
},
{
closed = 1;
nodes = (
"288 664 LINE",
"238 750 LINE",
"216 750 LINE",
"277 664 LINE"
);
}
);
userData = {
assembly = "SVTCA[0]	/* SetFreedomAndProjectionVectorToAxis */\012PUSHW[ ]	/* 4 values pushed */\01227 3 29 4 \012CALL[ ]	/* CallFunction */\012IUP[0]	/* InterpolateUntPts */\012IUP[1]	/* InterpolateUntPts */";
};
width = 442;
}
);
leftKerningGroup = U;
note = Ugrave;
rightKerningGroup = U;
unicode = 00D9;
},
{
color = 11;
glyphname = Umacron;
lastChange = "2021-11-24 16:17:35 +0000";
layers = (
{
layerId = "9AA098C0-EDBC-463F-BC21-AFCD07A070D0";
paths = (
{
closed = 1;
nodes = (
"246 -3 OFFCURVE",
"290 23 OFFCURVE",
"320 71 OFFCURVE",
"326 110 QCURVE SMOOTH",
"393 591 LINE",
"381 591 LINE",
"313 106 LINE SMOOTH",
"308 71 OFFCURVE",
"279 29 OFFCURVE",
"238 5 OFFCURVE",
"191 -3 OFFCURVE",
"168 -3 QCURVE SMOOTH",
"145 -3 OFFCURVE",
"103 5 OFFCURVE",
"73 29 OFFCURVE",
"59 71 OFFCURVE",
"64 106 QCURVE SMOOTH",
"132 591 LINE",
"120 591 LINE",
"53 110 LINE SMOOTH",
"47 71 OFFCURVE",
"62 23 OFFCURVE",
"94 -3 OFFCURVE",
"140 -12 OFFCURVE",
"167 -12 QCURVE SMOOTH",
"194 -12 OFFCURVE"
);
},
{
closed = 1;
nodes = (
"363 685 LINE",
"364 694 LINE",
"163 694 LINE",
"162 685 LINE"
);
}
);
width = 442;
}
);
leftKerningGroup = U;
note = Umacron;
rightKerningGroup = U;
unicode = 016A;
},
{
color = 11;
glyphname = Uogonek;
lastChange = "2021-11-24 16:17:35 +0000";
layers = (
{
layerId = "9AA098C0-EDBC-463F-BC21-AFCD07A070D0";
paths = (
{
closed = 1;
nodes = (
"393 591 LINE",
"381 591 LINE",
"313 106 LINE SMOOTH",
"308 71 OFFCURVE",
"279 29 OFFCURVE",
"238 5 OFFCURVE",
"191 -3 OFFCURVE",
"168 -3 QCURVE SMOOTH",
"145 -3 OFFCURVE",
"103 5 OFFCURVE",
"73 29 OFFCURVE",
"59 71 OFFCURVE",
"64 106 QCURVE SMOOTH",
"132 591 LINE",
"120 591 LINE",
"53 110 LINE SMOOTH",
"47 71 OFFCURVE",
"61 23 OFFCURVE",
"93 -3 OFFCURVE",
"139 -12 OFFCURVE",
"165 -12 QCURVE",
"145 -24 OFFCURVE",
"109 -57 OFFCURVE",
"79 -96 OFFCURVE",
"59 -137 OFFCURVE",
"56 -158 QCURVE SMOOTH",
"53 -180 OFFCURVE",
"64 -211 OFFCURVE",
"88 -231 OFFCURVE",
"121 -240 OFFCURVE",
"140 -240 QCURVE SMOOTH",
"164 -240 OFFCURVE",
"209 -230 OFFCURVE",
"223 -222 QCURVE",
"221 -213 LINE",
"183 -229 OFFCURVE",
"140 -229 QCURVE SMOOTH",
"102 -229 OFFCURVE",
"63 -189 OFFCURVE",
"68 -156 QCURVE SMOOTH",
"70 -140 OFFCURVE",
"91 -100 OFFCURVE",
"121 -61 OFFCURVE",
"158 -25 OFFCURVE",
"177 -12 QCURVE",
"202 -11 OFFCURVE",
"251 -1 OFFCURVE",
"292 26 OFFCURVE",
"321 72 OFFCURVE",
"326 110 QCURVE",
"326 110 LINE"
);
}
);
userData = {
assembly = "SVTCA[0]	/* SetFreedomAndProjectionVectorToAxis */\012PUSHW[ ]	/* 1 value pushed */\0120 \012RCVT[ ]	/* ReadCVT */\012IF[ ]	/* If */\012PUSHW[ ]	/* 1 value pushed */\01242 \012MDAP[1]	/* MoveDirectAbsPt */\012ELSE[ ]	/* Else */\012PUSHW[ ]	/* 2 values pushed */\01242 5 \012MIAP[0]	/* MoveIndirectAbsPt */\012EIF[ ]	/* EndIf */\012IUP[0]	/* InterpolateUntPts */\012IUP[1]	/* InterpolateUntPts */";
};
width = 442;
}
);
leftKerningGroup = U;
note = Uogonek;
rightKerningGroup = U;
unicode = 0172;
},
{
color = 11;
glyphname = Uring;
lastChange = "2021-11-24 16:17:35 +0000";
layers = (
{
layerId = "9AA098C0-EDBC-463F-BC21-AFCD07A070D0";
paths = (
{
closed = 1;
nodes = (
"246 -3 OFFCURVE",
"290 23 OFFCURVE",
"320 71 OFFCURVE",
"326 110 QCURVE SMOOTH",
"393 591 LINE",
"381 591 LINE",
"313 106 LINE SMOOTH",
"308 71 OFFCURVE",
"279 29 OFFCURVE",
"238 5 OFFCURVE",
"191 -3 OFFCURVE",
"168 -3 QCURVE SMOOTH",
"145 -3 OFFCURVE",
"103 5 OFFCURVE",
"73 29 OFFCURVE",
"59 71 OFFCURVE",
"64 106 QCURVE SMOOTH",
"132 591 LINE",
"120 591 LINE",
"53 110 LINE SMOOTH",
"47 71 OFFCURVE",
"62 23 OFFCURVE",
"94 -3 OFFCURVE",
"140 -12 OFFCURVE",
"167 -12 QCURVE SMOOTH",
"194 -12 OFFCURVE"
);
},
{
closed = 1;
nodes = (
"229 630 OFFCURVE",
"260 630 QCURVE SMOOTH",
"291 630 OFFCURVE",
"341 674 OFFCURVE",
"345 705 QCURVE SMOOTH",
"350 736 OFFCURVE",
"312 780 OFFCURVE",
"281 780 QCURVE SMOOTH",
"250 780 OFFCURVE",
"200 736 OFFCURVE",
"195 705 QCURVE SMOOTH",
"191 674 OFFCURVE"
);
},
{
closed = 1;
nodes = (
"251 770 OFFCURVE",
"279 770 QCURVE SMOOTH",
"307 770 OFFCURVE",
"337 733 OFFCURVE",
"333 705 QCURVE SMOOTH",
"329 677 OFFCURVE",
"289 640 OFFCURVE",
"261 640 QCURVE SMOOTH",
"233 640 OFFCURVE",
"203 677 OFFCURVE",
"207 705 QCURVE SMOOTH",
"211 733 OFFCURVE"
);
}
);
width = 442;
}
);
leftKerningGroup = U;
note = Uring;
rightKerningGroup = U;
unicode = 016E;
},
{
color = 11;
glyphname = Utilde;
lastChange = "2021-11-24 16:17:35 +0000";
layers = (
{
layerId = "9AA098C0-EDBC-463F-BC21-AFCD07A070D0";
paths = (
{
closed = 1;
nodes = (
"246 -3 OFFCURVE",
"290 23 OFFCURVE",
"320 71 OFFCURVE",
"326 110 QCURVE SMOOTH",
"393 591 LINE",
"381 591 LINE",
"313 106 LINE SMOOTH",
"308 71 OFFCURVE",
"279 29 OFFCURVE",
"238 5 OFFCURVE",
"191 -3 OFFCURVE",
"168 -3 QCURVE SMOOTH",
"145 -3 OFFCURVE",
"103 5 OFFCURVE",
"73 29 OFFCURVE",
"59 71 OFFCURVE",
"64 106 QCURVE SMOOTH",
"132 591 LINE",
"120 591 LINE",
"53 110 LINE SMOOTH",
"47 71 OFFCURVE",
"62 23 OFFCURVE",
"94 -3 OFFCURVE",
"140 -12 OFFCURVE",
"167 -12 QCURVE SMOOTH",
"194 -12 OFFCURVE"
);
},
{
closed = 1;
nodes = (
"376 658 OFFCURVE",
"381 678 QCURVE",
"372 678 LINE",
"366 654 OFFCURVE",
"336 639 OFFCURVE",
"318 639 QCURVE SMOOTH",
"303 639 OFFCURVE",
"278 652 OFFCURVE",
"255 667 OFFCURVE",
"231 680 OFFCURVE",
"216 680 QCURVE SMOOTH",
"190 680 OFFCURVE",
"157 654 OFFCURVE",
"151 634 QCURVE",
"161 634 LINE",
"168 657 OFFCURVE",
"197 672 OFFCURVE",
"215 672 QCURVE SMOOTH",
"227 672 OFFCURVE",
"248 661 OFFCURVE",
"256 655 QCURVE SMOOTH",
"293 630 OFFCURVE",
"317 630 QCURVE SMOOTH",
"342 630 OFFCURVE"
);
}
);
width = 442;
}
);
leftKerningGroup = U;
note = Utilde;
rightKerningGroup = U;
unicode = 0168;
},
{
color = 6;
glyphname = V;
lastChange = "2021-11-24 16:17:35 +0000";
layers = (
{
layerId = "9AA098C0-EDBC-463F-BC21-AFCD07A070D0";
paths = (
{
closed = 1;
nodes = (
"72 441 OFFCURVE",
"97 151 OFFCURVE",
"107 0 QCURVE",
"120 0 LINE",
"172 151 OFFCURVE",
"273 440 OFFCURVE",
"325 591 QCURVE",
"313 591 LINE",
"117 24 LINE",
"75 591 LINE",
"63 591 LINE"
);
}
);
userData = {
assembly = "SVTCA[0]	/* SetFreedomAndProjectionVectorToAxis */\012PUSHW[ ]	/* 1 value pushed */\0120 \012RCVT[ ]	/* ReadCVT */\012IF[ ]	/* If */\012PUSHW[ ]	/* 1 value pushed */\0126 \012MDAP[1]	/* MoveDirectAbsPt */\012ELSE[ ]	/* Else */\012PUSHW[ ]	/* 2 values pushed */\0126 5 \012MIAP[0]	/* MoveIndirectAbsPt */\012EIF[ ]	/* EndIf */\012IUP[0]	/* InterpolateUntPts */\012IUP[1]	/* InterpolateUntPts */";
};
width = 292;
}
);
leftKerningGroup = V;
note = V;
rightKerningGroup = V;
unicode = 0056;
},
{
color = 6;
glyphname = W;
lastChange = "2021-11-24 16:17:35 +0000";
layers = (
{
layerId = "9AA098C0-EDBC-463F-BC21-AFCD07A070D0";
paths = (
{
closed = 1;
nodes = (
"66 441 OFFCURVE",
"77 151 OFFCURVE",
"80 0 QCURVE",
"92 0 LINE",
"292 565 LINE",
"330 0 LINE",
"345 0 LINE",
"390 151 OFFCURVE",
"482 440 OFFCURVE",
"528 591 QCURVE",
"515 591 LINE",
"342 38 LINE",
"303 591 LINE",
"289 591 LINE",
"93 38 LINE",
"76 591 LINE",
"63 591 LINE"
);
}
);
userData = {
assembly = "SVTCA[0]	/* SetFreedomAndProjectionVectorToAxis */\012PUSHW[ ]	/* 1 value pushed */\0120 \012RCVT[ ]	/* ReadCVT */\012IF[ ]	/* If */\012PUSHW[ ]	/* 1 value pushed */\0129 \012MDAP[1]	/* MoveDirectAbsPt */\012ELSE[ ]	/* Else */\012PUSHW[ ]	/* 2 values pushed */\0129 5 \012MIAP[0]	/* MoveIndirectAbsPt */\012EIF[ ]	/* EndIf */\012PUSHW[ ]	/* 1 value pushed */\0120 \012RCVT[ ]	/* ReadCVT */\012IF[ ]	/* If */\012PUSHW[ ]	/* 1 value pushed */\01212 \012MDAP[1]	/* MoveDirectAbsPt */\012ELSE[ ]	/* Else */\012PUSHW[ ]	/* 2 values pushed */\01212 5 \012MIAP[0]	/* MoveIndirectAbsPt */\012EIF[ ]	/* EndIf */\012IUP[0]	/* InterpolateUntPts */\012IUP[1]	/* InterpolateUntPts */";
};
width = 495;
}
);
leftKerningGroup = W;
leftMetricsKey = V;
note = W;
rightKerningGroup = W;
rightMetricsKey = V;
unicode = 0057;
},
{
color = 6;
glyphname = X;
lastChange = "2021-11-24 01:00:13 +0000";
layers = (
{
layerId = "9AA098C0-EDBC-463F-BC21-AFCD07A070D0";
paths = (
{
closed = 1;
nodes = (
"124 292 LINE",
"142 292 LINE",
"197 0 LINE",
"212 0 LINE",
"153 298 LINE",
"297 591 LINE",
"283 591 LINE",
"143 303 LINE",
"125 303 LINE",
"78 591 LINE",
"64 591 LINE",
"114 298 LINE",
"-30 0 LINE",
"-15 0 LINE"
);
}
);
userData = {
assembly = "SVTCA[0]	/* SetFreedomAndProjectionVectorToAxis */\012PUSHW[ ]	/* 1 value pushed */\0120 \012RCVT[ ]	/* ReadCVT */\012IF[ ]	/* If */\012PUSHW[ ]	/* 1 value pushed */\0120 \012MDAP[1]	/* MoveDirectAbsPt */\012ELSE[ ]	/* Else */\012PUSHW[ ]	/* 2 values pushed */\0120 5 \012MIAP[0]	/* MoveIndirectAbsPt */\012EIF[ ]	/* EndIf */\012PUSHW[ ]	/* 1 value pushed */\0120 \012RCVT[ ]	/* ReadCVT */\012IF[ ]	/* If */\012PUSHW[ ]	/* 1 value pushed */\0129 \012MDAP[1]	/* MoveDirectAbsPt */\012ELSE[ ]	/* Else */\012PUSHW[ ]	/* 2 values pushed */\0129 5 \012MIAP[0]	/* MoveIndirectAbsPt */\012EIF[ ]	/* EndIf */\012IUP[0]	/* InterpolateUntPts */\012IUP[1]	/* InterpolateUntPts */";
};
width = 254;
}
);
note = X;
unicode = 0058;
},
{
color = 6;
glyphname = Y;
lastChange = "2021-11-24 16:17:35 +0000";
layers = (
{
layerId = "9AA098C0-EDBC-463F-BC21-AFCD07A070D0";
paths = (
{
closed = 1;
nodes = (
"133 251 LINE",
"306 591 LINE",
"291 591 LINE",
"130 269 LINE",
"73 591 LINE",
"58 591 LINE",
"121 253 LINE",
"86 0 LINE",
"98 0 LINE"
);
}
);
userData = {
assembly = "SVTCA[0]	/* SetFreedomAndProjectionVectorToAxis */\012PUSHW[ ]	/* 1 value pushed */\0120 \012RCVT[ ]	/* ReadCVT */\012IF[ ]	/* If */\012PUSHW[ ]	/* 1 value pushed */\0120 \012MDAP[1]	/* MoveDirectAbsPt */\012ELSE[ ]	/* Else */\012PUSHW[ ]	/* 2 values pushed */\0120 5 \012MIAP[0]	/* MoveIndirectAbsPt */\012EIF[ ]	/* EndIf */\012IUP[0]	/* InterpolateUntPts */\012IUP[1]	/* InterpolateUntPts */";
};
width = 268;
}
);
leftKerningGroup = Y;
note = Y;
rightKerningGroup = Y;
unicode = 0059;
},
{
color = 11;
glyphname = Yacute;
lastChange = "2021-11-24 16:17:35 +0000";
layers = (
{
layerId = "9AA098C0-EDBC-463F-BC21-AFCD07A070D0";
paths = (
{
closed = 1;
nodes = (
"125 251 LINE",
"298 591 LINE",
"283 591 LINE",
"122 269 LINE",
"65 591 LINE",
"50 591 LINE",
"113 253 LINE",
"78 0 LINE",
"90 0 LINE"
);
},
{
closed = 1;
nodes = (
"218 750 LINE",
"144 664 LINE",
"155 664 LINE",
"240 750 LINE"
);
}
);
userData = {
assembly = "SVTCA[0]	/* SetFreedomAndProjectionVectorToAxis */\012PUSHW[ ]	/* 1 value pushed */\0120 \012RCVT[ ]	/* ReadCVT */\012IF[ ]	/* If */\012PUSHW[ ]	/* 1 value pushed */\0120 \012MDAP[1]	/* MoveDirectAbsPt */\012ELSE[ ]	/* Else */\012PUSHW[ ]	/* 2 values pushed */\0120 5 \012MIAP[0]	/* MoveIndirectAbsPt */\012EIF[ ]	/* EndIf */\012PUSHW[ ]	/* 4 values pushed */\01211 3 9 4 \012CALL[ ]	/* CallFunction */\012IUP[0]	/* InterpolateUntPts */\012IUP[1]	/* InterpolateUntPts */";
};
width = 349;
}
);
leftKerningGroup = Y;
note = Yacute;
rightKerningGroup = Y;
unicode = 00DD;
},
{
color = 11;
glyphname = Ydieresis;
lastChange = "2021-11-24 16:17:35 +0000";
layers = (
{
layerId = "9AA098C0-EDBC-463F-BC21-AFCD07A070D0";
paths = (
{
closed = 1;
nodes = (
"125 251 LINE",
"298 591 LINE",
"283 591 LINE",
"122 269 LINE",
"65 591 LINE",
"50 591 LINE",
"113 253 LINE",
"78 0 LINE",
"90 0 LINE"
);
},
{
closed = 1;
nodes = (
"247 669 QCURVE SMOOTH",
"263 669 OFFCURVE",
"265 685 QCURVE SMOOTH",
"267 701 OFFCURVE",
"251 701 QCURVE SMOOTH",
"235 701 OFFCURVE",
"233 685 QCURVE SMOOTH",
"231 669 OFFCURVE"
);
},
{
closed = 1;
nodes = (
"151 669 QCURVE SMOOTH",
"167 669 OFFCURVE",
"169 685 QCURVE SMOOTH",
"171 701 OFFCURVE",
"155 701 QCURVE SMOOTH",
"139 701 OFFCURVE",
"137 685 QCURVE SMOOTH",
"135 669 OFFCURVE"
);
}
);
userData = {
assembly = "SVTCA[0]	/* SetFreedomAndProjectionVectorToAxis */\012PUSHW[ ]	/* 1 value pushed */\0120 \012RCVT[ ]	/* ReadCVT */\012IF[ ]	/* If */\012PUSHW[ ]	/* 1 value pushed */\0120 \012MDAP[1]	/* MoveDirectAbsPt */\012ELSE[ ]	/* Else */\012PUSHW[ ]	/* 2 values pushed */\0120 5 \012MIAP[0]	/* MoveIndirectAbsPt */\012EIF[ ]	/* EndIf */\012IUP[0]	/* InterpolateUntPts */\012IUP[1]	/* InterpolateUntPts */";
};
width = 349;
}
);
leftKerningGroup = Y;
note = Ydieresis;
rightKerningGroup = Y;
unicode = 0178;
},
{
color = 6;
glyphname = Z;
lastChange = "2021-11-24 16:17:35 +0000";
layers = (
{
layerId = "9AA098C0-EDBC-463F-BC21-AFCD07A070D0";
paths = (
{
closed = 1;
nodes = (
"263 580 LINE",
"-18 14 LINE",
"-19 0 LINE",
"201 0 LINE",
"202 11 LINE",
"-5 11 LINE",
"274 577 LINE",
"276 591 LINE",
"76 591 LINE",
"74 580 LINE"
);
}
);
userData = {
assembly = "SVTCA[0]	/* SetFreedomAndProjectionVectorToAxis */\012PUSHW[ ]	/* 1 value pushed */\0120 \012RCVT[ ]	/* ReadCVT */\012IF[ ]	/* If */\012PUSHW[ ]	/* 1 value pushed */\0125 \012MDAP[1]	/* MoveDirectAbsPt */\012ELSE[ ]	/* Else */\012PUSHW[ ]	/* 2 values pushed */\0125 5 \012MIAP[0]	/* MoveIndirectAbsPt */\012EIF[ ]	/* EndIf */\012IUP[0]	/* InterpolateUntPts */\012IUP[1]	/* InterpolateUntPts */";
};
width = 253;
}
);
leftKerningGroup = Z;
note = Z;
rightKerningGroup = Z;
unicode = 005A;
},
{
color = 11;
glyphname = Zacute;
lastChange = "2021-11-24 16:17:35 +0000";
layers = (
{
layerId = "9AA098C0-EDBC-463F-BC21-AFCD07A070D0";
paths = (
{
closed = 1;
nodes = (
"332 580 LINE",
"51 14 LINE",
"50 0 LINE",
"270 0 LINE",
"271 11 LINE",
"64 11 LINE",
"343 577 LINE",
"345 591 LINE",
"145 591 LINE",
"143 580 LINE"
);
},
{
closed = 1;
nodes = (
"282 716 LINE",
"208 630 LINE",
"219 630 LINE",
"304 716 LINE"
);
}
);
userData = {
assembly = "PUSHW[ ]	/* 4 values pushed */\0124 4 3 4 \012CALL[ ]	/* CallFunction */\012PUSHW[ ]	/* 3 values pushed */\01211 3 4 \012SRP1[ ]	/* SetRefPoint1 */\012SRP2[ ]	/* SetRefPoint2 */\012IP[ ]	/* InterpolatePts */\012PUSHW[ ]	/* 1 value pushed */\0124 \012SRP0[ ]	/* SetRefPoint0 */\012PUSHW[ ]	/* 1 value pushed */\01215 \012MDRP[11100]	/* MoveDirectRelPt */\012SVTCA[0]	/* SetFreedomAndProjectionVectorToAxis */\012PUSHW[ ]	/* 1 value pushed */\0120 \012RCVT[ ]	/* ReadCVT */\012IF[ ]	/* If */\012PUSHW[ ]	/* 1 value pushed */\0125 \012MDAP[1]	/* MoveDirectAbsPt */\012ELSE[ ]	/* Else */\012PUSHW[ ]	/* 2 values pushed */\0125 5 \012MIAP[0]	/* MoveIndirectAbsPt */\012EIF[ ]	/* EndIf */\012PUSHW[ ]	/* 4 values pushed */\01212 3 10 4 \012CALL[ ]	/* CallFunction */\012IUP[0]	/* InterpolateUntPts */\012IUP[1]	/* InterpolateUntPts */";
};
width = 395;
}
);
leftKerningGroup = Z;
note = Zacute;
rightKerningGroup = Z;
unicode = 0179;
},
{
color = 11;
glyphname = Zcaron;
lastChange = "2021-11-24 16:17:35 +0000";
layers = (
{
layerId = "9AA098C0-EDBC-463F-BC21-AFCD07A070D0";
paths = (
{
closed = 1;
nodes = (
"332 580 LINE",
"51 14 LINE",
"50 0 LINE",
"270 0 LINE",
"271 11 LINE",
"64 11 LINE",
"343 577 LINE",
"345 591 LINE",
"145 591 LINE",
"143 580 LINE"
);
},
{
closed = 1;
nodes = (
"284 679 OFFCURVE",
"337 726 OFFCURVE",
"363 750 QCURVE",
"350 750 LINE",
"253 663 LINE",
"181 750 LINE",
"167 750 LINE",
"184 729 OFFCURVE",
"208 700 OFFCURVE",
"225 679 OFFCURVE",
"237 663 OFFCURVE",
"243 656 QCURVE",
"259 656 LINE"
);
}
);
userData = {
assembly = "SVTCA[0]	/* SetFreedomAndProjectionVectorToAxis */\012PUSHW[ ]	/* 1 value pushed */\0120 \012RCVT[ ]	/* ReadCVT */\012IF[ ]	/* If */\012PUSHW[ ]	/* 1 value pushed */\0125 \012MDAP[1]	/* MoveDirectAbsPt */\012ELSE[ ]	/* Else */\012PUSHW[ ]	/* 2 values pushed */\0125 5 \012MIAP[0]	/* MoveIndirectAbsPt */\012EIF[ ]	/* EndIf */\012PUSHW[ ]	/* 4 values pushed */\01216 3 10 4 \012CALL[ ]	/* CallFunction */\012PUSHW[ ]	/* 1 value pushed */\01216 \012SRP0[ ]	/* SetRefPoint0 */\012PUSHW[ ]	/* 1 value pushed */\01218 \012MDRP[10000]	/* MoveDirectRelPt */\012IUP[0]	/* InterpolateUntPts */\012IUP[1]	/* InterpolateUntPts */";
};
width = 413;
}
);
leftKerningGroup = Z;
note = Zcaron;
rightKerningGroup = Z;
unicode = 017D;
},
{
color = 11;
glyphname = Zdotaccent;
lastChange = "2021-11-24 16:17:35 +0000";
layers = (
{
layerId = "9AA098C0-EDBC-463F-BC21-AFCD07A070D0";
paths = (
{
closed = 1;
nodes = (
"332 580 LINE",
"51 14 LINE",
"50 0 LINE",
"270 0 LINE",
"271 11 LINE",
"64 11 LINE",
"343 577 LINE",
"345 591 LINE",
"145 591 LINE",
"143 580 LINE"
);
},
{
closed = 1;
nodes = (
"250 630 QCURVE SMOOTH",
"266 630 OFFCURVE",
"268 646 QCURVE",
"270 653 OFFCURVE",
"262 662 OFFCURVE",
"255 662 QCURVE SMOOTH",
"240 662 OFFCURVE",
"236 646 QCURVE SMOOTH",
"234 630 OFFCURVE"
);
}
);
userData = {
assembly = "SVTCA[0]	/* SetFreedomAndProjectionVectorToAxis */\012PUSHW[ ]	/* 1 value pushed */\0120 \012RCVT[ ]	/* ReadCVT */\012IF[ ]	/* If */\012PUSHW[ ]	/* 1 value pushed */\0125 \012MDAP[1]	/* MoveDirectAbsPt */\012ELSE[ ]	/* Else */\012PUSHW[ ]	/* 2 values pushed */\0125 5 \012MIAP[0]	/* MoveIndirectAbsPt */\012EIF[ ]	/* EndIf */\012PUSHW[ ]	/* 4 values pushed */\01212 3 2 4 \012CALL[ ]	/* CallFunction */\012PUSHW[ ]	/* 1 value pushed */\0122 \012SRP0[ ]	/* SetRefPoint0 */\012PUSHW[ ]	/* 1 value pushed */\0128 \012MDRP[10000]	/* MoveDirectRelPt */\012PUSHW[ ]	/* 1 value pushed */\0128 \012MDAP[1]	/* MoveDirectAbsPt */\012IUP[0]	/* InterpolateUntPts */\012IUP[1]	/* InterpolateUntPts */";
};
width = 395;
}
);
leftKerningGroup = Z;
note = Zdotaccent;
rightKerningGroup = Z;
unicode = 017B;
},
{
color = 6;
glyphname = a;
lastChange = "2021-11-24 16:17:35 +0000";
layers = (
{
layerId = "9AA098C0-EDBC-463F-BC21-AFCD07A070D0";
paths = (
{
closed = 1;
nodes = (
"309 494 LINE",
"305 466 LINE",
"301 475 OFFCURVE",
"252 503 OFFCURVE",
"202 503 QCURVE SMOOTH",
"160 503 OFFCURVE",
"108 479 OFFCURVE",
"80 442 OFFCURVE",
"67 395 OFFCURVE",
"64 372 QCURVE SMOOTH",
"28 124 LINE SMOOTH",
"25 101 OFFCURVE",
"24 54 OFFCURVE",
"38 16 OFFCURVE",
"72 -7 OFFCURVE",
"104 -7 QCURVE SMOOTH",
"138 -7 OFFCURVE",
"188 15 OFFCURVE",
"223 48 OFFCURVE",
"247 88 OFFCURVE",
"255 106 QCURVE",
"239 0 LINE",
"250 0 LINE",
"320 494 LINE"
);
},
{
closed = 1;
nodes = (
"77 391 OFFCURVE",
"89 435 OFFCURVE",
"116 471 OFFCURVE",
"162 493 OFFCURVE",
"201 493 QCURVE SMOOTH",
"233 493 OFFCURVE",
"270 481 OFFCURVE",
"291 464 OFFCURVE",
"300 448 OFFCURVE",
"303 445 QCURVE",
"266 186 LINE SMOOTH",
"264 175 OFFCURVE",
"250 115 OFFCURVE",
"216 52 OFFCURVE",
"156 3 OFFCURVE",
"109 3 QCURVE SMOOTH",
"79 3 OFFCURVE",
"47 25 OFFCURVE",
"35 61 OFFCURVE",
"37 105 OFFCURVE",
"40 127 QCURVE SMOOTH",
"74 369 LINE SMOOTH"
);
}
);
userData = {
assembly = "SVTCA[0]	/* SetFreedomAndProjectionVectorToAxis */\012PUSHW[ ]	/* 1 value pushed */\0120 \012RCVT[ ]	/* ReadCVT */\012IF[ ]	/* If */\012PUSHW[ ]	/* 1 value pushed */\01222 \012MDAP[1]	/* MoveDirectAbsPt */\012ELSE[ ]	/* Else */\012PUSHW[ ]	/* 2 values pushed */\01222 9 \012MIAP[0]	/* MoveIndirectAbsPt */\012EIF[ ]	/* EndIf */\012PUSHW[ ]	/* 1 value pushed */\0120 \012RCVT[ ]	/* ReadCVT */\012IF[ ]	/* If */\012PUSHW[ ]	/* 1 value pushed */\01240 \012MDAP[1]	/* MoveDirectAbsPt */\012ELSE[ ]	/* Else */\012PUSHW[ ]	/* 2 values pushed */\01240 9 \012MIAP[0]	/* MoveIndirectAbsPt */\012EIF[ ]	/* EndIf */\012PUSHW[ ]	/* 1 value pushed */\0120 \012RCVT[ ]	/* ReadCVT */\012IF[ ]	/* If */\012PUSHW[ ]	/* 1 value pushed */\0120 \012MDAP[1]	/* MoveDirectAbsPt */\012ELSE[ ]	/* Else */\012PUSHW[ ]	/* 2 values pushed */\0120 5 \012MIAP[0]	/* MoveIndirectAbsPt */\012EIF[ ]	/* EndIf */\012PUSHW[ ]	/* 1 value pushed */\0120 \012RCVT[ ]	/* ReadCVT */\012IF[ ]	/* If */\012PUSHW[ ]	/* 1 value pushed */\0127 \012MDAP[1]	/* MoveDirectAbsPt */\012ELSE[ ]	/* Else */\012PUSHW[ ]	/* 2 values pushed */\0127 5 \012MIAP[0]	/* MoveIndirectAbsPt */\012EIF[ ]	/* EndIf */\012PUSHW[ ]	/* 1 value pushed */\0120 \012RCVT[ ]	/* ReadCVT */\012IF[ ]	/* If */\012PUSHW[ ]	/* 1 value pushed */\01229 \012MDAP[1]	/* MoveDirectAbsPt */\012ELSE[ ]	/* Else */\012PUSHW[ ]	/* 2 values pushed */\01229 5 \012MIAP[0]	/* MoveIndirectAbsPt */\012EIF[ ]	/* EndIf */\012PUSHW[ ]	/* 3 values pushed */\0122 7 22 \012SRP1[ ]	/* SetRefPoint1 */\012SRP2[ ]	/* SetRefPoint2 */\012IP[ ]	/* InterpolatePts */\012PUSHW[ ]	/* 3 values pushed */\01221 7 22 \012SRP1[ ]	/* SetRefPoint1 */\012SRP2[ ]	/* SetRefPoint2 */\012IP[ ]	/* InterpolatePts */\012IUP[0]	/* InterpolateUntPts */\012IUP[1]	/* InterpolateUntPts */";
};
width = 335;
}
);
leftKerningGroup = a;
leftMetricsKey = o;
note = a;
rightKerningGroup = n;
unicode = 0061;
},
{
color = 11;
glyphname = aacute;
lastChange = "2021-11-24 16:17:35 +0000";
layers = (
{
layerId = "9AA098C0-EDBC-463F-BC21-AFCD07A070D0";
paths = (
{
closed = 1;
nodes = (
"279 677 LINE",
"205 591 LINE",
"216 591 LINE",
"301 677 LINE"
);
},
{
closed = 1;
nodes = (
"335 494 LINE",
"331 466 LINE",
"327 475 OFFCURVE",
"278 503 OFFCURVE",
"228 503 QCURVE SMOOTH",
"186 503 OFFCURVE",
"134 479 OFFCURVE",
"106 442 OFFCURVE",
"93 395 OFFCURVE",
"90 372 QCURVE SMOOTH",
"54 124 LINE SMOOTH",
"51 101 OFFCURVE",
"50 54 OFFCURVE",
"64 16 OFFCURVE",
"98 -7 OFFCURVE",
"130 -7 QCURVE SMOOTH",
"164 -7 OFFCURVE",
"214 15 OFFCURVE",
"249 48 OFFCURVE",
"273 88 OFFCURVE",
"281 106 QCURVE",
"265 0 LINE",
"276 0 LINE",
"346 494 LINE"
);
},
{
closed = 1;
nodes = (
"103 391 OFFCURVE",
"115 435 OFFCURVE",
"142 471 OFFCURVE",
"188 493 OFFCURVE",
"227 493 QCURVE SMOOTH",
"259 493 OFFCURVE",
"296 481 OFFCURVE",
"317 464 OFFCURVE",
"326 448 OFFCURVE",
"329 445 QCURVE",
"292 186 LINE SMOOTH",
"290 175 OFFCURVE",
"276 115 OFFCURVE",
"242 52 OFFCURVE",
"182 3 OFFCURVE",
"135 3 QCURVE SMOOTH",
"105 3 OFFCURVE",
"73 25 OFFCURVE",
"61 61 OFFCURVE",
"63 105 OFFCURVE",
"66 127 QCURVE SMOOTH",
"100 369 LINE SMOOTH"
);
}
);
userData = {
assembly = "SVTCA[0]	/* SetFreedomAndProjectionVectorToAxis */\012PUSHW[ ]	/* 1 value pushed */\0120 \012RCVT[ ]	/* ReadCVT */\012IF[ ]	/* If */\012PUSHW[ ]	/* 1 value pushed */\0120 \012MDAP[1]	/* MoveDirectAbsPt */\012ELSE[ ]	/* Else */\012PUSHW[ ]	/* 2 values pushed */\0120 11 \012MIAP[0]	/* MoveIndirectAbsPt */\012EIF[ ]	/* EndIf */\012PUSHW[ ]	/* 1 value pushed */\0120 \012RCVT[ ]	/* ReadCVT */\012IF[ ]	/* If */\012PUSHW[ ]	/* 1 value pushed */\01226 \012MDAP[1]	/* MoveDirectAbsPt */\012ELSE[ ]	/* Else */\012PUSHW[ ]	/* 2 values pushed */\01226 9 \012MIAP[0]	/* MoveIndirectAbsPt */\012EIF[ ]	/* EndIf */\012PUSHW[ ]	/* 1 value pushed */\0120 \012RCVT[ ]	/* ReadCVT */\012IF[ ]	/* If */\012PUSHW[ ]	/* 1 value pushed */\01244 \012MDAP[1]	/* MoveDirectAbsPt */\012ELSE[ ]	/* Else */\012PUSHW[ ]	/* 2 values pushed */\01244 9 \012MIAP[0]	/* MoveIndirectAbsPt */\012EIF[ ]	/* EndIf */\012PUSHW[ ]	/* 1 value pushed */\0120 \012RCVT[ ]	/* ReadCVT */\012IF[ ]	/* If */\012PUSHW[ ]	/* 1 value pushed */\0124 \012MDAP[1]	/* MoveDirectAbsPt */\012ELSE[ ]	/* Else */\012PUSHW[ ]	/* 2 values pushed */\0124 5 \012MIAP[0]	/* MoveIndirectAbsPt */\012EIF[ ]	/* EndIf */\012PUSHW[ ]	/* 1 value pushed */\0120 \012RCVT[ ]	/* ReadCVT */\012IF[ ]	/* If */\012PUSHW[ ]	/* 1 value pushed */\01211 \012MDAP[1]	/* MoveDirectAbsPt */\012ELSE[ ]	/* Else */\012PUSHW[ ]	/* 2 values pushed */\01211 5 \012MIAP[0]	/* MoveIndirectAbsPt */\012EIF[ ]	/* EndIf */\012PUSHW[ ]	/* 1 value pushed */\0120 \012RCVT[ ]	/* ReadCVT */\012IF[ ]	/* If */\012PUSHW[ ]	/* 1 value pushed */\01233 \012MDAP[1]	/* MoveDirectAbsPt */\012ELSE[ ]	/* Else */\012PUSHW[ ]	/* 2 values pushed */\01233 5 \012MIAP[0]	/* MoveIndirectAbsPt */\012EIF[ ]	/* EndIf */\012PUSHW[ ]	/* 1 value pushed */\0120 \012SRP0[ ]	/* SetRefPoint0 */\012PUSHW[ ]	/* 2 values pushed */\0122 3 \012MIRP[10100]	/* MoveIndirectRelPt */\012PUSHW[ ]	/* 3 values pushed */\0126 11 0 \012SRP1[ ]	/* SetRefPoint1 */\012SRP2[ ]	/* SetRefPoint2 */\012IP[ ]	/* InterpolatePts */\012PUSHW[ ]	/* 3 values pushed */\01225 11 0 \012SRP1[ ]	/* SetRefPoint1 */\012SRP2[ ]	/* SetRefPoint2 */\012IP[ ]	/* InterpolatePts */\012IUP[0]	/* InterpolateUntPts */\012IUP[1]	/* InterpolateUntPts */";
};
width = 398;
}
);
leftKerningGroup = a;
note = aacute;
rightKerningGroup = n;
unicode = 00E1;
},
{
color = 11;
glyphname = abreve;
lastChange = "2021-11-24 16:17:35 +0000";
layers = (
{
layerId = "9AA098C0-EDBC-463F-BC21-AFCD07A070D0";
paths = (
{
closed = 1;
nodes = (
"175 612 OFFCURVE",
"175 648 QCURVE",
"164 648 LINE",
"164 636 OFFCURVE",
"171 608 OFFCURVE",
"188 586 OFFCURVE",
"218 571 OFFCURVE",
"242 571 QCURVE SMOOTH",
"266 571 OFFCURVE",
"301 586 OFFCURVE",
"325 608 OFFCURVE",
"339 636 OFFCURVE",
"342 648 QCURVE",
"331 648 LINE",
"320 612 OFFCURVE",
"273 579 OFFCURVE",
"243 579 QCURVE SMOOTH",
"213 579 OFFCURVE"
);
},
{
closed = 1;
nodes = (
"335 494 LINE",
"331 466 LINE",
"327 475 OFFCURVE",
"278 503 OFFCURVE",
"228 503 QCURVE SMOOTH",
"186 503 OFFCURVE",
"134 479 OFFCURVE",
"106 442 OFFCURVE",
"93 395 OFFCURVE",
"90 372 QCURVE SMOOTH",
"54 124 LINE SMOOTH",
"51 101 OFFCURVE",
"50 54 OFFCURVE",
"64 16 OFFCURVE",
"98 -7 OFFCURVE",
"130 -7 QCURVE SMOOTH",
"164 -7 OFFCURVE",
"214 15 OFFCURVE",
"249 48 OFFCURVE",
"273 88 OFFCURVE",
"281 106 QCURVE",
"265 0 LINE",
"276 0 LINE",
"346 494 LINE"
);
},
{
closed = 1;
nodes = (
"103 391 OFFCURVE",
"115 435 OFFCURVE",
"142 471 OFFCURVE",
"188 493 OFFCURVE",
"227 493 QCURVE SMOOTH",
"259 493 OFFCURVE",
"296 481 OFFCURVE",
"317 464 OFFCURVE",
"326 448 OFFCURVE",
"329 445 QCURVE",
"292 186 LINE SMOOTH",
"290 175 OFFCURVE",
"276 115 OFFCURVE",
"242 52 OFFCURVE",
"182 3 OFFCURVE",
"135 3 QCURVE SMOOTH",
"105 3 OFFCURVE",
"73 25 OFFCURVE",
"61 61 OFFCURVE",
"63 105 OFFCURVE",
"66 127 QCURVE SMOOTH",
"100 369 LINE SMOOTH"
);
}
);
userData = {
assembly = "PUSHW[ ]	/* 4 values pushed */\01218 4 30 4 \012CALL[ ]	/* CallFunction */\012PUSHW[ ]	/* 1 value pushed */\01218 \012SRP0[ ]	/* SetRefPoint0 */\012PUSHW[ ]	/* 1 value pushed */\01220 \012MDRP[10000]	/* MoveDirectRelPt */\012PUSHW[ ]	/* 1 value pushed */\01220 \012MDAP[1]	/* MoveDirectAbsPt */\012SVTCA[0]	/* SetFreedomAndProjectionVectorToAxis */\012PUSHW[ ]	/* 1 value pushed */\0120 \012RCVT[ ]	/* ReadCVT */\012IF[ ]	/* If */\012PUSHW[ ]	/* 1 value pushed */\01240 \012MDAP[1]	/* MoveDirectAbsPt */\012ELSE[ ]	/* Else */\012PUSHW[ ]	/* 2 values pushed */\01240 9 \012MIAP[0]	/* MoveIndirectAbsPt */\012EIF[ ]	/* EndIf */\012PUSHW[ ]	/* 1 value pushed */\0120 \012RCVT[ ]	/* ReadCVT */\012IF[ ]	/* If */\012PUSHW[ ]	/* 1 value pushed */\01258 \012MDAP[1]	/* MoveDirectAbsPt */\012ELSE[ ]	/* Else */\012PUSHW[ ]	/* 2 values pushed */\01258 9 \012MIAP[0]	/* MoveIndirectAbsPt */\012EIF[ ]	/* EndIf */\012PUSHW[ ]	/* 1 value pushed */\0120 \012RCVT[ ]	/* ReadCVT */\012IF[ ]	/* If */\012PUSHW[ ]	/* 1 value pushed */\01218 \012MDAP[1]	/* MoveDirectAbsPt */\012ELSE[ ]	/* Else */\012PUSHW[ ]	/* 2 values pushed */\01218 5 \012MIAP[0]	/* MoveIndirectAbsPt */\012EIF[ ]	/* EndIf */\012PUSHW[ ]	/* 1 value pushed */\0120 \012RCVT[ ]	/* ReadCVT */\012IF[ ]	/* If */\012PUSHW[ ]	/* 1 value pushed */\01225 \012MDAP[1]	/* MoveDirectAbsPt */\012ELSE[ ]	/* Else */\012PUSHW[ ]	/* 2 values pushed */\01225 5 \012MIAP[0]	/* MoveIndirectAbsPt */\012EIF[ ]	/* EndIf */\012PUSHW[ ]	/* 1 value pushed */\0120 \012RCVT[ ]	/* ReadCVT */\012IF[ ]	/* If */\012PUSHW[ ]	/* 1 value pushed */\01247 \012MDAP[1]	/* MoveDirectAbsPt */\012ELSE[ ]	/* Else */\012PUSHW[ ]	/* 2 values pushed */\01247 5 \012MIAP[0]	/* MoveIndirectAbsPt */\012EIF[ ]	/* EndIf */\012PUSHW[ ]	/* 3 values pushed */\01220 25 40 \012SRP1[ ]	/* SetRefPoint1 */\012SRP2[ ]	/* SetRefPoint2 */\012IP[ ]	/* InterpolatePts */\012PUSHW[ ]	/* 3 values pushed */\01239 25 40 \012SRP1[ ]	/* SetRefPoint1 */\012SRP2[ ]	/* SetRefPoint2 */\012IP[ ]	/* InterpolatePts */\012IUP[0]	/* InterpolateUntPts */\012IUP[1]	/* InterpolateUntPts */";
};
width = 398;
}
);
leftKerningGroup = a;
note = abreve;
rightKerningGroup = n;
unicode = 0103;
},
{
color = 11;
glyphname = acircumflex;
lastChange = "2021-11-24 16:17:35 +0000";
layers = (
{
layerId = "9AA098C0-EDBC-463F-BC21-AFCD07A070D0";
paths = (
{
closed = 1;
nodes = (
"225 662 OFFCURVE",
"172 615 OFFCURVE",
"147 591 QCURVE",
"160 591 LINE",
"257 678 LINE",
"329 591 LINE",
"343 591 LINE",
"326 612 OFFCURVE",
"302 641 OFFCURVE",
"285 662 OFFCURVE",
"273 677 OFFCURVE",
"267 685 QCURVE",
"251 685 LINE"
);
},
{
closed = 1;
nodes = (
"335 494 LINE",
"331 466 LINE",
"327 475 OFFCURVE",
"278 503 OFFCURVE",
"228 503 QCURVE SMOOTH",
"186 503 OFFCURVE",
"134 479 OFFCURVE",
"106 442 OFFCURVE",
"93 395 OFFCURVE",
"90 372 QCURVE SMOOTH",
"54 124 LINE SMOOTH",
"51 101 OFFCURVE",
"50 54 OFFCURVE",
"64 16 OFFCURVE",
"98 -7 OFFCURVE",
"130 -7 QCURVE SMOOTH",
"164 -7 OFFCURVE",
"214 15 OFFCURVE",
"249 48 OFFCURVE",
"273 88 OFFCURVE",
"281 106 QCURVE",
"265 0 LINE",
"276 0 LINE",
"346 494 LINE"
);
},
{
closed = 1;
nodes = (
"103 391 OFFCURVE",
"115 435 OFFCURVE",
"142 471 OFFCURVE",
"188 493 OFFCURVE",
"227 493 QCURVE SMOOTH",
"259 493 OFFCURVE",
"296 481 OFFCURVE",
"317 464 OFFCURVE",
"326 448 OFFCURVE",
"329 445 QCURVE",
"292 186 LINE SMOOTH",
"290 175 OFFCURVE",
"276 115 OFFCURVE",
"242 52 OFFCURVE",
"182 3 OFFCURVE",
"135 3 QCURVE SMOOTH",
"105 3 OFFCURVE",
"73 25 OFFCURVE",
"61 61 OFFCURVE",
"63 105 OFFCURVE",
"66 127 QCURVE SMOOTH",
"100 369 LINE SMOOTH"
);
}
);
userData = {
assembly = "SVTCA[0]	/* SetFreedomAndProjectionVectorToAxis */\012PUSHW[ ]	/* 1 value pushed */\0120 \012RCVT[ ]	/* ReadCVT */\012IF[ ]	/* If */\012PUSHW[ ]	/* 1 value pushed */\0125 \012MDAP[1]	/* MoveDirectAbsPt */\012ELSE[ ]	/* Else */\012PUSHW[ ]	/* 2 values pushed */\0125 11 \012MIAP[0]	/* MoveIndirectAbsPt */\012EIF[ ]	/* EndIf */\012PUSHW[ ]	/* 1 value pushed */\0120 \012RCVT[ ]	/* ReadCVT */\012IF[ ]	/* If */\012PUSHW[ ]	/* 1 value pushed */\0128 \012MDAP[1]	/* MoveDirectAbsPt */\012ELSE[ ]	/* Else */\012PUSHW[ ]	/* 2 values pushed */\0128 11 \012MIAP[0]	/* MoveIndirectAbsPt */\012EIF[ ]	/* EndIf */\012PUSHW[ ]	/* 1 value pushed */\0120 \012RCVT[ ]	/* ReadCVT */\012IF[ ]	/* If */\012PUSHW[ ]	/* 1 value pushed */\01235 \012MDAP[1]	/* MoveDirectAbsPt */\012ELSE[ ]	/* Else */\012PUSHW[ ]	/* 2 values pushed */\01235 9 \012MIAP[0]	/* MoveIndirectAbsPt */\012EIF[ ]	/* EndIf */\012PUSHW[ ]	/* 1 value pushed */\0120 \012RCVT[ ]	/* ReadCVT */\012IF[ ]	/* If */\012PUSHW[ ]	/* 1 value pushed */\01253 \012MDAP[1]	/* MoveDirectAbsPt */\012ELSE[ ]	/* Else */\012PUSHW[ ]	/* 2 values pushed */\01253 9 \012MIAP[0]	/* MoveIndirectAbsPt */\012EIF[ ]	/* EndIf */\012PUSHW[ ]	/* 1 value pushed */\0120 \012RCVT[ ]	/* ReadCVT */\012IF[ ]	/* If */\012PUSHW[ ]	/* 1 value pushed */\01213 \012MDAP[1]	/* MoveDirectAbsPt */\012ELSE[ ]	/* Else */\012PUSHW[ ]	/* 2 values pushed */\01213 5 \012MIAP[0]	/* MoveIndirectAbsPt */\012EIF[ ]	/* EndIf */\012PUSHW[ ]	/* 1 value pushed */\0120 \012RCVT[ ]	/* ReadCVT */\012IF[ ]	/* If */\012PUSHW[ ]	/* 1 value pushed */\01220 \012MDAP[1]	/* MoveDirectAbsPt */\012ELSE[ ]	/* Else */\012PUSHW[ ]	/* 2 values pushed */\01220 5 \012MIAP[0]	/* MoveIndirectAbsPt */\012EIF[ ]	/* EndIf */\012PUSHW[ ]	/* 1 value pushed */\0120 \012RCVT[ ]	/* ReadCVT */\012IF[ ]	/* If */\012PUSHW[ ]	/* 1 value pushed */\01242 \012MDAP[1]	/* MoveDirectAbsPt */\012ELSE[ ]	/* Else */\012PUSHW[ ]	/* 2 values pushed */\01242 5 \012MIAP[0]	/* MoveIndirectAbsPt */\012EIF[ ]	/* EndIf */\012PUSHW[ ]	/* 4 values pushed */\0120 3 6 4 \012CALL[ ]	/* CallFunction */\012PUSHW[ ]	/* 1 value pushed */\0126 \012SRP0[ ]	/* SetRefPoint0 */\012PUSHW[ ]	/* 1 value pushed */\0129 \012MDRP[10000]	/* MoveDirectRelPt */\012PUSHW[ ]	/* 3 values pushed */\01215 20 5 \012SRP1[ ]	/* SetRefPoint1 */\012SRP2[ ]	/* SetRefPoint2 */\012IP[ ]	/* InterpolatePts */\012PUSHW[ ]	/* 3 values pushed */\01234 20 5 \012SRP1[ ]	/* SetRefPoint1 */\012SRP2[ ]	/* SetRefPoint2 */\012IP[ ]	/* InterpolatePts */\012IUP[0]	/* InterpolateUntPts */\012IUP[1]	/* InterpolateUntPts */";
};
width = 398;
}
);
leftKerningGroup = a;
note = acircumflex;
rightKerningGroup = n;
unicode = 00E2;
},
{
color = 11;
glyphname = adieresis;
lastChange = "2021-11-24 16:17:35 +0000";
layers = (
{
layerId = "9AA098C0-EDBC-463F-BC21-AFCD07A070D0";
paths = (
{
closed = 1;
nodes = (
"307 591 QCURVE SMOOTH",
"323 591 OFFCURVE",
"325 607 QCURVE SMOOTH",
"327 623 OFFCURVE",
"311 623 QCURVE SMOOTH",
"295 623 OFFCURVE",
"293 607 QCURVE SMOOTH",
"291 591 OFFCURVE"
);
},
{
closed = 1;
nodes = (
"211 591 QCURVE SMOOTH",
"227 591 OFFCURVE",
"229 607 QCURVE SMOOTH",
"231 623 OFFCURVE",
"215 623 QCURVE SMOOTH",
"199 623 OFFCURVE",
"197 607 QCURVE SMOOTH",
"195 591 OFFCURVE"
);
},
{
closed = 1;
nodes = (
"335 494 LINE",
"331 466 LINE",
"327 475 OFFCURVE",
"278 503 OFFCURVE",
"228 503 QCURVE SMOOTH",
"186 503 OFFCURVE",
"134 479 OFFCURVE",
"106 442 OFFCURVE",
"93 395 OFFCURVE",
"90 372 QCURVE SMOOTH",
"54 124 LINE SMOOTH",
"51 101 OFFCURVE",
"50 54 OFFCURVE",
"64 16 OFFCURVE",
"98 -7 OFFCURVE",
"130 -7 QCURVE SMOOTH",
"164 -7 OFFCURVE",
"214 15 OFFCURVE",
"249 48 OFFCURVE",
"273 88 OFFCURVE",
"281 106 QCURVE",
"265 0 LINE",
"276 0 LINE",
"346 494 LINE"
);
},
{
closed = 1;
nodes = (
"103 391 OFFCURVE",
"115 435 OFFCURVE",
"142 471 OFFCURVE",
"188 493 OFFCURVE",
"227 493 QCURVE SMOOTH",
"259 493 OFFCURVE",
"296 481 OFFCURVE",
"317 464 OFFCURVE",
"326 448 OFFCURVE",
"329 445 QCURVE",
"292 186 LINE SMOOTH",
"290 175 OFFCURVE",
"276 115 OFFCURVE",
"242 52 OFFCURVE",
"182 3 OFFCURVE",
"135 3 QCURVE SMOOTH",
"105 3 OFFCURVE",
"73 25 OFFCURVE",
"61 61 OFFCURVE",
"63 105 OFFCURVE",
"66 127 QCURVE SMOOTH",
"100 369 LINE SMOOTH"
);
}
);
userData = {
assembly = "PUSHW[ ]	/* 4 values pushed */\01238 4 8 4 \012CALL[ ]	/* CallFunction */\012PUSHW[ ]	/* 3 values pushed */\01218 8 38 \012SRP1[ ]	/* SetRefPoint1 */\012SRP2[ ]	/* SetRefPoint2 */\012IP[ ]	/* InterpolatePts */\012PUSHW[ ]	/* 1 value pushed */\01238 \012SRP0[ ]	/* SetRefPoint0 */\012PUSHW[ ]	/* 1 value pushed */\01251 \012MDRP[10000]	/* MoveDirectRelPt */\012PUSHW[ ]	/* 1 value pushed */\01251 \012MDAP[1]	/* MoveDirectAbsPt */\012PUSHW[ ]	/* 1 value pushed */\01238 \012SRP0[ ]	/* SetRefPoint0 */\012PUSHW[ ]	/* 1 value pushed */\01263 \012MDRP[11100]	/* MoveDirectRelPt */\012SVTCA[0]	/* SetFreedomAndProjectionVectorToAxis */\012PUSHW[ ]	/* 1 value pushed */\0120 \012RCVT[ ]	/* ReadCVT */\012IF[ ]	/* If */\012PUSHW[ ]	/* 1 value pushed */\0126 \012MDAP[1]	/* MoveDirectAbsPt */\012ELSE[ ]	/* Else */\012PUSHW[ ]	/* 2 values pushed */\0126 11 \012MIAP[0]	/* MoveIndirectAbsPt */\012EIF[ ]	/* EndIf */\012PUSHW[ ]	/* 1 value pushed */\0120 \012RCVT[ ]	/* ReadCVT */\012IF[ ]	/* If */\012PUSHW[ ]	/* 1 value pushed */\01214 \012MDAP[1]	/* MoveDirectAbsPt */\012ELSE[ ]	/* Else */\012PUSHW[ ]	/* 2 values pushed */\01214 11 \012MIAP[0]	/* MoveIndirectAbsPt */\012EIF[ ]	/* EndIf */\012PUSHW[ ]	/* 1 value pushed */\0120 \012RCVT[ ]	/* ReadCVT */\012IF[ ]	/* If */\012PUSHW[ ]	/* 1 value pushed */\01238 \012MDAP[1]	/* MoveDirectAbsPt */\012ELSE[ ]	/* Else */\012PUSHW[ ]	/* 2 values pushed */\01238 9 \012MIAP[0]	/* MoveIndirectAbsPt */\012EIF[ ]	/* EndIf */\012PUSHW[ ]	/* 1 value pushed */\0120 \012RCVT[ ]	/* ReadCVT */\012IF[ ]	/* If */\012PUSHW[ ]	/* 1 value pushed */\01256 \012MDAP[1]	/* MoveDirectAbsPt */\012ELSE[ ]	/* Else */\012PUSHW[ ]	/* 2 values pushed */\01256 9 \012MIAP[0]	/* MoveIndirectAbsPt */\012EIF[ ]	/* EndIf */\012PUSHW[ ]	/* 1 value pushed */\0120 \012RCVT[ ]	/* ReadCVT */\012IF[ ]	/* If */\012PUSHW[ ]	/* 1 value pushed */\01216 \012MDAP[1]	/* MoveDirectAbsPt */\012ELSE[ ]	/* Else */\012PUSHW[ ]	/* 2 values pushed */\01216 5 \012MIAP[0]	/* MoveIndirectAbsPt */\012EIF[ ]	/* EndIf */\012PUSHW[ ]	/* 1 value pushed */\0120 \012RCVT[ ]	/* ReadCVT */\012IF[ ]	/* If */\012PUSHW[ ]	/* 1 value pushed */\01223 \012MDAP[1]	/* MoveDirectAbsPt */\012ELSE[ ]	/* Else */\012PUSHW[ ]	/* 2 values pushed */\01223 5 \012MIAP[0]	/* MoveIndirectAbsPt */\012EIF[ ]	/* EndIf */\012PUSHW[ ]	/* 1 value pushed */\0120 \012RCVT[ ]	/* ReadCVT */\012IF[ ]	/* If */\012PUSHW[ ]	/* 1 value pushed */\01245 \012MDAP[1]	/* MoveDirectAbsPt */\012ELSE[ ]	/* Else */\012PUSHW[ ]	/* 2 values pushed */\01245 5 \012MIAP[0]	/* MoveIndirectAbsPt */\012EIF[ ]	/* EndIf */\012PUSHW[ ]	/* 3 values pushed */\01218 23 6 \012SRP1[ ]	/* SetRefPoint1 */\012SRP2[ ]	/* SetRefPoint2 */\012IP[ ]	/* InterpolatePts */\012PUSHW[ ]	/* 3 values pushed */\01237 23 6 \012SRP1[ ]	/* SetRefPoint1 */\012SRP2[ ]	/* SetRefPoint2 */\012IP[ ]	/* InterpolatePts */\012IUP[0]	/* InterpolateUntPts */\012IUP[1]	/* InterpolateUntPts */";
};
width = 398;
}
);
leftKerningGroup = a;
note = adieresis;
rightKerningGroup = n;
unicode = 00E4;
},
{
color = 11;
glyphname = agrave;
lastChange = "2021-11-24 16:17:35 +0000";
layers = (
{
layerId = "9AA098C0-EDBC-463F-BC21-AFCD07A070D0";
paths = (
{
closed = 1;
nodes = (
"265 591 LINE",
"215 677 LINE",
"193 677 LINE",
"254 591 LINE"
);
},
{
closed = 1;
nodes = (
"335 494 LINE",
"331 466 LINE",
"327 475 OFFCURVE",
"278 503 OFFCURVE",
"228 503 QCURVE SMOOTH",
"186 503 OFFCURVE",
"134 479 OFFCURVE",
"106 442 OFFCURVE",
"93 395 OFFCURVE",
"90 372 QCURVE SMOOTH",
"54 124 LINE SMOOTH",
"51 101 OFFCURVE",
"50 54 OFFCURVE",
"64 16 OFFCURVE",
"98 -7 OFFCURVE",
"130 -7 QCURVE SMOOTH",
"164 -7 OFFCURVE",
"214 15 OFFCURVE",
"249 48 OFFCURVE",
"273 88 OFFCURVE",
"281 106 QCURVE",
"265 0 LINE",
"276 0 LINE",
"346 494 LINE"
);
},
{
closed = 1;
nodes = (
"103 391 OFFCURVE",
"115 435 OFFCURVE",
"142 471 OFFCURVE",
"188 493 OFFCURVE",
"227 493 QCURVE SMOOTH",
"259 493 OFFCURVE",
"296 481 OFFCURVE",
"317 464 OFFCURVE",
"326 448 OFFCURVE",
"329 445 QCURVE",
"292 186 LINE SMOOTH",
"290 175 OFFCURVE",
"276 115 OFFCURVE",
"242 52 OFFCURVE",
"182 3 OFFCURVE",
"135 3 QCURVE SMOOTH",
"105 3 OFFCURVE",
"73 25 OFFCURVE",
"61 61 OFFCURVE",
"63 105 OFFCURVE",
"66 127 QCURVE SMOOTH",
"100 369 LINE SMOOTH"
);
}
);
userData = {
assembly = "SVTCA[0]	/* SetFreedomAndProjectionVectorToAxis */\012PUSHW[ ]	/* 1 value pushed */\0120 \012RCVT[ ]	/* ReadCVT */\012IF[ ]	/* If */\012PUSHW[ ]	/* 1 value pushed */\0122 \012MDAP[1]	/* MoveDirectAbsPt */\012ELSE[ ]	/* Else */\012PUSHW[ ]	/* 2 values pushed */\0122 11 \012MIAP[0]	/* MoveIndirectAbsPt */\012EIF[ ]	/* EndIf */\012PUSHW[ ]	/* 1 value pushed */\0120 \012RCVT[ ]	/* ReadCVT */\012IF[ ]	/* If */\012PUSHW[ ]	/* 1 value pushed */\01226 \012MDAP[1]	/* MoveDirectAbsPt */\012ELSE[ ]	/* Else */\012PUSHW[ ]	/* 2 values pushed */\01226 9 \012MIAP[0]	/* MoveIndirectAbsPt */\012EIF[ ]	/* EndIf */\012PUSHW[ ]	/* 1 value pushed */\0120 \012RCVT[ ]	/* ReadCVT */\012IF[ ]	/* If */\012PUSHW[ ]	/* 1 value pushed */\01244 \012MDAP[1]	/* MoveDirectAbsPt */\012ELSE[ ]	/* Else */\012PUSHW[ ]	/* 2 values pushed */\01244 9 \012MIAP[0]	/* MoveIndirectAbsPt */\012EIF[ ]	/* EndIf */\012PUSHW[ ]	/* 1 value pushed */\0120 \012RCVT[ ]	/* ReadCVT */\012IF[ ]	/* If */\012PUSHW[ ]	/* 1 value pushed */\0124 \012MDAP[1]	/* MoveDirectAbsPt */\012ELSE[ ]	/* Else */\012PUSHW[ ]	/* 2 values pushed */\0124 5 \012MIAP[0]	/* MoveIndirectAbsPt */\012EIF[ ]	/* EndIf */\012PUSHW[ ]	/* 1 value pushed */\0120 \012RCVT[ ]	/* ReadCVT */\012IF[ ]	/* If */\012PUSHW[ ]	/* 1 value pushed */\01211 \012MDAP[1]	/* MoveDirectAbsPt */\012ELSE[ ]	/* Else */\012PUSHW[ ]	/* 2 values pushed */\01211 5 \012MIAP[0]	/* MoveIndirectAbsPt */\012EIF[ ]	/* EndIf */\012PUSHW[ ]	/* 1 value pushed */\0120 \012RCVT[ ]	/* ReadCVT */\012IF[ ]	/* If */\012PUSHW[ ]	/* 1 value pushed */\01233 \012MDAP[1]	/* MoveDirectAbsPt */\012ELSE[ ]	/* Else */\012PUSHW[ ]	/* 2 values pushed */\01233 5 \012MIAP[0]	/* MoveIndirectAbsPt */\012EIF[ ]	/* EndIf */\012PUSHW[ ]	/* 4 values pushed */\0121 3 3 4 \012CALL[ ]	/* CallFunction */\012PUSHW[ ]	/* 3 values pushed */\0126 11 2 \012SRP1[ ]	/* SetRefPoint1 */\012SRP2[ ]	/* SetRefPoint2 */\012IP[ ]	/* InterpolatePts */\012PUSHW[ ]	/* 3 values pushed */\01225 11 2 \012SRP1[ ]	/* SetRefPoint1 */\012SRP2[ ]	/* SetRefPoint2 */\012IP[ ]	/* InterpolatePts */\012IUP[0]	/* InterpolateUntPts */\012IUP[1]	/* InterpolateUntPts */";
};
width = 398;
}
);
leftKerningGroup = a;
note = agrave;
rightKerningGroup = n;
unicode = 00E0;
},
{
color = 11;
glyphname = amacron;
lastChange = "2021-11-24 16:17:35 +0000";
layers = (
{
layerId = "9AA098C0-EDBC-463F-BC21-AFCD07A070D0";
paths = (
{
closed = 1;
nodes = (
"347 607 LINE",
"348 616 LINE",
"147 616 LINE",
"146 607 LINE"
);
},
{
closed = 1;
nodes = (
"335 494 LINE",
"331 466 LINE",
"327 475 OFFCURVE",
"278 503 OFFCURVE",
"228 503 QCURVE SMOOTH",
"186 503 OFFCURVE",
"134 479 OFFCURVE",
"106 442 OFFCURVE",
"93 395 OFFCURVE",
"90 372 QCURVE SMOOTH",
"54 124 LINE SMOOTH",
"51 101 OFFCURVE",
"50 54 OFFCURVE",
"64 16 OFFCURVE",
"98 -7 OFFCURVE",
"130 -7 QCURVE SMOOTH",
"164 -7 OFFCURVE",
"214 15 OFFCURVE",
"249 48 OFFCURVE",
"273 88 OFFCURVE",
"281 106 QCURVE",
"265 0 LINE",
"276 0 LINE",
"346 494 LINE"
);
},
{
closed = 1;
nodes = (
"103 391 OFFCURVE",
"115 435 OFFCURVE",
"142 471 OFFCURVE",
"188 493 OFFCURVE",
"227 493 QCURVE SMOOTH",
"259 493 OFFCURVE",
"296 481 OFFCURVE",
"317 464 OFFCURVE",
"326 448 OFFCURVE",
"329 445 QCURVE",
"292 186 LINE SMOOTH",
"290 175 OFFCURVE",
"276 115 OFFCURVE",
"242 52 OFFCURVE",
"182 3 OFFCURVE",
"135 3 QCURVE SMOOTH",
"105 3 OFFCURVE",
"73 25 OFFCURVE",
"61 61 OFFCURVE",
"63 105 OFFCURVE",
"66 127 QCURVE SMOOTH",
"100 369 LINE SMOOTH"
);
}
);
userData = {
assembly = "SVTCA[0]	/* SetFreedomAndProjectionVectorToAxis */\012PUSHW[ ]	/* 1 value pushed */\0120 \012RCVT[ ]	/* ReadCVT */\012IF[ ]	/* If */\012PUSHW[ ]	/* 1 value pushed */\01226 \012MDAP[1]	/* MoveDirectAbsPt */\012ELSE[ ]	/* Else */\012PUSHW[ ]	/* 2 values pushed */\01226 9 \012MIAP[0]	/* MoveIndirectAbsPt */\012EIF[ ]	/* EndIf */\012PUSHW[ ]	/* 1 value pushed */\0120 \012RCVT[ ]	/* ReadCVT */\012IF[ ]	/* If */\012PUSHW[ ]	/* 1 value pushed */\01244 \012MDAP[1]	/* MoveDirectAbsPt */\012ELSE[ ]	/* Else */\012PUSHW[ ]	/* 2 values pushed */\01244 9 \012MIAP[0]	/* MoveIndirectAbsPt */\012EIF[ ]	/* EndIf */\012PUSHW[ ]	/* 1 value pushed */\0120 \012RCVT[ ]	/* ReadCVT */\012IF[ ]	/* If */\012PUSHW[ ]	/* 1 value pushed */\0124 \012MDAP[1]	/* MoveDirectAbsPt */\012ELSE[ ]	/* Else */\012PUSHW[ ]	/* 2 values pushed */\0124 5 \012MIAP[0]	/* MoveIndirectAbsPt */\012EIF[ ]	/* EndIf */\012PUSHW[ ]	/* 1 value pushed */\0120 \012RCVT[ ]	/* ReadCVT */\012IF[ ]	/* If */\012PUSHW[ ]	/* 1 value pushed */\01211 \012MDAP[1]	/* MoveDirectAbsPt */\012ELSE[ ]	/* Else */\012PUSHW[ ]	/* 2 values pushed */\01211 5 \012MIAP[0]	/* MoveIndirectAbsPt */\012EIF[ ]	/* EndIf */\012PUSHW[ ]	/* 1 value pushed */\0120 \012RCVT[ ]	/* ReadCVT */\012IF[ ]	/* If */\012PUSHW[ ]	/* 1 value pushed */\01233 \012MDAP[1]	/* MoveDirectAbsPt */\012ELSE[ ]	/* Else */\012PUSHW[ ]	/* 2 values pushed */\01233 5 \012MIAP[0]	/* MoveIndirectAbsPt */\012EIF[ ]	/* EndIf */\012PUSHW[ ]	/* 3 values pushed */\0126 11 26 \012SRP1[ ]	/* SetRefPoint1 */\012SRP2[ ]	/* SetRefPoint2 */\012IP[ ]	/* InterpolatePts */\012PUSHW[ ]	/* 3 values pushed */\01225 11 26 \012SRP1[ ]	/* SetRefPoint1 */\012SRP2[ ]	/* SetRefPoint2 */\012IP[ ]	/* InterpolatePts */\012IUP[0]	/* InterpolateUntPts */\012IUP[1]	/* InterpolateUntPts */";
};
width = 400;
}
);
leftKerningGroup = a;
note = amacron;
rightKerningGroup = n;
unicode = 0101;
},
{
color = 11;
glyphname = aogonek;
lastChange = "2021-11-24 16:17:35 +0000";
layers = (
{
layerId = "9AA098C0-EDBC-463F-BC21-AFCD07A070D0";
paths = (
{
closed = 1;
nodes = (
"335 494 LINE",
"331 466 LINE",
"327 475 OFFCURVE",
"278 503 OFFCURVE",
"228 503 QCURVE SMOOTH",
"186 503 OFFCURVE",
"134 479 OFFCURVE",
"106 442 OFFCURVE",
"93 395 OFFCURVE",
"90 372 QCURVE SMOOTH",
"54 124 LINE SMOOTH",
"51 101 OFFCURVE",
"50 54 OFFCURVE",
"64 16 OFFCURVE",
"98 -7 OFFCURVE",
"130 -7 QCURVE SMOOTH",
"164 -7 OFFCURVE",
"214 15 OFFCURVE",
"249 48 OFFCURVE",
"273 88 OFFCURVE",
"281 106 QCURVE",
"265 0 LINE",
"244 -11 OFFCURVE",
"204 -46 OFFCURVE",
"170 -87 OFFCURVE",
"146 -133 OFFCURVE",
"143 -156 QCURVE SMOOTH",
"140 -179 OFFCURVE",
"151 -210 OFFCURVE",
"175 -231 OFFCURVE",
"208 -240 OFFCURVE",
"227 -240 QCURVE SMOOTH",
"251 -240 OFFCURVE",
"296 -230 OFFCURVE",
"310 -222 QCURVE",
"308 -212 LINE",
"271 -229 OFFCURVE",
"227 -229 QCURVE SMOOTH",
"189 -229 OFFCURVE",
"151 -188 OFFCURVE",
"156 -154 QCURVE SMOOTH",
"158 -136 OFFCURVE",
"181 -93 OFFCURVE",
"214 -51 OFFCURVE",
"255 -13 OFFCURVE",
"276 0 QCURVE",
"346 494 LINE"
);
},
{
closed = 1;
nodes = (
"103 391 OFFCURVE",
"115 435 OFFCURVE",
"142 471 OFFCURVE",
"188 493 OFFCURVE",
"227 493 QCURVE SMOOTH",
"259 493 OFFCURVE",
"296 481 OFFCURVE",
"317 464 OFFCURVE",
"326 448 OFFCURVE",
"329 445 QCURVE",
"292 186 LINE SMOOTH",
"290 175 OFFCURVE",
"276 115 OFFCURVE",
"242 52 OFFCURVE",
"182 3 OFFCURVE",
"135 3 QCURVE SMOOTH",
"105 3 OFFCURVE",
"73 25 OFFCURVE",
"61 61 OFFCURVE",
"63 105 OFFCURVE",
"66 127 QCURVE SMOOTH",
"100 369 LINE SMOOTH"
);
}
);
userData = {
assembly = "SVTCA[0]	/* SetFreedomAndProjectionVectorToAxis */\012PUSHW[ ]	/* 1 value pushed */\0120 \012RCVT[ ]	/* ReadCVT */\012IF[ ]	/* If */\012PUSHW[ ]	/* 1 value pushed */\01245 \012MDAP[1]	/* MoveDirectAbsPt */\012ELSE[ ]	/* Else */\012PUSHW[ ]	/* 2 values pushed */\01245 9 \012MIAP[0]	/* MoveIndirectAbsPt */\012EIF[ ]	/* EndIf */\012PUSHW[ ]	/* 1 value pushed */\0120 \012RCVT[ ]	/* ReadCVT */\012IF[ ]	/* If */\012PUSHW[ ]	/* 1 value pushed */\01263 \012MDAP[1]	/* MoveDirectAbsPt */\012ELSE[ ]	/* Else */\012PUSHW[ ]	/* 2 values pushed */\01263 9 \012MIAP[0]	/* MoveIndirectAbsPt */\012EIF[ ]	/* EndIf */\012PUSHW[ ]	/* 1 value pushed */\0120 \012RCVT[ ]	/* ReadCVT */\012IF[ ]	/* If */\012PUSHW[ ]	/* 1 value pushed */\0120 \012MDAP[1]	/* MoveDirectAbsPt */\012ELSE[ ]	/* Else */\012PUSHW[ ]	/* 2 values pushed */\0120 5 \012MIAP[0]	/* MoveIndirectAbsPt */\012EIF[ ]	/* EndIf */\012PUSHW[ ]	/* 1 value pushed */\0120 \012RCVT[ ]	/* ReadCVT */\012IF[ ]	/* If */\012PUSHW[ ]	/* 1 value pushed */\01224 \012MDAP[1]	/* MoveDirectAbsPt */\012ELSE[ ]	/* Else */\012PUSHW[ ]	/* 2 values pushed */\01224 5 \012MIAP[0]	/* MoveIndirectAbsPt */\012EIF[ ]	/* EndIf */\012PUSHW[ ]	/* 1 value pushed */\0120 \012RCVT[ ]	/* ReadCVT */\012IF[ ]	/* If */\012PUSHW[ ]	/* 1 value pushed */\01230 \012MDAP[1]	/* MoveDirectAbsPt */\012ELSE[ ]	/* Else */\012PUSHW[ ]	/* 2 values pushed */\01230 5 \012MIAP[0]	/* MoveIndirectAbsPt */\012EIF[ ]	/* EndIf */\012PUSHW[ ]	/* 1 value pushed */\0120 \012RCVT[ ]	/* ReadCVT */\012IF[ ]	/* If */\012PUSHW[ ]	/* 1 value pushed */\01252 \012MDAP[1]	/* MoveDirectAbsPt */\012ELSE[ ]	/* Else */\012PUSHW[ ]	/* 2 values pushed */\01252 5 \012MIAP[0]	/* MoveIndirectAbsPt */\012EIF[ ]	/* EndIf */\012PUSHW[ ]	/* 3 values pushed */\01225 30 45 \012SRP1[ ]	/* SetRefPoint1 */\012SRP2[ ]	/* SetRefPoint2 */\012IP[ ]	/* InterpolatePts */\012PUSHW[ ]	/* 3 values pushed */\01244 30 45 \012SRP1[ ]	/* SetRefPoint1 */\012SRP2[ ]	/* SetRefPoint2 */\012IP[ ]	/* InterpolatePts */\012IUP[0]	/* InterpolateUntPts */\012IUP[1]	/* InterpolateUntPts */";
};
width = 393;
}
);
leftKerningGroup = a;
note = aogonek;
rightKerningGroup = n;
unicode = 0105;
},
{
color = 11;
glyphname = aring;
lastChange = "2021-11-24 16:17:35 +0000";
layers = (
{
layerId = "9AA098C0-EDBC-463F-BC21-AFCD07A070D0";
paths = (
{
closed = 1;
nodes = (
"212 591 OFFCURVE",
"243 591 QCURVE SMOOTH",
"274 591 OFFCURVE",
"323 635 OFFCURVE",
"328 666 QCURVE SMOOTH",
"333 697 OFFCURVE",
"295 741 OFFCURVE",
"264 741 QCURVE SMOOTH",
"233 741 OFFCURVE",
"183 697 OFFCURVE",
"178 666 QCURVE SMOOTH",
"173 635 OFFCURVE"
);
},
{
closed = 1;
nodes = (
"234 731 OFFCURVE",
"262 731 QCURVE SMOOTH",
"290 731 OFFCURVE",
"320 694 OFFCURVE",
"316 666 QCURVE SMOOTH",
"312 638 OFFCURVE",
"272 601 OFFCURVE",
"244 601 QCURVE SMOOTH",
"216 601 OFFCURVE",
"186 638 OFFCURVE",
"190 666 QCURVE SMOOTH",
"194 694 OFFCURVE"
);
},
{
closed = 1;
nodes = (
"335 494 LINE",
"331 466 LINE",
"327 475 OFFCURVE",
"278 503 OFFCURVE",
"228 503 QCURVE SMOOTH",
"186 503 OFFCURVE",
"134 479 OFFCURVE",
"106 442 OFFCURVE",
"93 395 OFFCURVE",
"90 372 QCURVE SMOOTH",
"54 124 LINE SMOOTH",
"51 101 OFFCURVE",
"50 54 OFFCURVE",
"64 16 OFFCURVE",
"98 -7 OFFCURVE",
"130 -7 QCURVE SMOOTH",
"164 -7 OFFCURVE",
"214 15 OFFCURVE",
"249 48 OFFCURVE",
"273 88 OFFCURVE",
"281 106 QCURVE",
"265 0 LINE",
"276 0 LINE",
"346 494 LINE"
);
},
{
closed = 1;
nodes = (
"103 391 OFFCURVE",
"115 435 OFFCURVE",
"142 471 OFFCURVE",
"188 493 OFFCURVE",
"227 493 QCURVE SMOOTH",
"259 493 OFFCURVE",
"296 481 OFFCURVE",
"317 464 OFFCURVE",
"326 448 OFFCURVE",
"329 445 QCURVE",
"292 186 LINE SMOOTH",
"290 175 OFFCURVE",
"276 115 OFFCURVE",
"242 52 OFFCURVE",
"182 3 OFFCURVE",
"135 3 QCURVE SMOOTH",
"105 3 OFFCURVE",
"73 25 OFFCURVE",
"61 61 OFFCURVE",
"63 105 OFFCURVE",
"66 127 QCURVE SMOOTH",
"100 369 LINE SMOOTH"
);
}
);
userData = {
assembly = "SVTCA[0]	/* SetFreedomAndProjectionVectorToAxis */\012PUSHW[ ]	/* 1 value pushed */\0120 \012RCVT[ ]	/* ReadCVT */\012IF[ ]	/* If */\012PUSHW[ ]	/* 1 value pushed */\0129 \012MDAP[1]	/* MoveDirectAbsPt */\012ELSE[ ]	/* Else */\012PUSHW[ ]	/* 2 values pushed */\0129 11 \012MIAP[0]	/* MoveIndirectAbsPt */\012EIF[ ]	/* EndIf */\012PUSHW[ ]	/* 1 value pushed */\0120 \012RCVT[ ]	/* ReadCVT */\012IF[ ]	/* If */\012PUSHW[ ]	/* 1 value pushed */\01246 \012MDAP[1]	/* MoveDirectAbsPt */\012ELSE[ ]	/* Else */\012PUSHW[ ]	/* 2 values pushed */\01246 9 \012MIAP[0]	/* MoveIndirectAbsPt */\012EIF[ ]	/* EndIf */\012PUSHW[ ]	/* 1 value pushed */\0120 \012RCVT[ ]	/* ReadCVT */\012IF[ ]	/* If */\012PUSHW[ ]	/* 1 value pushed */\01264 \012MDAP[1]	/* MoveDirectAbsPt */\012ELSE[ ]	/* Else */\012PUSHW[ ]	/* 2 values pushed */\01264 9 \012MIAP[0]	/* MoveIndirectAbsPt */\012EIF[ ]	/* EndIf */\012PUSHW[ ]	/* 1 value pushed */\0120 \012RCVT[ ]	/* ReadCVT */\012IF[ ]	/* If */\012PUSHW[ ]	/* 1 value pushed */\01224 \012MDAP[1]	/* MoveDirectAbsPt */\012ELSE[ ]	/* Else */\012PUSHW[ ]	/* 2 values pushed */\01224 5 \012MIAP[0]	/* MoveIndirectAbsPt */\012EIF[ ]	/* EndIf */\012PUSHW[ ]	/* 1 value pushed */\0120 \012RCVT[ ]	/* ReadCVT */\012IF[ ]	/* If */\012PUSHW[ ]	/* 1 value pushed */\01231 \012MDAP[1]	/* MoveDirectAbsPt */\012ELSE[ ]	/* Else */\012PUSHW[ ]	/* 2 values pushed */\01231 5 \012MIAP[0]	/* MoveIndirectAbsPt */\012EIF[ ]	/* EndIf */\012PUSHW[ ]	/* 1 value pushed */\0120 \012RCVT[ ]	/* ReadCVT */\012IF[ ]	/* If */\012PUSHW[ ]	/* 1 value pushed */\01253 \012MDAP[1]	/* MoveDirectAbsPt */\012ELSE[ ]	/* Else */\012PUSHW[ ]	/* 2 values pushed */\01253 5 \012MIAP[0]	/* MoveIndirectAbsPt */\012EIF[ ]	/* EndIf */\012PUSHW[ ]	/* 3 values pushed */\01226 31 9 \012SRP1[ ]	/* SetRefPoint1 */\012SRP2[ ]	/* SetRefPoint2 */\012IP[ ]	/* InterpolatePts */\012PUSHW[ ]	/* 3 values pushed */\01245 31 9 \012SRP1[ ]	/* SetRefPoint1 */\012SRP2[ ]	/* SetRefPoint2 */\012IP[ ]	/* InterpolatePts */\012IUP[0]	/* InterpolateUntPts */\012IUP[1]	/* InterpolateUntPts */";
};
width = 398;
}
);
leftKerningGroup = a;
note = aring;
rightKerningGroup = n;
unicode = 00E5;
},
{
color = 11;
glyphname = atilde;
lastChange = "2021-11-24 16:17:35 +0000";
layers = (
{
layerId = "9AA098C0-EDBC-463F-BC21-AFCD07A070D0";
paths = (
{
closed = 1;
nodes = (
"357 619 OFFCURVE",
"363 639 QCURVE",
"354 639 LINE",
"348 615 OFFCURVE",
"318 600 OFFCURVE",
"300 600 QCURVE SMOOTH",
"285 600 OFFCURVE",
"260 613 OFFCURVE",
"237 628 OFFCURVE",
"213 641 OFFCURVE",
"198 641 QCURVE SMOOTH",
"172 641 OFFCURVE",
"139 615 OFFCURVE",
"133 595 QCURVE",
"143 595 LINE",
"149 618 OFFCURVE",
"178 633 OFFCURVE",
"196 633 QCURVE SMOOTH",
"208 633 OFFCURVE",
"230 622 OFFCURVE",
"238 616 QCURVE SMOOTH",
"275 591 OFFCURVE",
"299 591 QCURVE SMOOTH",
"324 591 OFFCURVE"
);
},
{
closed = 1;
nodes = (
"335 494 LINE",
"331 466 LINE",
"327 475 OFFCURVE",
"278 503 OFFCURVE",
"228 503 QCURVE SMOOTH",
"186 503 OFFCURVE",
"134 479 OFFCURVE",
"106 442 OFFCURVE",
"93 395 OFFCURVE",
"90 372 QCURVE SMOOTH",
"54 124 LINE SMOOTH",
"51 101 OFFCURVE",
"50 54 OFFCURVE",
"64 16 OFFCURVE",
"98 -7 OFFCURVE",
"130 -7 QCURVE SMOOTH",
"164 -7 OFFCURVE",
"214 15 OFFCURVE",
"249 48 OFFCURVE",
"273 88 OFFCURVE",
"281 106 QCURVE",
"265 0 LINE",
"276 0 LINE",
"346 494 LINE"
);
},
{
closed = 1;
nodes = (
"103 391 OFFCURVE",
"115 435 OFFCURVE",
"142 471 OFFCURVE",
"188 493 OFFCURVE",
"227 493 QCURVE SMOOTH",
"259 493 OFFCURVE",
"296 481 OFFCURVE",
"317 464 OFFCURVE",
"326 448 OFFCURVE",
"329 445 QCURVE",
"292 186 LINE SMOOTH",
"290 175 OFFCURVE",
"276 115 OFFCURVE",
"242 52 OFFCURVE",
"182 3 OFFCURVE",
"135 3 QCURVE SMOOTH",
"105 3 OFFCURVE",
"73 25 OFFCURVE",
"61 61 OFFCURVE",
"63 105 OFFCURVE",
"66 127 QCURVE SMOOTH",
"100 369 LINE SMOOTH"
);
}
);
userData = {
assembly = "PUSHW[ ]	/* 4 values pushed */\01246 4 5 4 \012CALL[ ]	/* CallFunction */\012PUSHW[ ]	/* 3 values pushed */\01226 5 46 \012SRP1[ ]	/* SetRefPoint1 */\012SRP2[ ]	/* SetRefPoint2 */\012IP[ ]	/* InterpolatePts */\012PUSHW[ ]	/* 1 value pushed */\01246 \012SRP0[ ]	/* SetRefPoint0 */\012PUSHW[ ]	/* 1 value pushed */\01259 \012MDRP[10000]	/* MoveDirectRelPt */\012PUSHW[ ]	/* 1 value pushed */\01259 \012MDAP[1]	/* MoveDirectAbsPt */\012PUSHW[ ]	/* 1 value pushed */\01246 \012SRP0[ ]	/* SetRefPoint0 */\012PUSHW[ ]	/* 1 value pushed */\01271 \012MDRP[11100]	/* MoveDirectRelPt */\012SVTCA[0]	/* SetFreedomAndProjectionVectorToAxis */\012PUSHW[ ]	/* 1 value pushed */\0120 \012RCVT[ ]	/* ReadCVT */\012IF[ ]	/* If */\012PUSHW[ ]	/* 1 value pushed */\0120 \012MDAP[1]	/* MoveDirectAbsPt */\012ELSE[ ]	/* Else */\012PUSHW[ ]	/* 2 values pushed */\0120 11 \012MIAP[0]	/* MoveIndirectAbsPt */\012EIF[ ]	/* EndIf */\012PUSHW[ ]	/* 1 value pushed */\0120 \012RCVT[ ]	/* ReadCVT */\012IF[ ]	/* If */\012PUSHW[ ]	/* 1 value pushed */\0128 \012MDAP[1]	/* MoveDirectAbsPt */\012ELSE[ ]	/* Else */\012PUSHW[ ]	/* 2 values pushed */\0128 11 \012MIAP[0]	/* MoveIndirectAbsPt */\012EIF[ ]	/* EndIf */\012PUSHW[ ]	/* 1 value pushed */\0120 \012RCVT[ ]	/* ReadCVT */\012IF[ ]	/* If */\012PUSHW[ ]	/* 1 value pushed */\01246 \012MDAP[1]	/* MoveDirectAbsPt */\012ELSE[ ]	/* Else */\012PUSHW[ ]	/* 2 values pushed */\01246 9 \012MIAP[0]	/* MoveIndirectAbsPt */\012EIF[ ]	/* EndIf */\012PUSHW[ ]	/* 1 value pushed */\0120 \012RCVT[ ]	/* ReadCVT */\012IF[ ]	/* If */\012PUSHW[ ]	/* 1 value pushed */\01264 \012MDAP[1]	/* MoveDirectAbsPt */\012ELSE[ ]	/* Else */\012PUSHW[ ]	/* 2 values pushed */\01264 9 \012MIAP[0]	/* MoveIndirectAbsPt */\012EIF[ ]	/* EndIf */\012PUSHW[ ]	/* 1 value pushed */\0120 \012RCVT[ ]	/* ReadCVT */\012IF[ ]	/* If */\012PUSHW[ ]	/* 1 value pushed */\01224 \012MDAP[1]	/* MoveDirectAbsPt */\012ELSE[ ]	/* Else */\012PUSHW[ ]	/* 2 values pushed */\01224 5 \012MIAP[0]	/* MoveIndirectAbsPt */\012EIF[ ]	/* EndIf */\012PUSHW[ ]	/* 1 value pushed */\0120 \012RCVT[ ]	/* ReadCVT */\012IF[ ]	/* If */\012PUSHW[ ]	/* 1 value pushed */\01231 \012MDAP[1]	/* MoveDirectAbsPt */\012ELSE[ ]	/* Else */\012PUSHW[ ]	/* 2 values pushed */\01231 5 \012MIAP[0]	/* MoveIndirectAbsPt */\012EIF[ ]	/* EndIf */\012PUSHW[ ]	/* 1 value pushed */\0120 \012RCVT[ ]	/* ReadCVT */\012IF[ ]	/* If */\012PUSHW[ ]	/* 1 value pushed */\01253 \012MDAP[1]	/* MoveDirectAbsPt */\012ELSE[ ]	/* Else */\012PUSHW[ ]	/* 2 values pushed */\01253 5 \012MIAP[0]	/* MoveIndirectAbsPt */\012EIF[ ]	/* EndIf */\012PUSHW[ ]	/* 3 values pushed */\01226 31 8 \012SRP1[ ]	/* SetRefPoint1 */\012SRP2[ ]	/* SetRefPoint2 */\012IP[ ]	/* InterpolatePts */\012PUSHW[ ]	/* 3 values pushed */\01245 31 8 \012SRP1[ ]	/* SetRefPoint1 */\012SRP2[ ]	/* SetRefPoint2 */\012IP[ ]	/* InterpolatePts */\012IUP[0]	/* InterpolateUntPts */\012IUP[1]	/* InterpolateUntPts */";
};
width = 415;
}
);
leftKerningGroup = a;
note = atilde;
rightKerningGroup = n;
unicode = 00E3;
},
{
color = 6;
glyphname = ae;
lastChange = "2021-11-24 16:17:35 +0000";
layers = (
{
layerId = "9AA098C0-EDBC-463F-BC21-AFCD07A070D0";
paths = (
{
closed = 1;
nodes = (
"511 120 LINE SMOOTH",
"508 98 OFFCURVE",
"497 54 OFFCURVE",
"471 18 OFFCURVE",
"425 -4 OFFCURVE",
"386 -4 QCURVE SMOOTH",
"347 -4 OFFCURVE",
"306 18 OFFCURVE",
"289 54 OFFCURVE",
"291 98 OFFCURVE",
"294 120 QCURVE SMOOTH",
"308 221 LINE",
"372 226 OFFCURVE",
"425 244 QCURVE SMOOTH",
"447 251 OFFCURVE",
"492 273 OFFCURVE",
"528 302 OFFCURVE",
"553 340 OFFCURVE",
"557 365 QCURVE SMOOTH",
"560 388 OFFCURVE",
"562 435 OFFCURVE",
"544 472 OFFCURVE",
"499 496 OFFCURVE",
"457 496 QCURVE SMOOTH",
"405 496 OFFCURVE",
"351 463 OFFCURVE",
"338 438 QCURVE",
"346 494 LINE",
"335 494 LINE",
"331 466 LINE",
"327 475 OFFCURVE",
"278 503 OFFCURVE",
"228 503 QCURVE SMOOTH",
"186 503 OFFCURVE",
"134 479 OFFCURVE",
"106 442 OFFCURVE",
"93 395 OFFCURVE",
"90 372 QCURVE SMOOTH",
"54 124 LINE SMOOTH",
"51 101 OFFCURVE",
"50 54 OFFCURVE",
"64 16 OFFCURVE",
"98 -7 OFFCURVE",
"130 -7 QCURVE SMOOTH",
"164 -7 OFFCURVE",
"214 14 OFFCURVE",
"249 47 OFFCURVE",
"273 87 OFFCURVE",
"281 105 QCURVE",
"281 104 OFFCURVE",
"280 103 OFFCURVE",
"280 101 QCURVE SMOOTH",
"265 0 LINE",
"276 0 LINE",
"282 43 LINE",
"288 18 OFFCURVE",
"334 -14 OFFCURVE",
"385 -14 QCURVE SMOOTH",
"427 -14 OFFCURVE",
"478 9 OFFCURVE",
"507 47 OFFCURVE",
"518 94 OFFCURVE",
"521 117 QCURVE SMOOTH",
"527 160 LINE",
"516 160 LINE"
);
},
{
closed = 1;
nodes = (
"103 391 OFFCURVE",
"115 435 OFFCURVE",
"142 471 OFFCURVE",
"188 493 OFFCURVE",
"227 493 QCURVE SMOOTH",
"259 493 OFFCURVE",
"296 481 OFFCURVE",
"317 464 OFFCURVE",
"326 448 OFFCURVE",
"329 445 QCURVE",
"292 186 LINE SMOOTH",
"290 175 OFFCURVE",
"276 115 OFFCURVE",
"242 52 OFFCURVE",
"182 3 OFFCURVE",
"135 3 QCURVE SMOOTH",
"105 3 OFFCURVE",
"73 25 OFFCURVE",
"61 61 OFFCURVE",
"63 105 OFFCURVE",
"66 127 QCURVE SMOOTH",
"100 369 LINE SMOOTH"
);
},
{
closed = 1;
nodes = (
"331 384 OFFCURVE",
"343 428 OFFCURVE",
"370 464 OFFCURVE",
"417 486 OFFCURVE",
"456 486 QCURVE SMOOTH",
"495 486 OFFCURVE",
"535 464 OFFCURVE",
"551 429 OFFCURVE",
"549 387 OFFCURVE",
"546 367 QCURVE SMOOTH",
"543 344 OFFCURVE",
"519 308 OFFCURVE",
"484 280 OFFCURVE",
"442 260 OFFCURVE",
"421 253 QCURVE SMOOTH",
"371 236 OFFCURVE",
"310 231 QCURVE",
"328 362 LINE SMOOTH"
);
}
);
userData = {
assembly = "SVTCA[0]	/* SetFreedomAndProjectionVectorToAxis */\012PUSHW[ ]	/* 1 value pushed */\0120 \012RCVT[ ]	/* ReadCVT */\012IF[ ]	/* If */\012PUSHW[ ]	/* 1 value pushed */\01235 \012MDAP[1]	/* MoveDirectAbsPt */\012ELSE[ ]	/* Else */\012PUSHW[ ]	/* 2 values pushed */\01235 9 \012MIAP[0]	/* MoveIndirectAbsPt */\012EIF[ ]	/* EndIf */\012PUSHW[ ]	/* 1 value pushed */\0120 \012RCVT[ ]	/* ReadCVT */\012IF[ ]	/* If */\012PUSHW[ ]	/* 1 value pushed */\01240 \012MDAP[1]	/* MoveDirectAbsPt */\012ELSE[ ]	/* Else */\012PUSHW[ ]	/* 2 values pushed */\01240 9 \012MIAP[0]	/* MoveIndirectAbsPt */\012EIF[ ]	/* EndIf */\012PUSHW[ ]	/* 1 value pushed */\0120 \012RCVT[ ]	/* ReadCVT */\012IF[ ]	/* If */\012PUSHW[ ]	/* 1 value pushed */\01281 \012MDAP[1]	/* MoveDirectAbsPt */\012ELSE[ ]	/* Else */\012PUSHW[ ]	/* 2 values pushed */\01281 9 \012MIAP[0]	/* MoveIndirectAbsPt */\012EIF[ ]	/* EndIf */\012PUSHW[ ]	/* 1 value pushed */\0120 \012RCVT[ ]	/* ReadCVT */\012IF[ ]	/* If */\012PUSHW[ ]	/* 1 value pushed */\01210 \012MDAP[1]	/* MoveDirectAbsPt */\012ELSE[ ]	/* Else */\012PUSHW[ ]	/* 2 values pushed */\01210 5 \012MIAP[0]	/* MoveIndirectAbsPt */\012EIF[ ]	/* EndIf */\012PUSHW[ ]	/* 1 value pushed */\0120 \012RCVT[ ]	/* ReadCVT */\012IF[ ]	/* If */\012PUSHW[ ]	/* 1 value pushed */\01220 \012MDAP[1]	/* MoveDirectAbsPt */\012ELSE[ ]	/* Else */\012PUSHW[ ]	/* 2 values pushed */\01220 5 \012MIAP[0]	/* MoveIndirectAbsPt */\012EIF[ ]	/* EndIf */\012PUSHW[ ]	/* 1 value pushed */\0120 \012RCVT[ ]	/* ReadCVT */\012IF[ ]	/* If */\012PUSHW[ ]	/* 1 value pushed */\01258 \012MDAP[1]	/* MoveDirectAbsPt */\012ELSE[ ]	/* Else */\012PUSHW[ ]	/* 2 values pushed */\01258 5 \012MIAP[0]	/* MoveIndirectAbsPt */\012EIF[ ]	/* EndIf */\012PUSHW[ ]	/* 1 value pushed */\0120 \012RCVT[ ]	/* ReadCVT */\012IF[ ]	/* If */\012PUSHW[ ]	/* 1 value pushed */\01270 \012MDAP[1]	/* MoveDirectAbsPt */\012ELSE[ ]	/* Else */\012PUSHW[ ]	/* 2 values pushed */\01270 5 \012MIAP[0]	/* MoveIndirectAbsPt */\012EIF[ ]	/* EndIf */\012PUSHW[ ]	/* 3 values pushed */\0129 20 40 \012SRP1[ ]	/* SetRefPoint1 */\012SRP2[ ]	/* SetRefPoint2 */\012IP[ ]	/* InterpolatePts */\012PUSHW[ ]	/* 3 values pushed */\01215 20 40 \012SRP1[ ]	/* SetRefPoint1 */\012SRP2[ ]	/* SetRefPoint2 */\012IP[ ]	/* InterpolatePts */\012PUSHW[ ]	/* 3 values pushed */\01234 20 40 \012SRP1[ ]	/* SetRefPoint1 */\012SRP2[ ]	/* SetRefPoint2 */\012IP[ ]	/* InterpolatePts */\012PUSHW[ ]	/* 3 values pushed */\01237 20 40 \012SRP1[ ]	/* SetRefPoint1 */\012SRP2[ ]	/* SetRefPoint2 */\012IP[ ]	/* InterpolatePts */\012IUP[0]	/* InterpolateUntPts */\012IUP[1]	/* InterpolateUntPts */";
};
width = 598;
}
);
leftKerningGroup = a;
note = ae;
rightKerningGroup = e;
unicode = 00E6;
},
{
color = 6;
glyphname = b;
lastChange = "2021-11-24 16:17:35 +0000";
layers = (
{
layerId = "9AA098C0-EDBC-463F-BC21-AFCD07A070D0";
paths = (
{
closed = 1;
nodes = (
"27 101 OFFCURVE",
"27 54 OFFCURVE",
"46 16 OFFCURVE",
"91 -7 OFFCURVE",
"133 -7 QCURVE SMOOTH",
"176 -7 OFFCURVE",
"227 16 OFFCURVE",
"255 54 OFFCURVE",
"266 101 OFFCURVE",
"269 124 QCURVE SMOOTH",
"305 372 LINE SMOOTH",
"308 395 OFFCURVE",
"310 442 OFFCURVE",
"292 479 OFFCURVE",
"247 503 OFFCURVE",
"205 503 QCURVE SMOOTH",
"155 503 OFFCURVE",
"101 472 OFFCURVE",
"88 449 QCURVE",
"114 630 LINE",
"103 630 LINE",
"30 124 LINE SMOOTH"
);
},
{
closed = 1;
nodes = (
"256 105 OFFCURVE",
"245 61 OFFCURVE",
"219 25 OFFCURVE",
"173 3 OFFCURVE",
"134 3 QCURVE SMOOTH",
"95 3 OFFCURVE",
"54 25 OFFCURVE",
"38 61 OFFCURVE",
"39 105 OFFCURVE",
"42 127 QCURVE SMOOTH",
"79 387 LINE SMOOTH",
"82 407 OFFCURVE",
"95 445 OFFCURVE",
"123 475 OFFCURVE",
"169 493 OFFCURVE",
"204 493 QCURVE SMOOTH",
"243 493 OFFCURVE",
"283 471 OFFCURVE",
"298 435 OFFCURVE",
"296 391 OFFCURVE",
"293 369 QCURVE SMOOTH",
"259 127 LINE SMOOTH"
);
}
);
userData = {
assembly = "SVTCA[0]	/* SetFreedomAndProjectionVectorToAxis */\012PUSHW[ ]	/* 1 value pushed */\01238 \012MDAP[1]	/* MoveDirectAbsPt */\012IUP[0]	/* InterpolateUntPts */\012IUP[1]	/* InterpolateUntPts */";
};
width = 333;
}
);
leftKerningGroup = b;
leftMetricsKey = "=n-3";
note = b;
rightKerningGroup = o;
rightMetricsKey = o;
unicode = 0062;
},
{
color = 6;
glyphname = c;
lastChange = "2021-11-24 16:17:35 +0000";
layers = (
{
layerId = "9AA098C0-EDBC-463F-BC21-AFCD07A070D0";
paths = (
{
closed = 1;
nodes = (
"256 127 LINE SMOOTH",
"253 105 OFFCURVE",
"242 61 OFFCURVE",
"216 25 OFFCURVE",
"170 3 OFFCURVE",
"131 3 QCURVE SMOOTH",
"92 3 OFFCURVE",
"51 25 OFFCURVE",
"35 61 OFFCURVE",
"36 105 OFFCURVE",
"39 127 QCURVE SMOOTH",
"73 369 LINE SMOOTH",
"76 391 OFFCURVE",
"88 435 OFFCURVE",
"114 471 OFFCURVE",
"161 493 OFFCURVE",
"200 493 QCURVE SMOOTH",
"239 493 OFFCURVE",
"277 465 OFFCURVE",
"287 425 OFFCURVE",
"274 379 OFFCURVE",
"261 361 QCURVE SMOOTH",
"229 315 LINE",
"242 315 LINE",
"274 361 LINE SMOOTH",
"287 380 OFFCURVE",
"300 429 OFFCURVE",
"287 473 OFFCURVE",
"243 503 OFFCURVE",
"201 503 QCURVE SMOOTH",
"158 503 OFFCURVE",
"107 479 OFFCURVE",
"78 442 OFFCURVE",
"66 395 OFFCURVE",
"63 372 QCURVE SMOOTH",
"28 124 LINE SMOOTH",
"25 101 OFFCURVE",
"24 54 OFFCURVE",
"42 16 OFFCURVE",
"87 -7 OFFCURVE",
"130 -7 QCURVE SMOOTH",
"172 -7 OFFCURVE",
"223 16 OFFCURVE",
"252 54 OFFCURVE",
"264 101 OFFCURVE",
"267 124 QCURVE SMOOTH",
"273 167 LINE",
"262 167 LINE"
);
}
);
width = 319;
}
);
leftKerningGroup = o;
leftMetricsKey = o;
note = c;
rightKerningGroup = c;
rightMetricsKey = "=o-10";
unicode = 0063;
},
{
color = 11;
glyphname = cacute;
lastChange = "2021-11-24 16:17:35 +0000";
layers = (
{
layerId = "9AA098C0-EDBC-463F-BC21-AFCD07A070D0";
paths = (
{
closed = 1;
nodes = (
"271 655 LINE",
"196 569 LINE",
"207 569 LINE",
"293 655 LINE"
);
},
{
closed = 1;
nodes = (
"280 127 LINE SMOOTH",
"277 105 OFFCURVE",
"266 61 OFFCURVE",
"240 25 OFFCURVE",
"194 3 OFFCURVE",
"155 3 QCURVE SMOOTH",
"116 3 OFFCURVE",
"75 25 OFFCURVE",
"59 61 OFFCURVE",
"60 105 OFFCURVE",
"63 127 QCURVE SMOOTH",
"97 369 LINE SMOOTH",
"100 391 OFFCURVE",
"112 435 OFFCURVE",
"138 471 OFFCURVE",
"185 493 OFFCURVE",
"224 493 QCURVE SMOOTH",
"263 493 OFFCURVE",
"301 465 OFFCURVE",
"311 425 OFFCURVE",
"298 379 OFFCURVE",
"285 361 QCURVE SMOOTH",
"253 315 LINE",
"266 315 LINE",
"298 361 LINE SMOOTH",
"311 380 OFFCURVE",
"324 429 OFFCURVE",
"311 473 OFFCURVE",
"267 503 OFFCURVE",
"225 503 QCURVE SMOOTH",
"182 503 OFFCURVE",
"131 479 OFFCURVE",
"102 442 OFFCURVE",
"90 395 OFFCURVE",
"87 372 QCURVE SMOOTH",
"52 124 LINE SMOOTH",
"49 101 OFFCURVE",
"48 54 OFFCURVE",
"66 16 OFFCURVE",
"111 -7 OFFCURVE",
"154 -7 QCURVE SMOOTH",
"196 -7 OFFCURVE",
"247 16 OFFCURVE",
"276 54 OFFCURVE",
"288 101 OFFCURVE",
"291 124 QCURVE SMOOTH",
"297 167 LINE",
"286 167 LINE"
);
}
);
userData = {
assembly = "SVTCA[0]	/* SetFreedomAndProjectionVectorToAxis */\012PUSHW[ ]	/* 4 values pushed */\0122 3 0 4 \012CALL[ ]	/* CallFunction */\012IUP[0]	/* InterpolateUntPts */\012IUP[1]	/* InterpolateUntPts */";
};
width = 369;
}
);
leftKerningGroup = o;
note = cacute;
rightKerningGroup = c;
unicode = 0107;
},
{
color = 11;
glyphname = ccaron;
lastChange = "2021-11-24 16:17:35 +0000";
layers = (
{
layerId = "9AA098C0-EDBC-463F-BC21-AFCD07A070D0";
paths = (
{
closed = 1;
nodes = (
"268 587 OFFCURVE",
"321 634 OFFCURVE",
"347 658 QCURVE",
"334 658 LINE",
"237 571 LINE",
"165 658 LINE",
"151 658 LINE",
"168 637 OFFCURVE",
"192 608 OFFCURVE",
"209 587 OFFCURVE",
"221 571 OFFCURVE",
"227 564 QCURVE",
"243 564 LINE"
);
},
{
closed = 1;
nodes = (
"280 127 LINE SMOOTH",
"277 105 OFFCURVE",
"266 61 OFFCURVE",
"240 25 OFFCURVE",
"194 3 OFFCURVE",
"155 3 QCURVE SMOOTH",
"116 3 OFFCURVE",
"75 25 OFFCURVE",
"59 61 OFFCURVE",
"60 105 OFFCURVE",
"63 127 QCURVE SMOOTH",
"97 369 LINE SMOOTH",
"100 391 OFFCURVE",
"112 435 OFFCURVE",
"138 471 OFFCURVE",
"185 493 OFFCURVE",
"224 493 QCURVE SMOOTH",
"263 493 OFFCURVE",
"301 465 OFFCURVE",
"311 425 OFFCURVE",
"298 379 OFFCURVE",
"285 361 QCURVE SMOOTH",
"253 315 LINE",
"266 315 LINE",
"298 361 LINE SMOOTH",
"311 380 OFFCURVE",
"324 429 OFFCURVE",
"311 473 OFFCURVE",
"267 503 OFFCURVE",
"225 503 QCURVE SMOOTH",
"182 503 OFFCURVE",
"131 479 OFFCURVE",
"102 442 OFFCURVE",
"90 395 OFFCURVE",
"87 372 QCURVE SMOOTH",
"52 124 LINE SMOOTH",
"49 101 OFFCURVE",
"48 54 OFFCURVE",
"66 16 OFFCURVE",
"111 -7 OFFCURVE",
"154 -7 QCURVE SMOOTH",
"196 -7 OFFCURVE",
"247 16 OFFCURVE",
"276 54 OFFCURVE",
"288 101 OFFCURVE",
"291 124 QCURVE SMOOTH",
"297 167 LINE",
"286 167 LINE"
);
}
);
userData = {
assembly = "SVTCA[0]	/* SetFreedomAndProjectionVectorToAxis */\012PUSHW[ ]	/* 4 values pushed */\0126 3 0 4 \012CALL[ ]	/* CallFunction */\012PUSHW[ ]	/* 1 value pushed */\0126 \012SRP0[ ]	/* SetRefPoint0 */\012PUSHW[ ]	/* 1 value pushed */\0128 \012MDRP[10000]	/* MoveDirectRelPt */\012IUP[0]	/* InterpolateUntPts */\012IUP[1]	/* InterpolateUntPts */";
};
width = 395;
}
);
leftKerningGroup = o;
note = ccaron;
rightKerningGroup = c;
unicode = 010D;
},
{
color = 11;
glyphname = ccedilla;
lastChange = "2021-11-24 16:17:35 +0000";
layers = (
{
layerId = "9AA098C0-EDBC-463F-BC21-AFCD07A070D0";
paths = (
{
closed = 1;
nodes = (
"285 127 LINE SMOOTH",
"282 105 OFFCURVE",
"271 61 OFFCURVE",
"245 25 OFFCURVE",
"199 3 OFFCURVE",
"160 3 QCURVE SMOOTH",
"121 3 OFFCURVE",
"80 25 OFFCURVE",
"64 61 OFFCURVE",
"65 105 OFFCURVE",
"68 127 QCURVE SMOOTH",
"102 369 LINE SMOOTH",
"105 391 OFFCURVE",
"117 435 OFFCURVE",
"143 471 OFFCURVE",
"190 493 OFFCURVE",
"229 493 QCURVE SMOOTH",
"268 493 OFFCURVE",
"306 465 OFFCURVE",
"316 425 OFFCURVE",
"303 379 OFFCURVE",
"290 361 QCURVE SMOOTH",
"258 315 LINE",
"271 315 LINE",
"303 361 LINE SMOOTH",
"316 380 OFFCURVE",
"329 429 OFFCURVE",
"316 473 OFFCURVE",
"272 503 OFFCURVE",
"230 503 QCURVE SMOOTH",
"187 503 OFFCURVE",
"136 479 OFFCURVE",
"107 442 OFFCURVE",
"95 395 OFFCURVE",
"92 372 QCURVE SMOOTH",
"57 124 LINE SMOOTH",
"54 101 OFFCURVE",
"52 56 OFFCURVE",
"69 19 OFFCURVE",
"109 -5 OFFCURVE",
"148 -7 QCURVE",
"73 -111 LINE",
"78 -115 LINE",
"90 -108 OFFCURVE",
"133 -92 OFFCURVE",
"156 -92 QCURVE SMOOTH",
"191 -92 OFFCURVE",
"227 -134 OFFCURVE",
"223 -164 QCURVE SMOOTH",
"218 -194 OFFCURVE",
"164 -236 OFFCURVE",
"119 -236 QCURVE SMOOTH",
"100 -236 OFFCURVE",
"64 -226 OFFCURVE",
"53 -219 QCURVE",
"48 -227 LINE",
"63 -234 OFFCURVE",
"99 -243 OFFCURVE",
"119 -243 QCURVE SMOOTH",
"175 -243 OFFCURVE",
"229 -194 OFFCURVE",
"234 -158 QCURVE SMOOTH",
"239 -129 OFFCURVE",
"201 -83 OFFCURVE",
"160 -83 QCURVE SMOOTH",
"150 -83 OFFCURVE",
"110 -91 OFFCURVE",
"92 -100 QCURVE",
"160 -7 LINE",
"202 -7 OFFCURVE",
"252 17 OFFCURVE",
"281 54 OFFCURVE",
"293 101 OFFCURVE",
"296 124 QCURVE SMOOTH",
"302 167 LINE",
"291 167 LINE"
);
}
);
userData = {
assembly = "SVTCA[0]	/* SetFreedomAndProjectionVectorToAxis */\012PUSHW[ ]	/* 3 values pushed */\01229 33 3 \012CALL[ ]	/* CallFunction */\012PUSHW[ ]	/* 3 values pushed */\0127 33 29 \012SRP1[ ]	/* SetRefPoint1 */\012SRP2[ ]	/* SetRefPoint2 */\012IP[ ]	/* InterpolatePts */\012IUP[0]	/* InterpolateUntPts */\012IUP[1]	/* InterpolateUntPts */";
};
width = 374;
}
);
leftKerningGroup = o;
note = ccedilla;
rightKerningGroup = c;
unicode = 00E7;
},
